<?xml version="1.0" encoding="utf-8"?>
<!-- Generator: Adobe Illustrator 22.0.1, SVG Export Plug-In . SVG Version: 6.00 Build 0)  -->
<svg version="1.1" id="Capa_1" xmlns="http://www.w3.org/2000/svg" xmlns:xlink="http://www.w3.org/1999/xlink" x="0px" y="0px"
	 viewBox="0 0 32 32" style="enable-background:new 0 0 32 32;" xml:space="preserve" fill="#118e9b">
<g>
	<g>
		<g>
			<path d="M21.4,17.3l-2.7-1.2c-0.2-0.1-0.3-0.3-0.3-0.5v-0.7c0.9-0.7,1.5-1.8,1.5-3v-1c0.3-0.2,0.5-0.5,0.5-0.8V9.9
				c0-2.1-1.7-3.9-3.9-3.9h-1c-2.1,0-3.9,1.7-3.9,3.9v0.9c0,0.3,0.1,0.6,0.4,0.8c0,0,0.1,0.1,0.1,0.1v0.2c0,1.2,0.6,2.3,1.5,3v0.7
				c0,0.2-0.1,0.4-0.3,0.5l-2.7,1.2c-0.9,0.4-1.4,1.3-1.4,2.2v6.1c0,0.3,0.2,0.5,0.5,0.5s0.5-0.2,0.5-0.5v-6.1c0-0.1,0-0.1,0-0.2
				l1.2,1.2c0.2,0.2,0.3,0.4,0.3,0.7v4.3c0,0.3,0.2,0.5,0.5,0.5s0.5-0.2,0.5-0.5v-4.3c0-0.5-0.2-1-0.6-1.4l-1.5-1.5
				c0.1-0.1,0.3-0.3,0.5-0.3l2.6-1.2l1.9,1.9v6.7c0,0.3,0.2,0.5,0.5,0.5c0.3,0,0.5-0.2,0.5-0.5v-6.7l1.9-1.9l2.6,1.2
				c0.2,0.1,0.3,0.2,0.5,0.3L20,19.9c-0.4,0.4-0.6,0.8-0.6,1.4v4.3c0,0.3,0.2,0.5,0.5,0.5c0.3,0,0.5-0.2,0.5-0.5v-4.3
				c0-0.3,0.1-0.5,0.3-0.7l1.2-1.2c0,0.1,0,0.1,0,0.2v6.1c0,0.3,0.2,0.5,0.5,0.5c0.3,0,0.5-0.2,0.5-0.5v-6.1
				C22.8,18.5,22.3,17.7,21.4,17.3z M16,18l-1.7-1.7c0.1-0.2,0.2-0.5,0.2-0.7v-0.2c0.5,0.2,1,0.3,1.5,0.3c0.5,0,1-0.1,1.5-0.3v0.2
				c0,0.3,0.1,0.5,0.2,0.7L16,18z M16,14.8c-1.6,0-3-1.3-3-3v-0.2c0.3-0.1,0.6-0.3,0.8-0.5c0.2-0.2,0.2-0.5,0-0.6
				c-0.2-0.2-0.5-0.2-0.6,0c-0.2,0.2-0.5,0.3-0.7,0.4c0,0,0,0,0,0c0,0,0,0,0,0V9.9c0-1.6,1.3-3,3-3h1c1.6,0,3,1.3,3,3V10
				c0,0,0,0,0,0c-2.7,0.5-4.1-0.5-4.6-0.9c-0.2-0.2-0.5-0.2-0.6,0c-0.2,0.2-0.2,0.5,0,0.6c1.4,1.4,3.5,1.5,4.8,1.3v0.8
				C19,13.5,17.6,14.8,16,14.8z"/>
		</g>
	</g>
	<g>
		<g>
			<path d="M8.6,13.5v-1c0-1.2-0.6-2.2-1.6-2.9c0.1-0.2,0.1-0.4,0.1-0.6c0-1.1-0.9-1.9-1.9-1.9S3.3,8.1,3.3,9.1c0,0.2,0,0.4,0.1,0.6
				c-0.9,0.6-1.6,1.7-1.6,2.9v1c0,1.2,0.6,2.2,1.5,2.8v1c0,0.2-0.1,0.4-0.3,0.5l-1.6,0.8c-0.7,0.3-1.1,1-1.1,1.7v4
				c0,0.3,0.2,0.5,0.5,0.5s0.5-0.2,0.5-0.5v-3.8L2,21.3c0.2,0.2,0.3,0.4,0.3,0.7v2.3c0,0.3,0.2,0.5,0.5,0.5s0.5-0.2,0.5-0.5V22
				c0-0.5-0.2-1-0.6-1.4l-1-1c0,0,0,0,0,0c0.1-0.1,0.1-0.1,0.2-0.1l1.6-0.8c0.1,0,0.2-0.1,0.2-0.1l1.1,1.1v4.7
				c0,0.3,0.2,0.5,0.5,0.5s0.5-0.2,0.5-0.5v-4.7l1.1-1.1c0.1,0.1,0.1,0.1,0.2,0.1l0.4,0.2c0.1,0,0.1,0,0.2,0c0.2,0,0.3-0.1,0.4-0.3
				c0.1-0.2,0-0.5-0.2-0.6l-0.4-0.2c-0.2-0.1-0.3-0.3-0.3-0.5v-1C8,15.7,8.6,14.7,8.6,13.5z M5.2,8.1c0.6,0,1,0.5,1,1
				c0,0.1,0,0.1,0,0.2c-0.3-0.1-0.6-0.1-1-0.1c-0.3,0-0.7,0.1-1,0.1c0-0.1,0-0.1,0-0.2C4.2,8.6,4.7,8.1,5.2,8.1z M5.2,10.1
				c1.4,0,2.5,1.1,2.5,2.5v0.2c-1.9,0.6-3-0.9-3.1-0.9c-0.1-0.1-0.2-0.2-0.3-0.2c-0.1,0-0.3,0-0.4,0.1c-0.4,0.4-0.9,0.6-1.2,0.8
				C2.8,11.2,3.9,10.1,5.2,10.1z M5.2,18.8l-1.1-1.1c0-0.1,0-0.2,0-0.4v-0.6c0.3,0.1,0.7,0.2,1,0.2c0.4,0,0.7-0.1,1-0.2v0.6
				c0,0.1,0,0.2,0,0.4L5.2,18.8z M5.2,16c-1.4,0-2.5-1.1-2.5-2.5v-0.1c0.4-0.1,0.9-0.3,1.5-0.7c0.2,0.2,0.5,0.4,0.9,0.6
				c0.4,0.2,1,0.5,1.8,0.5c0.3,0,0.6,0,0.9-0.1C7.6,15,6.5,16,5.2,16z"/>
		</g>
	</g>
	<g>
		<g>
			<path d="M30.6,17.1L28,15.9c-0.2-0.1-0.3-0.3-0.3-0.5v-0.7c0.6-0.5,1-1.3,1-2.2V12c0,0,0,0,0,0c0.3,0,0.5-0.2,0.5-0.5v-1
				c0-1.6-1.3-2.9-2.9-2.9h-1c-1.6,0-2.9,1.3-2.9,2.9v1c0,0.3,0.2,0.5,0.5,0.5c0,0,0,0,0,0v0.5c0,0.9,0.4,1.6,1,2.2v0.7
				c0,0.2-0.1,0.4-0.3,0.5c-0.2,0.1-0.3,0.4-0.2,0.6c0.1,0.2,0.2,0.3,0.4,0.3c0.1,0,0.1,0,0.2,0c0.1,0,0.2-0.1,0.2-0.1l1.1,1.1v6.2
				c0,0.3,0.2,0.5,0.5,0.5s0.5-0.2,0.5-0.5v-6.2l1.1-1.1c0.1,0.1,0.1,0.1,0.2,0.1l2.5,1.2l-0.8,0.8C29,19,28.8,19.5,28.8,20v3.8
				c0,0.3,0.2,0.5,0.5,0.5c0.3,0,0.5-0.2,0.5-0.5V20c0-0.3,0.1-0.5,0.3-0.7l0.7-0.7c0,0.1,0,0.2,0,0.3v5c0,0.3,0.2,0.5,0.5,0.5
				c0.3,0,0.5-0.2,0.5-0.5v-5C31.7,18.1,31.2,17.5,30.6,17.1z M23.3,11v-0.4h0c0-1.1,0.9-2,2-2h1c1.1,0,2,0.9,2,2v0.5
				c-2-0.1-3.2-0.9-3.2-0.9c-0.1-0.1-0.2-0.1-0.3-0.1c-0.1,0-0.2,0-0.3,0.1C24.1,10.7,23.6,10.9,23.3,11z M25.8,16.8l-1.1-1.1
				c0-0.1,0-0.2,0-0.4v-0.1c0.3,0.1,0.7,0.2,1,0.2c0.4,0,0.7-0.1,1-0.2v0.1c0,0.1,0,0.2,0,0.4L25.8,16.8z M25.8,14.6
				c-1.1,0-2-0.9-2-2v-0.7l0,0c0.3-0.1,0.7-0.3,1.1-0.7c0.5,0.3,1.5,0.7,2.9,0.8v0.6C27.8,13.7,26.9,14.6,25.8,14.6z"/>
		</g>
	</g>
</g>
</svg>
