<?xml version="1.0" encoding="utf-8"?>
<!-- Generator: Adobe Illustrator 22.0.1, SVG Export Plug-In . SVG Version: 6.00 Build 0)  -->
<svg version="1.1" id="Capa_1" xmlns="http://www.w3.org/2000/svg" xmlns:xlink="http://www.w3.org/1999/xlink" x="0px" y="0px"
	 viewBox="0 0 32 32" style="enable-background:new 0 0 32 32;" xml:space="preserve" fill="#118e9b">
<g>
	<g>
		<path d="M19,20.6c0,0-3.5,0.1-4.1-3.7c0.6-0.4,1.1-0.9,1.6-1.6c0.9-1.2,1.5-2.8,1.7-4.5c0.1-0.1,0.1-0.1,0.2-0.2
			c0.4-0.9,0.6-1.9,0.6-2.9c0-3.8-2.9-7-6.5-7c-0.9,0-1.8,0.2-2.7,0.6c-0.3,0-0.6,0.1-1,0.2C7.4,2,6.2,3.1,5.5,4.6
			c-0.7,1.5-0.8,3.3-0.4,5c0.1,0.4,0.2,0.7,0.3,1.1c0,0.1,0.1,0.2,0.2,0.2c0.3,2.6,1.6,4.8,3.3,6c-0.5,3.8-4,3.7-4.1,3.7
			c-2.5,0.1-4.6,2.2-4.6,4.7v5.3c0,0.4,0.3,0.7,0.7,0.7h6h9.8h6c0.4,0,0.7-0.3,0.7-0.7v-5.3C23.5,22.7,21.5,20.6,19,20.6z M9.2,2.9
			C9.5,2.8,9.7,2.8,10,2.8c0.1,0,0.2,0,0.3-0.1c0.7-0.4,1.4-0.6,2.2-0.6c2.8,0,5.1,2.5,5.1,5.6c0,0.1,0,0.2,0,0.3
			c-0.5-0.6-1.3-0.9-2.1-0.9h-4.7c-0.3,0-0.5-0.1-0.8-0.3C9.8,6.7,9.6,6.5,9.6,6.3C9.4,6,9.1,5.8,8.7,5.8C8.4,5.8,8.1,6.1,8,6.4
			c-0.3,1-0.8,2-1.6,2.8C5.7,6.3,7,3.5,9.2,2.9z M8.6,14.8c-0.9-1.1-1.5-2.6-1.7-4.2c0.9-0.8,1.6-1.7,2-2.8C9,7.8,9.1,7.9,9.2,8
			c0.5,0.3,1,0.5,1.6,0.5h4.7c0.7,0,1.2,0.4,1.5,1c0,0,0,0,0,0c0,3.9-2.2,7-5,7C10.7,16.5,9.5,15.9,8.6,14.8z M10.2,17.6
			c0.5,0.2,1.1,0.3,1.7,0.3c0.6,0,1.2-0.1,1.7-0.3c0.3,1.3,1,2.5,2,3.2L12,25.9c0,0-0.1,0.1-0.1,0.1c0,0-0.1,0-0.1-0.1l-3.6-5.1
			C9.2,20,9.9,18.9,10.2,17.6z M22.1,29.9h-5.3H7H1.7v-4.6c0-1.8,1.5-3.3,3.3-3.3c0,0,1.1,0,2-0.4l3.7,5.2c0.3,0.4,0.7,0.6,1.2,0.6
			c0,0,0,0,0,0c0.5,0,0.9-0.2,1.2-0.6l3.7-5.2c1,0.4,2,0.4,2,0.4c1.8,0,3.3,1.5,3.3,3.3L22.1,29.9L22.1,29.9z"/>
	</g>
</g>
<g>
	<g>
		<path d="M30.5,10.8h-9.4c-0.8,0-1.5,0.7-1.5,1.5v6.4c0,0.8,0.7,1.5,1.5,1.5h9.4c0.8,0,1.5-0.7,1.5-1.5v-6.4
			C32,11.4,31.3,10.8,30.5,10.8z M31.3,18.7c0,0.5-0.4,0.8-0.8,0.8h-9.4c-0.5,0-0.8-0.4-0.8-0.8v-6.4c0-0.5,0.4-0.8,0.8-0.8h9.4
			c0.5,0,0.8,0.4,0.8,0.8L31.3,18.7L31.3,18.7z"/>
		<path d="M27.4,15.4l3-2.7c0.1-0.1,0.2-0.3,0-0.5c-0.1-0.1-0.3-0.2-0.5,0l-4.2,3.8L25,15.2c0,0,0,0,0,0c0,0,0,0-0.1,0l-3.3-3
			c-0.1-0.1-0.4-0.1-0.5,0s-0.1,0.4,0,0.5l3.1,2.7l-3.1,2.9c-0.1,0.1-0.1,0.3,0,0.5c0.1,0.1,0.2,0.1,0.3,0.1c0.1,0,0.2,0,0.2-0.1
			l3.1-2.9l0.8,0.8c0.1,0.1,0.1,0.1,0.2,0.1s0.2,0,0.2-0.1l0.9-0.8l3.1,2.9c0.1,0.1,0.2,0.1,0.2,0.1c0.1,0,0.2,0,0.3-0.1
			c0.1-0.1,0.1-0.4,0-0.5L27.4,15.4z"/>
	</g>
</g>
</svg>
