<?xml version="1.0" encoding="utf-8"?>
<!-- Generator: Adobe Illustrator 22.0.1, SVG Export Plug-In . SVG Version: 6.00 Build 0)  -->
<svg version="1.1" id="Capa_1" xmlns="http://www.w3.org/2000/svg" xmlns:xlink="http://www.w3.org/1999/xlink" x="0px" y="0px"
	 viewBox="0 0 32 32" style="enable-background:new 0 0 32 32;" xml:space="preserve" fill="#118e9b">
<g>
	<path d="M31,7.1c-1.3-1.3-3.4-1.3-4.7,0l-2.4,2.4c-0.2,0.2-0.2,0.5,0,0.7c0.2,0.2,0.5,0.2,0.7,0L27,7.9c0.4-0.4,1-0.7,1.6-0.7
		c0.6,0,1.2,0.2,1.6,0.7c0.4,0.4,0.7,1,0.7,1.6c0,0.6-0.2,1.2-0.7,1.6l-3.1,3.1c-0.9,0.9-2.4,0.9-3.3,0c-0.2-0.2-0.5-0.2-0.7,0
		c-0.2,0.2-0.2,0.5,0,0.7c0.6,0.6,1.5,1,2.4,1c0.9,0,1.7-0.3,2.4-1l3.1-3.1c0.6-0.6,1-1.5,1-2.4C31.9,8.6,31.6,7.8,31,7.1z"/>
	<path d="M24.8,16.6l-2,2c-0.4,0.4-1,0.7-1.6,0.7c-0.6,0-1.2-0.2-1.6-0.7c-0.9-0.9-0.9-2.4,0-3.3l2.9-2.9c0.4-0.4,1-0.7,1.6-0.7
		c0.6,0,1.2,0.2,1.6,0.7c0.2,0.2,0.5,0.2,0.7,0c0.2-0.2,0.2-0.5,0-0.7c-1.3-1.3-3.4-1.3-4.7,0l-2.9,2.9c-0.6,0.6-1,1.5-1,2.4
		c0,0.9,0.3,1.7,1,2.4c0.6,0.6,1.5,1,2.4,1c0.9,0,1.7-0.3,2.4-1l2-2c0.2-0.2,0.2-0.5,0-0.7C25.3,16.4,25,16.4,24.8,16.6z"/>
</g>
<g>
	<g>
		<path d="M20.3,20.6c0,0-3.5,0.1-4.1-3.7c0.6-0.4,1.1-0.9,1.6-1.6c0.9-1.2,1.5-2.8,1.7-4.5c0.1-0.1,0.1-0.1,0.2-0.2
			c0.4-0.9,0.6-1.9,0.6-2.9c0-3.8-2.9-7-6.5-7c-0.9,0-1.8,0.2-2.7,0.6c-0.3,0-0.6,0.1-1,0.2C8.7,2,7.5,3.1,6.8,4.6
			C6.2,6.1,6,7.9,6.5,9.6c0.1,0.4,0.2,0.7,0.3,1.1c0,0.1,0.1,0.2,0.2,0.2c0.3,2.6,1.6,4.8,3.3,6c-0.5,3.8-4,3.7-4.1,3.7
			c-2.5,0.1-4.6,2.2-4.6,4.7v5.3c0,0.4,0.3,0.7,0.7,0.7h6h9.8h6c0.4,0,0.7-0.3,0.7-0.7v-5.3C24.9,22.7,22.9,20.6,20.3,20.6z
			 M10.6,2.9c0.3-0.1,0.5-0.1,0.8-0.1c0.1,0,0.2,0,0.3-0.1c0.7-0.4,1.4-0.6,2.2-0.6c2.8,0,5.1,2.5,5.1,5.6c0,0.1,0,0.2,0,0.3
			c-0.5-0.6-1.3-0.9-2.1-0.9h-4.7c-0.3,0-0.5-0.1-0.8-0.3c-0.2-0.1-0.3-0.3-0.4-0.5c-0.1-0.3-0.5-0.5-0.8-0.5
			c-0.4,0-0.7,0.3-0.8,0.6c-0.3,1-0.8,2-1.6,2.8C7.1,6.3,8.3,3.5,10.6,2.9z M10,14.8c-0.9-1.1-1.5-2.6-1.7-4.2
			c0.9-0.8,1.6-1.7,2-2.8c0.1,0.1,0.1,0.1,0.2,0.2c0.5,0.3,1,0.5,1.6,0.5h4.7c0.7,0,1.2,0.4,1.5,1c0,0,0,0,0,0c0,3.9-2.2,7-5,7
			C12.1,16.5,10.9,15.9,10,14.8z M11.6,17.6c0.5,0.2,1.1,0.3,1.7,0.3c0.6,0,1.2-0.1,1.7-0.3c0.3,1.3,1,2.5,2,3.2l-3.6,5.1
			c0,0-0.1,0.1-0.1,0.1c0,0-0.1,0-0.1-0.1l-3.6-5.1C10.6,20,11.3,18.9,11.6,17.6z M23.5,29.9h-5.3H8.4H3v-4.6c0-1.8,1.5-3.3,3.3-3.3
			c0,0,1.1,0,2-0.4l3.7,5.2c0.3,0.4,0.7,0.6,1.2,0.6c0,0,0,0,0,0c0.5,0,0.9-0.2,1.2-0.6l3.7-5.2c1,0.4,2,0.4,2,0.4
			c1.8,0,3.3,1.5,3.3,3.3V29.9L23.5,29.9z"/>
	</g>
</g>
</svg>
