<?xml version="1.0" encoding="utf-8"?>
<!-- Generator: Adobe Illustrator 22.0.1, SVG Export Plug-In . SVG Version: 6.00 Build 0)  -->
<svg version="1.1" id="Capa_1" xmlns="http://www.w3.org/2000/svg" xmlns:xlink="http://www.w3.org/1999/xlink" x="0px" y="0px"
	 viewBox="0 0 32 32" style="enable-background:new 0 0 32 32;" xml:space="preserve" fill="#118e9b">
<g>
	<path d="M28.3,3.7c-2.6-2.6-6.9-2.6-9.5,0L14,8.5c-0.4,0.4-0.4,1.1,0,1.5c0.4,0.4,1.1,0.4,1.5,0l4.8-4.8c0.9-0.9,2-1.4,3.3-1.4
		c1.3,0,2.4,0.5,3.3,1.4s1.4,2,1.4,3.3c0,1.3-0.5,2.4-1.4,3.3L20.6,18c-1.8,1.8-4.8,1.8-6.6,0c-0.4-0.4-1.1-0.4-1.5,0
		s-0.4,1.1,0,1.5c1.3,1.3,3,2,4.8,2s3.5-0.7,4.8-2l6.2-6.2c1.3-1.3,2-3,2-4.8C30.2,6.7,29.5,5,28.3,3.7z"/>
	<path d="M15.8,22.8l-4,4c-0.9,0.9-2,1.4-3.3,1.4c-1.3,0-2.4-0.5-3.3-1.4c-1.8-1.8-1.8-4.8,0-6.6l5.9-5.9c0.9-0.9,2-1.4,3.3-1.4
		c1.3,0,2.4,0.5,3.3,1.4c0.4,0.4,1.1,0.4,1.5,0c0.4-0.4,0.4-1.1,0-1.5c-2.6-2.6-6.9-2.6-9.5,0l-5.9,5.9c-1.3,1.3-2,3-2,4.8
		c0,1.8,0.7,3.5,2,4.8c1.3,1.3,3,2,4.8,2c1.8,0,3.5-0.7,4.8-2l4-4c0.4-0.4,0.4-1.1,0-1.5S16.2,22.4,15.8,22.8z"/>
</g>
</svg>
