<?xml version="1.0" encoding="utf-8"?>
<!-- Generator: Adobe Illustrator 22.0.1, SVG Export Plug-In . SVG Version: 6.00 Build 0)  -->
<svg version="1.1" id="Capa_1" xmlns="http://www.w3.org/2000/svg" xmlns:xlink="http://www.w3.org/1999/xlink" x="0px" y="0px"
	 viewBox="0 0 32 32" style="enable-background:new 0 0 32 32;" xml:space="preserve" fill="#118e9b">
<g>
	<g>
		<path d="M27.5,4.4h-23c-2.1,0-3.7,1.7-3.7,3.7v15.7c0,2.1,1.7,3.7,3.7,3.7h23c2.1,0,3.7-1.7,3.7-3.7V8.1
			C31.2,6.1,29.6,4.4,27.5,4.4z M29.5,23.9c0,1.1-0.9,2-2,2h-23c-1.1,0-2-0.9-2-2V8.1c0-1.1,0.9-2,2-2h23c1.1,0,2,0.9,2,2L29.5,23.9
			L29.5,23.9z"/>
		<path d="M20,15.8l7.4-6.7c0.3-0.3,0.4-0.9,0.1-1.2c-0.3-0.3-0.9-0.4-1.2-0.1L16,17.1l-2-1.8c0,0,0,0,0,0c0,0-0.1-0.1-0.1-0.1
			L5.7,7.9C5.4,7.5,4.8,7.6,4.5,7.9C4.2,8.3,4.2,8.8,4.6,9.1l7.5,6.7l-7.5,7c-0.3,0.3-0.4,0.9,0,1.2c0.2,0.2,0.4,0.3,0.6,0.3
			c0.2,0,0.4-0.1,0.6-0.2l7.6-7.1l2.1,1.8c0.2,0.1,0.4,0.2,0.6,0.2c0.2,0,0.4-0.1,0.6-0.2l2.1-1.9l7.6,7.2c0.2,0.2,0.4,0.2,0.6,0.2
			c0.2,0,0.4-0.1,0.6-0.3c0.3-0.3,0.3-0.9,0-1.2L20,15.8z"/>
	</g>
</g>
</svg>
