<?xml version="1.0" encoding="utf-8"?>
<!-- Generator: Adobe Illustrator 22.0.1, SVG Export Plug-In . SVG Version: 6.00 Build 0)  -->
<svg version="1.1" id="Capa_1" xmlns="http://www.w3.org/2000/svg" xmlns:xlink="http://www.w3.org/1999/xlink" x="0px" y="0px"
	 viewBox="0 0 32 32" style="enable-background:new 0 0 32 32;" xml:space="preserve" fill="#118e9b">
<g>
	<g>
		<g>
			<path d="M26.8,12l-0.7-0.7C26,11.2,26,11,26.1,10.8l0.4-0.9c0.2-0.4,0.2-0.8,0-1.1C26.3,8.4,26,8.1,25.6,8l-0.9-0.4
				c-0.2-0.1-0.3-0.3-0.3-0.5v-1c0-0.8-0.6-1.4-1.4-1.4h-1c-0.2,0-0.4-0.1-0.5-0.3l-0.4-0.9c-0.3-0.8-1.2-1.1-1.9-0.8L18.3,3
				c-0.2,0.1-0.4,0-0.5-0.1L17,2.2c-0.6-0.6-1.5-0.6-2.1,0l-0.7,0.7C14.1,3,13.9,3.1,13.7,3l-0.9-0.4c-0.8-0.3-1.6,0-1.9,0.8
				l-0.4,0.9c-0.1,0.2-0.3,0.3-0.5,0.3h-1c-0.8,0-1.4,0.6-1.4,1.4v1c0,0.2-0.1,0.4-0.3,0.5L6.4,7.9C5.7,8.2,5.3,9.1,5.6,9.8L6,10.8
				C6,11,6,11.2,5.9,11.3L5.2,12c-0.6,0.6-0.6,1.5,0,2.1l0.7,0.7C6,14.9,6,15.1,5.9,15.3l-0.4,0.9c-0.3,0.8,0,1.6,0.8,1.9l0.9,0.4
				c0.2,0.1,0.3,0.3,0.3,0.5v1c0,0.8,0.6,1.4,1.4,1.4h0.6v8.3c0,0.2,0.1,0.3,0.2,0.4c0.1,0.1,0.3,0.1,0.4,0.1l5.7-1.9l5.7,1.9
				c0.1,0,0.1,0,0.2,0c0.1,0,0.2,0,0.3-0.1c0.1-0.1,0.2-0.2,0.2-0.4v-8.3h0.6c0.8,0,1.4-0.6,1.4-1.4v-1c0-0.2,0.1-0.4,0.3-0.5
				l0.9-0.4c0.8-0.3,1.1-1.2,0.8-1.9L26,15.3c-0.1-0.2,0-0.4,0.1-0.5l0.7-0.7c0,0,0,0,0,0C27.4,13.5,27.4,12.6,26.8,12z M21.4,29
				l-5.2-1.7c-0.1,0-0.2,0-0.3,0L10.6,29v-7l0.3,0.6c0.3,0.8,1.2,1.1,1.9,0.8l0.9-0.4c0.2-0.1,0.4,0,0.5,0.1l0.7,0.7
				c0.3,0.3,0.7,0.4,1,0.4c0.4,0,0.8-0.1,1-0.4l0.7-0.7c0.1-0.1,0.4-0.2,0.5-0.1l0.9,0.4c0.8,0.3,1.6,0,1.9-0.8l0.3-0.7V29z
				 M26.1,13.4l-0.7,0.7c-0.4,0.4-0.6,1.1-0.3,1.6l0.4,0.9c0.1,0.3,0,0.5-0.3,0.7l-0.9,0.4c-0.6,0.2-1,0.8-1,1.4v1
				c0,0.3-0.2,0.4-0.4,0.4h-1c-0.6,0-1.1,0.4-1.4,1l-0.4,0.9c-0.1,0.3-0.4,0.4-0.7,0.3l-0.9-0.4c-0.6-0.2-1.2-0.1-1.6,0.3l-0.7,0.7
				c-0.2,0.2-0.5,0.2-0.7,0l-0.7-0.7c-0.3-0.3-0.7-0.4-1-0.4c-0.2,0-0.4,0-0.6,0.1l-0.9,0.4c-0.3,0.1-0.5,0-0.7-0.3l-0.4-0.9
				c-0.2-0.6-0.8-1-1.4-1h-1c-0.3,0-0.4-0.2-0.4-0.4v-1c0-0.6-0.4-1.1-1-1.4l-0.9-0.4c-0.3-0.1-0.4-0.4-0.3-0.7l0.4-0.9
				c0.2-0.6,0.1-1.2-0.3-1.6l-0.7-0.7c-0.2-0.2-0.2-0.5,0-0.7L6.6,12c0.4-0.4,0.6-1.1,0.3-1.6L6.5,9.5c-0.1-0.3,0-0.5,0.3-0.7
				l0.9-0.4c0.6-0.2,1-0.8,1-1.4v-1c0-0.3,0.2-0.4,0.4-0.4h1c0.6,0,1.1-0.4,1.4-1l0.4-0.9c0.1-0.3,0.4-0.4,0.7-0.3l0.9,0.4
				C13.9,4.1,14.5,4,15,3.6l0.7-0.7c0.2-0.2,0.5-0.2,0.7,0l0.7,0.7c0.4,0.4,1.1,0.6,1.6,0.3l0.9-0.4c0.3-0.1,0.5,0,0.7,0.3l0.4,0.9
				c0.2,0.6,0.8,1,1.4,1h1c0.3,0,0.4,0.2,0.4,0.4v1c0,0.6,0.4,1.1,1,1.4l0.9,0.4c0.1,0.1,0.2,0.1,0.3,0.3c0.1,0.1,0.1,0.3,0,0.4
				l-0.4,0.9C24.9,11,25,11.6,25.5,12l0.7,0.7C26.3,12.9,26.3,13.2,26.1,13.4z"/>
		</g>
	</g>
	<g>
		<g>
			<path d="M16,6.6c-3.5,0-6.4,2.9-6.4,6.4s2.9,6.4,6.4,6.4s6.4-2.9,6.4-6.4S19.5,6.6,16,6.6z M16,18.5c-3,0-5.4-2.4-5.4-5.4
				S13,7.6,16,7.6s5.4,2.4,5.4,5.4S19,18.5,16,18.5z"/>
		</g>
	</g>
	<g>
		<g>
			<path d="M16,15.5c-1.4,0-2.5-1.1-2.5-2.5c0-0.3-0.2-0.5-0.5-0.5c-0.3,0-0.5,0.2-0.5,0.5c0,1.9,1.5,3.4,3.4,3.4
				c0.3,0,0.5-0.2,0.5-0.5C16.5,15.7,16.3,15.5,16,15.5z"/>
		</g>
	</g>
	<g>
		<g>
			<path d="M16,9.6c-0.3,0-0.5,0.2-0.5,0.5c0,0.3,0.2,0.5,0.5,0.5c1.4,0,2.5,1.1,2.5,2.5c0,0.3,0.2,0.5,0.5,0.5s0.5-0.2,0.5-0.5
				C19.4,11.2,17.9,9.6,16,9.6z"/>
		</g>
	</g>
	<g>
		<g>
			<path d="M12.1,25.3c-0.3,0-0.5,0.2-0.5,0.5v2c0,0.3,0.2,0.5,0.5,0.5c0.3,0,0.5-0.2,0.5-0.5v-2C12.6,25.5,12.3,25.3,12.1,25.3z"/>
		</g>
	</g>
</g>
</svg>
