<?xml version="1.0" encoding="utf-8"?>
<!-- Generator: Adobe Illustrator 22.0.1, SVG Export Plug-In . SVG Version: 6.00 Build 0)  -->
<svg version="1.1" id="Capa_1" xmlns="http://www.w3.org/2000/svg" xmlns:xlink="http://www.w3.org/1999/xlink" x="0px" y="0px"
	 viewBox="0 0 32 32" style="enable-background:new 0 0 32 32;" xml:space="preserve" fill="#118e9b">
<g>
	<g>
		<path d="M25.6,4.7h-3.5V3.8c0-0.5-0.3-0.9-0.9-0.9c-0.5,0-0.9,0.3-0.9,0.9v0.9h-8.7V3.8c0-0.5-0.3-0.9-0.9-0.9
			c-0.5,0-0.9,0.3-0.9,0.9v0.9H6.4C4,4.7,2.1,6.6,2.1,9v15.7c0,2.4,1.9,4.4,4.4,4.4h19.2c2.4,0,4.4-1.9,4.4-4.4V9
			C29.9,6.6,28,4.7,25.6,4.7L25.6,4.7z M3.8,9c0-1.4,1.2-2.6,2.6-2.6h3.5v0.9c0,0.5,0.3,0.9,0.9,0.9c0.5,0,0.9-0.3,0.9-0.9V6.4h8.7
			v0.9c0,0.5,0.3,0.9,0.9,0.9c0.5,0,0.9-0.3,0.9-0.9V6.4h3.5c1.4,0,2.6,1.2,2.6,2.6v2.6H3.8L3.8,9L3.8,9z M28.2,24.7
			c0,1.4-1.2,2.6-2.6,2.6H6.4c-1.4,0-2.6-1.2-2.6-2.6V13.4h24.4V24.7z"/>
		<path d="M8.2,24.7c0.5,0,0.9-0.2,1.2-0.5c0.3-0.3,0.5-0.9,0.5-1.2s-0.2-0.9-0.5-1.2c-0.7-0.7-1.7-0.7-2.4,0
			c-0.3,0.3-0.5,0.7-0.5,1.2c0,0.3,0.2,0.9,0.5,1.2C7.3,24.5,7.6,24.7,8.2,24.7z"/>
		<path d="M8.2,19.5c0.5,0,0.9-0.2,1.2-0.5c0.3-0.3,0.5-0.9,0.5-1.2s-0.2-0.9-0.5-1.2c-0.7-0.7-1.7-0.7-2.4,0
			c-0.3,0.3-0.5,0.7-0.5,1.2s0.2,0.9,0.5,1.2C7.3,19.3,7.6,19.5,8.2,19.5z"/>
		<path d="M13.4,24.7c0.5,0,0.9-0.2,1.2-0.5c0.3-0.3,0.5-0.9,0.5-1.2s-0.2-0.9-0.5-1.2c-0.7-0.7-1.7-0.7-2.4,0
			c-0.3,0.3-0.5,0.9-0.5,1.2s0.2,0.9,0.5,1.2C12.5,24.5,12.9,24.7,13.4,24.7z"/>
		<path d="M13.4,19.5c0.5,0,0.9-0.2,1.2-0.5s0.5-0.9,0.5-1.2s-0.2-0.9-0.5-1.2c-0.7-0.7-1.7-0.7-2.4,0c-0.3,0.3-0.5,0.9-0.5,1.2
			s0.2,0.9,0.5,1.2S12.9,19.5,13.4,19.5z"/>
		<path d="M18.6,24.7c0.5,0,0.9-0.2,1.2-0.5c0.3-0.3,0.5-0.7,0.5-1.2s-0.2-0.9-0.5-1.2c-0.7-0.7-1.7-0.7-2.4,0
			c-0.3,0.3-0.5,0.9-0.5,1.2s0.2,0.9,0.5,1.2C17.7,24.5,18.1,24.7,18.6,24.7z"/>
		<path d="M18.6,19.5c0.5,0,0.9-0.2,1.2-0.5s0.5-0.7,0.5-1.2c0-0.3-0.2-0.9-0.5-1.2c-0.7-0.7-1.7-0.7-2.4,0
			c-0.3,0.3-0.5,0.9-0.5,1.2s0.2,0.9,0.5,1.2S18.1,19.5,18.6,19.5z"/>
		<path d="M23.8,24.7c0.5,0,0.9-0.2,1.2-0.5c0.3-0.3,0.5-0.9,0.5-1.2s-0.2-0.9-0.5-1.2c-0.7-0.7-1.7-0.7-2.4,0
			c-0.3,0.3-0.5,0.7-0.5,1.2c0,0.3,0.2,0.9,0.5,1.2C23,24.5,23.3,24.7,23.8,24.7z"/>
		<path d="M23.8,19.5c0.5,0,0.9-0.2,1.2-0.5s0.5-0.7,0.5-1.2c0-0.3-0.2-0.9-0.5-1.2c-0.7-0.7-1.7-0.7-2.4,0
			c-0.3,0.3-0.5,0.9-0.5,1.2s0.2,0.9,0.5,1.2S23.3,19.5,23.8,19.5z"/>
	</g>
</g>
</svg>
