<?xml version="1.0" encoding="utf-8"?>
<!-- Generator: Adobe Illustrator 22.0.1, SVG Export Plug-In . SVG Version: 6.00 Build 0)  -->
<svg version="1.1" id="Capa_1" xmlns="http://www.w3.org/2000/svg" xmlns:xlink="http://www.w3.org/1999/xlink" x="0px" y="0px"
	 viewBox="0 0 228.4 228.4" style="enable-background:new 0 0 228.4 228.4;" xml:space="preserve" fill="#118e9b">
<path d="M215.4,73.1h-79.8l-13-56.4H13c-7.2,0-13,5.8-13,13v112.6c0,7.2,5.8,13,13,13h79.8l13,56.4h109.7c7.2,0,13-5.8,13-13V86.1
	C228.4,78.9,222.6,73.1,215.4,73.1z M15,140.3V31.7h95.7l25,108.6H15z M108.2,155.3h28.2l-21.1,30.6L108.2,155.3z M213.4,196.7H126
	l16.2-23.5l2.5,4c9.8-6,17.5-13,23.6-20.2l19,19.4l7.9-7.7l-20.1-20.5c8.5-12.4,12.4-24.2,14.1-30.4H202v-11h-27.3v-6.6h-11v6.6
	h-20.3l-4.3-18.7h74.3L213.4,196.7L213.4,196.7z M154.6,155.3L154.6,155.3l-3.7-16.1l9.7,9.9c-2,2.4-4.2,4.8-6.6,7.1L154.6,155.3
	L154.6,155.3z M154.4,127.1l-5.2,5.1l-3.3-14.4h31.7c-1.7,5.4-4.9,13.5-10.5,22.3L154.4,127.1z M67.8,93.5"/>
</svg>
