<?xml version="1.0" encoding="utf-8"?>
<!-- Generator: Adobe Illustrator 22.0.1, SVG Export Plug-In . SVG Version: 6.00 Build 0)  -->
<svg version="1.1" id="Capa_1" xmlns="http://www.w3.org/2000/svg" xmlns:xlink="http://www.w3.org/1999/xlink" x="0px" y="0px"
	 viewBox="0 0 32 32" style="enable-background:new 0 0 32 32;" xml:space="preserve" fill="#118e9b">
<g>
	<path d="M27.7,25C27.7,25,27.7,25,27.7,25C27.7,25,27.7,25,27.7,25C27.7,25,27.8,24.9,27.7,25C27.8,24.9,27.8,24.9,27.7,25
		c0.1-0.1,0.1-0.1,0.1-0.1c0,0,0,0,0,0c0,0,0,0,0,0c0,0,0,0,0,0c0,0,0,0,0,0c0,0,0,0,0,0c0,0,0,0,0,0c0,0,0,0,0,0V1.1
		c0-0.3-0.2-0.5-0.5-0.5H4.7c-0.3,0-0.5,0.2-0.5,0.5v29.9c0,0.3,0.2,0.5,0.5,0.5h16.4c0,0,0,0,0,0c0,0,0,0,0,0c0,0,0,0,0,0
		c0,0,0,0,0,0c0,0,0,0,0,0c0,0,0,0,0,0c0,0,0,0,0,0c0,0,0,0,0,0c0,0,0,0,0,0c0,0,0,0,0,0c0,0,0,0,0,0c0,0,0,0,0,0c0,0,0,0,0,0
		c0,0,0,0,0,0c0,0,0,0,0,0L27.7,25C27.7,25,27.7,25,27.7,25C27.7,25,27.7,25,27.7,25C27.7,25,27.7,25,27.7,25z M5.2,1.6h21.7v22.6
		h-5.7c-0.3,0-0.5,0.2-0.5,0.5v5.7H5.2V1.6z M26.1,25.2l-4.6,4.6v-4.6H26.1z"/>
	<path d="M13.9,6.8h9.4c0.3,0,0.5-0.2,0.5-0.5c0-0.3-0.2-0.5-0.5-0.5h-9.4c-0.3,0-0.5,0.2-0.5,0.5C13.5,6.6,13.7,6.8,13.9,6.8z"/>
	<path d="M9.6,8c0.1,0.1,0.2,0.1,0.3,0.1c0.1,0,0.3,0,0.3-0.1l2.6-2.6c0.2-0.2,0.2-0.5,0-0.7c-0.2-0.2-0.5-0.2-0.7,0L9.9,6.9
		L9.3,6.3c-0.2-0.2-0.5-0.2-0.7,0C8.4,6.5,8.4,6.8,8.6,7L9.6,8z"/>
	<path d="M12.7,10.9c0,0.3,0.2,0.5,0.5,0.5h10.2c0.3,0,0.5-0.2,0.5-0.5c0-0.3-0.2-0.5-0.5-0.5H13.2C12.9,10.4,12.7,10.6,12.7,10.9z"
		/>
	<path d="M11.2,9.1H8.6c-0.3,0-0.5,0.2-0.5,0.5v2.6c0,0.3,0.2,0.5,0.5,0.5h2.6c0.3,0,0.5-0.2,0.5-0.5V9.6
		C11.7,9.3,11.5,9.1,11.2,9.1z M10.7,11.7H9.1v-1.6h1.6V11.7z"/>
	<path d="M23.4,15H13.2c-0.3,0-0.5,0.2-0.5,0.5c0,0.3,0.2,0.5,0.5,0.5h10.2c0.3,0,0.5-0.2,0.5-0.5C23.9,15.2,23.7,15,23.4,15z"/>
	<path d="M11.2,13.7H8.6c-0.3,0-0.5,0.2-0.5,0.5v2.6c0,0.3,0.2,0.5,0.5,0.5h2.6c0.3,0,0.5-0.2,0.5-0.5v-2.6
		C11.7,13.9,11.5,13.7,11.2,13.7z M10.7,16.3H9.1v-1.6h1.6V16.3z"/>
	<path d="M23.4,19.6H13.2c-0.3,0-0.5,0.2-0.5,0.5s0.2,0.5,0.5,0.5h10.2c0.3,0,0.5-0.2,0.5-0.5S23.7,19.6,23.4,19.6z"/>
	<path d="M11.2,18.3H8.6c-0.3,0-0.5,0.2-0.5,0.5v2.6c0,0.3,0.2,0.5,0.5,0.5h2.6c0.3,0,0.5-0.2,0.5-0.5v-2.6
		C11.7,18.5,11.5,18.3,11.2,18.3z M10.7,20.9H9.1v-1.6h1.6V20.9z"/>
	<path d="M19.1,24.2h-5.9c-0.3,0-0.5,0.2-0.5,0.5s0.2,0.5,0.5,0.5h5.9c0.3,0,0.5-0.2,0.5-0.5S19.4,24.2,19.1,24.2z"/>
	<path d="M11.2,22.9H8.6c-0.3,0-0.5,0.2-0.5,0.5V26c0,0.3,0.2,0.5,0.5,0.5h2.6c0.3,0,0.5-0.2,0.5-0.5v-2.6
		C11.7,23.1,11.5,22.9,11.2,22.9z M10.7,25.5H9.1v-1.6h1.6V25.5z"/>
</g>
</svg>
