<?xml version="1.0" encoding="utf-8"?>
<!-- Generator: Adobe Illustrator 22.0.1, SVG Export Plug-In . SVG Version: 6.00 Build 0)  -->
<svg version="1.1" id="Capa_1" xmlns="http://www.w3.org/2000/svg" xmlns:xlink="http://www.w3.org/1999/xlink" x="0px" y="0px"
	 viewBox="0 0 32 32" style="enable-background:new 0 0 32 32;" xml:space="preserve" fill="#118e9b">
<g>
	<g id="linkedin">
		<g>
			<path d="M8.6,10.3h-5c-0.3,0-0.6,0.3-0.6,0.6v17.3c0,0.3,0.3,0.6,0.6,0.6h5c0.3,0,0.6-0.3,0.6-0.6V10.9C9.2,10.6,9,10.3,8.6,10.3
				z M8,27.6H4.3V11.5H8V27.6z M22.4,10.1c-2.4,0-4,1-4.9,1.9l-0.1-1.2c0-0.3-0.3-0.6-0.6-0.6h0l-4.5,0.1c-0.2,0-0.3,0.1-0.4,0.2
				c-0.1,0.1-0.2,0.3-0.2,0.4c0.1,1.3,0.1,2.7,0.1,4.5l0,12.8c0,0.3,0.3,0.6,0.6,0.6h5c0.3,0,0.6-0.3,0.6-0.6v-10
				c0-0.5,0-0.9,0.1-1.1c0.3-0.8,1.3-1.6,2.5-1.6c1.5,0,2.4,1.2,2.4,3.1v9.6c0,0.3,0.3,0.6,0.6,0.6h4.9c0.3,0,0.6-0.3,0.6-0.6V18.1
				C29.1,13.1,26.6,10.1,22.4,10.1z M27.8,27.7h-3.6v-9c0-2.6-1.4-4.3-3.6-4.3c-1.8,0-3.2,1.2-3.6,2.4c-0.1,0.4-0.2,0.9-0.2,1.6v9.4
				H13l0-12.2c0-1.5,0-2.7,0-3.9l3.3-0.1l0.2,2c0,0.3,0.3,0.6,0.6,0.6h0.1c0.2,0,0.4-0.1,0.5-0.3c0.4-0.6,1.8-2.5,4.7-2.5
				c3.4,0,5.4,2.5,5.4,6.7L27.8,27.7L27.8,27.7L27.8,27.7z M6.4,3.1c-2,0-3.4,1.4-3.4,3.3c0,1.9,1.4,3.3,3.4,3.3
				c2,0,3.5-1.4,3.5-3.3C9.7,4.4,8.3,3.1,6.4,3.1z M6.3,8.4c-1.3,0-2.1-0.8-2.1-2c0-1.2,0.9-2,2.2-2c1.3,0,2.1,0.8,2.2,2
				C8.5,7.6,7.6,8.4,6.3,8.4z"/>
		</g>
	</g>
</g>
</svg>
