<?xml version="1.0" encoding="utf-8"?>
<!-- Generator: Adobe Illustrator 22.0.1, SVG Export Plug-In . SVG Version: 6.00 Build 0)  -->
<svg version="1.1" id="Capa_1" xmlns="http://www.w3.org/2000/svg" xmlns:xlink="http://www.w3.org/1999/xlink" x="0px" y="0px"
	 viewBox="0 0 32 32" style="enable-background:new 0 0 32 32;" xml:space="preserve" fill="#118e9b">
<g>
	<g>
		<g>
			<path d="M29.7,24.4l-5.8-5.8c-0.7-0.7-1.8-0.7-2.5,0l-1.5,1.5c-0.5,0.5-0.6,1.2-0.5,1.8l-0.6,0.6c0,0,0,0,0,0
				c-0.4,0.4-2.9-0.2-6-3.3c-3.1-3.1-3.7-5.6-3.3-6c0,0,0,0,0,0l0.6-0.6c0.2,0,0.3,0.1,0.5,0.1c0.5,0,0.9-0.2,1.3-0.5l1.5-1.5
				c0.7-0.7,0.7-1.8,0-2.5L7.6,2.3C7.3,1.9,6.8,1.7,6.3,1.7c-0.5,0-0.9,0.2-1.3,0.5L3.6,3.8C3.1,4.2,2.9,4.9,3.1,5.5
				c0,0-0.5,0.5-0.5,0.5C1,7.8,0.7,10.7,1.8,14c1,3.3,3.3,6.8,6.4,9.9c3.1,3.1,6.6,5.3,9.9,6.4c1.3,0.4,2.6,0.6,3.7,0.6
				c1.8,0,3.4-0.6,4.5-1.7l0.3-0.3c0.2,0,0.3,0.1,0.5,0.1c0.5,0,0.9-0.2,1.3-0.5l1.5-1.5C30.4,26.2,30.4,25.1,29.7,24.4z M6.3,3.5
				l5.8,5.8l-1.5,1.5c0,0,0,0,0,0l0,0L7.7,7.9L4.8,5L6.3,3.5z M24.9,27.9C24.9,27.9,24.9,27.9,24.9,27.9c-1.3,1.3-3.6,1.5-6.4,0.6
				c-3-1-6.3-3.1-9.1-5.9c-2.9-2.9-5-6.1-5.9-9.1c-0.9-2.8-0.7-5.1,0.6-6.4l0,0l0.2-0.2l4.5,4.5l-0.4,0.4c0,0,0,0,0,0
				c-1.7,1.7,0.3,5.6,3.3,8.5c2.2,2.2,4.9,3.9,6.9,3.9c0.7,0,1.2-0.2,1.7-0.6c0,0,0,0,0,0l0.4-0.4l4.5,4.5L24.9,27.9z M27,27.2
				l-5.8-5.8l1.5-1.5l5.8,5.8C28.5,25.7,27,27.2,27,27.2z"/>
		</g>
	</g>
	<g>
		<g>
			<path d="M23.7,8.3c-1.7-1.7-4-2.6-6.4-2.6c-0.5,0-0.9,0.4-0.9,0.9s0.4,0.9,0.9,0.9c1.9,0,3.7,0.7,5.1,2.1
				c1.4,1.4,2.1,3.2,2.1,5.1c0,0.5,0.4,0.9,0.9,0.9c0.5,0,0.9-0.4,0.9-0.9C26.3,12.2,25.4,10,23.7,8.3z"/>
		</g>
	</g>
	<g>
		<g>
			<path d="M26.9,5.1c-2.6-2.6-5.9-4-9.6-4c-0.5,0-0.9,0.4-0.9,0.9c0,0.5,0.4,0.9,0.9,0.9c3.1,0,6.1,1.2,8.3,3.4
				c2.2,2.2,3.4,5.2,3.4,8.3c0,0.5,0.4,0.9,0.9,0.9c0.5,0,0.9-0.4,0.9-0.9C30.9,11,29.5,7.6,26.9,5.1z"/>
		</g>
	</g>
	<g>
		<g>
			<path d="M20.5,11.5c-0.9-0.9-1.9-1.3-3.2-1.3c0,0,0,0,0,0c-0.5,0-0.9,0.4-0.9,0.9c0,0.5,0.4,0.9,0.9,0.9c0,0,0,0,0,0
				c0.7,0,1.4,0.3,1.9,0.8c0.5,0.5,0.8,1.2,0.8,1.9c0,0.5,0.4,0.9,0.9,0.9h0c0.5,0,0.9-0.4,0.9-0.9C21.8,13.4,21.4,12.3,20.5,11.5z"
				/>
		</g>
	</g>
</g>
</svg>
