<?xml version="1.0" encoding="utf-8"?>
<!-- Generator: Adobe Illustrator 22.0.1, SVG Export Plug-In . SVG Version: 6.00 Build 0)  -->
<svg version="1.1" id="Capa_1" xmlns="http://www.w3.org/2000/svg" xmlns:xlink="http://www.w3.org/1999/xlink" x="0px" y="0px"
	 viewBox="0 0 32 32" style="enable-background:new 0 0 32 32;" xml:space="preserve" fill="#118e9b">
<style type="text/css">
	.st0{fill:#118e9b;}
</style>
<g>
	<g>
		<path class="st0" d="M32,28c0,1.1-0.9,2-2,2c-1.1,0-2-0.9-2-2s0.9-4,2-4C31.1,24,32,26.9,32,28z M29,13v9c0,0.6,0.4,1,1,1
			c0.6,0,1-0.4,1-1v-9c0-0.6-0.4-1-1-1C29.4,12,29,12.4,29,13z M29.7,10.9L27,11.5V20c0,2.7-3,5-11,5S5,22.7,5,20v-8.5l-2.7-0.6
			C1,10.6,0,9.4,0,8s1-2.6,2.3-2.9l13-3C15.6,2,15.8,2,16,2c0.2,0,0.4,0,0.7,0.1l13,3C31,5.4,32,6.6,32,8S31,10.6,29.7,10.9z M25,12
			l-8.3,1.9C16.4,14,16.2,14,16,14s-0.4,0-0.7-0.1L7,12v8c0,1.1,3,3,9,3s9-1.9,9-3V12z M29.2,9C29.7,8.9,30,8.5,30,8s-0.3-0.9-0.8-1
			l-13-3L16,4l-0.2,0l-13,3C2.3,7.1,2,7.5,2,8c0,0.5,0.3,0.9,0.8,1l13,3l0.2,0l0.2,0L29.2,9z"/>
	</g>
</g>
</svg>
