<?xml version="1.0" standalone="no"?>
<!DOCTYPE svg PUBLIC "-//W3C//DTD SVG 1.1//EN" "http://www.w3.org/Graphics/SVG/1.1/DTD/svg11.dtd" >
<svg xmlns="http://www.w3.org/2000/svg" xmlns:xlink="http://www.w3.org/1999/xlink" version="1.1">
<metadata></metadata>
<defs>
<font id="sf_ui_textbold" horiz-adv-x="1415" >
<font-face units-per-em="2048" ascent="1638" descent="-410" />
<missing-glyph horiz-adv-x="528" />
<glyph horiz-adv-x="0" />
<glyph horiz-adv-x="682" />
<glyph unicode=" "  horiz-adv-x="528" />
<glyph unicode="&#x09;" horiz-adv-x="528" />
<glyph unicode="&#xa0;" horiz-adv-x="528" />
<glyph unicode="!" horiz-adv-x="730" d="M182 140q0 79 49 125t133 46q85 0 133 -46q49 -45 49 -125q0 -79 -49 -124q-48 -46 -133 -46q-84 0 -133 46q-49 45 -49 124zM204 1443h320l-27 -968h-267z" />
<glyph unicode="&#x22;" horiz-adv-x="1016" d="M151 831v612h250v-612h-250zM613 831v612h250v-612h-250z" />
<glyph unicode="#" horiz-adv-x="1360" d="M63 382l42 223h207l52 252h-205l42 221h206l74 366h221l-74 -366h234l74 366h222l-74 -366h209l-41 -221h-211l-53 -252h209l-41 -223h-210l-77 -382h-222l77 382h-234l-77 -382h-221l77 382h-206zM515 585h261l61 291h-263z" />
<glyph unicode="$" d="M140 410h286q5 -74 64 -125q60 -51 153 -61v372l-105 25q-369 86 -369 403q0 184 125 297t349 131v136h140v-136q209 -20 334 -133q125 -114 128 -287h-279q-2 68 -53 119t-130 62v-356l107 -22q383 -82 383 -404q0 -191 -128 -305q-127 -114 -362 -134v-127h-140v125 q-235 13 -368 125q-134 112 -135 295zM459 1052q0 -130 184 -166v328q-81 -4 -132 -50q-52 -45 -52 -112zM783 223q97 6 152 52q54 46 54 122q0 136 -206 174v-348z" />
<glyph unicode="%" horiz-adv-x="1701" d="M64 1111q0 164 93 264q94 101 245 101q152 0 245 -100q93 -101 93 -265q0 -165 -93 -266t-245 -101q-151 0 -244 101q-94 101 -94 266zM223 0l545 756l434 687h281l-554 -762l-424 -681h-282zM287 1111q0 -81 31 -128t84 -47t84 47t31 128q0 82 -30 129q-31 46 -85 46 q-53 0 -84 -47t-31 -128zM960 333q0 164 93 265t244 101q152 0 245 -100q93 -101 93 -266q0 -164 -93 -265t-245 -101q-151 0 -244 101t-93 265zM1182 334q0 -81 31 -128t84 -47t84 47t31 128q0 82 -30 128q-31 46 -85 46q-53 0 -84 -46q-31 -47 -31 -128z" />
<glyph unicode="&#x26;" horiz-adv-x="1525" d="M106 377q0 237 269 385q3 1 31 17l33 18q-179 183 -179 331q0 146 117 242q116 95 294 95q177 0 290 -92q113 -93 113 -239q0 -219 -294 -378l277 -287q51 90 51 263v71h245v-90q0 -265 -123 -431l268 -282h-327l-111 117q-170 -145 -449 -145q-230 0 -368 110 q-137 110 -137 295zM379 402q0 -94 73 -153q72 -58 189 -58q173 0 266 98l-331 349q-16 -6 -42 -20q-155 -84 -155 -216zM511 1112q0 -88 134 -215q186 93 186 215q0 68 -44 111q-44 42 -115 42t-116 -43t-45 -110z" />
<glyph unicode="'" horiz-adv-x="553" d="M151 831v612h250v-612h-250z" />
<glyph unicode="(" horiz-adv-x="803" d="M158 600q0 485 280 843h269q-109 -126 -178 -362q-70 -237 -70 -480q0 -450 245 -878h-275q-271 340 -271 877z" />
<glyph unicode=")" horiz-adv-x="803" d="M94 1443h269q280 -358 280 -843q0 -535 -271 -877h-276q245 428 245 878q0 244 -69 480t-178 362z" />
<glyph unicode="*" horiz-adv-x="1027" d="M141 965l255 100l-255 106l94 169l217 -174l-33 277h188l-33 -277l217 174l94 -169l-255 -106l255 -100l-94 -167l-216 162l32 -266h-188l32 266l-216 -162z" />
<glyph unicode="+" d="M167 455v258h412v408h255v-408h413v-258h-413v-409h-255v409h-412z" />
<glyph unicode="," horiz-adv-x="722" d="M137 -388l79 635h288l-133 -635h-234z" />
<glyph unicode="-" horiz-adv-x="992" d="M167 446v273h657v-273h-657z" />
<glyph unicode="." horiz-adv-x="712" d="M178 147q0 76 48 124q49 49 129 49t129 -49q48 -47 48 -124t-48 -125q-49 -49 -129 -49q-79 0 -129 49q-48 49 -48 125z" />
<glyph unicode="/" horiz-adv-x="772" d="M41 -288l414 1731h274l-420 -1731h-268z" />
<glyph unicode="0" horiz-adv-x="1402" d="M127 724q0 357 153 557q152 199 420 199q267 0 419 -199q154 -201 154 -558t-153 -559q-152 -201 -420 -201t-420 201q-153 202 -153 560zM433 724q0 -249 72 -384q69 -131 195 -131t196 131q71 134 71 384q0 248 -72 381q-69 128 -195 128q-125 0 -195 -129 q-72 -133 -72 -380z" />
<glyph unicode="1" horiz-adv-x="1051" d="M122 905v281l373 257h301v-1443h-302v1149h-18z" />
<glyph unicode="2" horiz-adv-x="1318" d="M128 1006v5q0 209 146 339t380 130q226 0 368 -117q143 -118 143 -304q0 -118 -74 -234q-74 -117 -261 -293l-276 -263v-18h632v-251h-1041v211l471 461q152 148 203 223q51 73 51 144q0 87 -63 143q-64 55 -163 55q-105 0 -170 -63q-66 -62 -66 -162v-6h-280z" />
<glyph unicode="3" horiz-adv-x="1370" d="M125 413h289q7 -92 79 -145q72 -54 188 -54q113 0 185 58q71 58 71 150q0 95 -70 149q-70 55 -191 55h-179v225h176q103 0 166 55q64 55 64 143q0 87 -63 139q-62 51 -168 51q-105 0 -170 -55t-71 -149h-279q8 205 150 325t378 120q222 0 366 -109q143 -110 143 -280 q0 -125 -73 -215q-72 -90 -193 -115v-18q149 -17 235 -109q87 -93 87 -235q0 -190 -160 -313t-407 -123q-241 0 -392 123t-161 327z" />
<glyph unicode="4" horiz-adv-x="1410" d="M113 252v267q169 319 571 924h423v-940h189v-251h-189v-252h-288v252h-706zM384 494h442v714h-16q-231 -345 -426 -698v-16z" />
<glyph unicode="5" horiz-adv-x="1359" d="M153 410h279q13 -90 85 -145t175 -55q117 0 189 72q73 72 73 189q0 119 -73 192t-188 73q-167 0 -247 -130h-270l72 837h907v-251h-673l-32 -371h18q98 141 306 141q205 0 337 -136q131 -136 131 -348q0 -230 -152 -372q-152 -143 -400 -143q-233 0 -383 127 q-147 124 -154 320z" />
<glyph unicode="6" horiz-adv-x="1401" d="M124 711q0 359 160 564t442 205q206 0 351 -111q146 -111 177 -292h-299q-21 71 -84 113q-62 42 -147 42q-148 0 -232 -133q-85 -132 -80 -357h18q103 213 368 213q205 0 340 -136t135 -343q0 -225 -155 -369t-397 -144q-323 0 -476 261q-121 186 -121 487zM457 470 q0 -110 75 -185q75 -74 186 -74t187 74q75 73 75 182q0 110 -74 183q-74 72 -187 72t-188 -72q-74 -72 -74 -180z" />
<glyph unicode="7" horiz-adv-x="1239" d="M108 1195v249h1017v-252l-603 -1192h-316l617 1176v19h-715z" />
<glyph unicode="8" horiz-adv-x="1421" d="M127 385q0 136 87 236q86 101 231 133v18q-118 27 -189 113t-71 201q0 173 147 283q148 111 378 111q229 0 377 -111q147 -110 147 -283q0 -115 -71 -201q-70 -85 -189 -113v-18q144 -27 232 -127q87 -101 87 -239q0 -190 -162 -307q-162 -118 -422 -118t-421 117 t-161 305zM441 413q0 -98 75 -160q74 -62 193 -62t194 62t75 160q0 99 -75 161t-194 62t-193 -62q-75 -62 -75 -161zM483 1057q0 -87 63 -142q63 -56 163 -56t164 56q63 55 63 142q0 88 -63 143q-64 56 -164 56t-163 -56q-63 -55 -63 -143z" />
<glyph unicode="9" horiz-adv-x="1401" d="M126 967q0 225 155 369t397 144q322 0 476 -260q121 -188 121 -487q0 -360 -160 -565t-442 -205q-205 0 -351 112q-146 111 -177 291h299q21 -71 84 -113q62 -42 147 -42q148 0 233 133q84 133 79 358h-18q-103 -213 -368 -213q-206 0 -340 136q-135 135 -135 342z M419 977q0 -111 74 -183t187 -72t188 72q74 71 74 180q0 110 -75 184q-75 75 -186 75t-186 -74q-76 -74 -76 -182z" />
<glyph unicode=":" horiz-adv-x="712" d="M178 147q0 76 48 124q49 49 129 49t129 -49q48 -47 48 -124t-48 -125q-49 -49 -129 -49q-79 0 -129 49q-48 49 -48 125zM178 885q0 76 48 124q49 49 129 49t129 -49q48 -47 48 -124t-48 -125q-49 -49 -129 -49q-79 0 -129 49q-48 49 -48 125z" />
<glyph unicode=";" horiz-adv-x="712" d="M137 -388l79 635h288l-133 -635h-234zM178 885q0 76 48 124q49 49 129 49t129 -49q48 -47 48 -124t-48 -125q-49 -49 -129 -49q-79 0 -129 49q-48 49 -48 125z" />
<glyph unicode="&#x3c;" d="M230 474v235l953 496v-301l-657 -303v-19l657 -303v-301z" />
<glyph unicode="=" d="M170 216v259h1073v-259h-1073zM170 695v259h1073v-259h-1073z" />
<glyph unicode="&#x3e;" d="M230 -22v301l657 303v19l-657 303v301l953 -496v-235z" />
<glyph unicode="?" horiz-adv-x="1141" d="M77 1035q4 191 130 304q130 117 356 117q214 0 345 -108q130 -108 130 -282q0 -212 -214 -338q-100 -58 -135 -104t-35 -118v-53h-265l-2 55q-10 118 33 195q42 74 147 136q98 58 132 103q36 46 36 115q0 70 -52 114q-53 45 -138 45q-86 0 -139 -49t-58 -132h-271z M350 140q0 79 49 125t133 46t133 -46q48 -46 48 -125t-48 -124q-49 -46 -133 -46t-133 46q-49 45 -49 124z" />
<glyph unicode="@" horiz-adv-x="1899" d="M126 616q0 370 235 602t610 232q359 0 583 -206t224 -537q0 -239 -106 -378t-287 -139q-94 0 -158 42q-63 42 -80 114h-18q-64 -153 -240 -153q-156 0 -251 116t-95 306q0 182 93 295t243 113q171 0 234 -141h18v119h202v-530q0 -112 96 -112q76 0 121 89q45 90 45 242 q0 271 -172 435q-173 163 -458 163q-290 0 -473 -189t-183 -488q0 -304 188 -483q187 -179 506 -179q180 0 272 33v-163q-122 -36 -287 -36q-390 0 -626 228t-236 605zM770 609q0 -107 45 -167q44 -61 123 -61q80 0 127 61t47 167t-47 167q-46 61 -126 61q-79 0 -124 -60 q-45 -61 -45 -168z" />
<glyph unicode="A" horiz-adv-x="1500" d="M71 0l501 1443h355l501 -1443h-327l-109 344h-507l-111 -344h-303zM550 577h378l-179 566h-18z" />
<glyph unicode="B" horiz-adv-x="1420" d="M174 0v1443h631q209 0 329 -96q118 -96 118 -264q0 -115 -75 -203t-186 -105v-18q143 -11 237 -107q93 -98 93 -237q0 -190 -134 -301q-134 -112 -365 -112h-648zM476 231h269q268 0 268 208q0 202 -275 202h-262v-410zM476 845h227q122 0 187 48t65 135t-59 135 q-60 49 -168 49h-252v-367z" />
<glyph unicode="C" horiz-adv-x="1518" d="M110 722q0 352 181 555q182 203 496 203q256 0 433 -153q176 -152 193 -388h-294q-22 125 -112 200q-91 75 -220 75q-170 0 -269 -132t-99 -360t99 -360q99 -133 270 -133q130 0 220 71t112 190h294q-19 -234 -192 -380q-174 -147 -435 -147q-314 0 -495 203 q-182 204 -182 556z" />
<glyph unicode="D" horiz-adv-x="1530" d="M174 0v1444h568q322 0 499 -186q178 -187 178 -526q0 -351 -176 -542q-177 -190 -501 -190h-568zM476 258h218q201 0 309 120q108 121 108 349q0 218 -110 339q-110 120 -307 120h-218v-928z" />
<glyph unicode="E" horiz-adv-x="1274" d="M174 0v1443h956v-258h-654v-337h617v-239h-617v-351h654v-258h-956z" />
<glyph unicode="F" horiz-adv-x="1224" d="M174 0v1443h945v-258h-643v-376h587v-247h-587v-562h-302z" />
<glyph unicode="G" horiz-adv-x="1557" d="M110 723q0 349 185 553t500 204q256 0 429 -136t205 -361h-300q-34 110 -121 170q-87 61 -213 61q-175 0 -275 -130q-101 -131 -101 -358q0 -231 105 -364q104 -133 283 -133q148 0 243 80q93 80 98 211l1 26h-313v227h606v-184q0 -289 -172 -458q-172 -168 -468 -168 q-322 0 -507 203t-185 557z" />
<glyph unicode="H" horiz-adv-x="1604" d="M174 0v1443h302v-582h650v582h302v-1443h-302v603h-650v-603h-302z" />
<glyph unicode="I" horiz-adv-x="652" d="M174 0v1443h302v-1443h-302z" />
<glyph unicode="J" horiz-adv-x="1231" d="M75 424h292q2 -87 54 -139q53 -52 140 -52q192 0 192 217v993h302v-995q0 -232 -130 -359q-129 -126 -360 -126q-223 0 -356 124q-134 126 -134 337z" />
<glyph unicode="K" horiz-adv-x="1453" d="M174 0v1443h302v-643h18l533 643h336l-526 -633l563 -810h-362l-419 604l-143 -169v-435h-302z" />
<glyph unicode="L" horiz-adv-x="1218" d="M174 0v1443h302v-1180h642v-263h-944z" />
<glyph unicode="M" horiz-adv-x="1878" d="M174 0v1443h356l399 -970h18l400 970h355v-1443h-280v965h-16l-367 -882h-201l-368 882h-16v-965h-280z" />
<glyph unicode="N" horiz-adv-x="1573" d="M174 0v1443h252l664 -899h18v899h289v-1443h-250l-666 903h-18v-903h-289z" />
<glyph unicode="O" horiz-adv-x="1610" d="M110 722q0 350 189 555q187 203 506 203q320 0 506 -204q187 -204 187 -554q0 -351 -186 -555q-187 -204 -507 -204q-321 0 -508 204t-187 555zM419 722q0 -226 104 -360q105 -134 282 -134q176 0 281 134q104 134 104 360t-104 360q-105 133 -281 133t-281 -133 q-105 -134 -105 -360z" />
<glyph unicode="P" horiz-adv-x="1380" d="M174 0v1443h602q223 0 361 -137q139 -138 139 -362q0 -222 -143 -359t-372 -137h-285v-448h-302zM476 693h219q131 0 202 64q72 65 72 186q0 122 -71 188q-71 64 -202 64h-220v-502z" />
<glyph unicode="Q" horiz-adv-x="1610" d="M110 722q0 350 189 555q187 203 506 203t506 -203q187 -205 187 -555q0 -397 -227 -591l179 -272h-292l-100 142q-116 -38 -253 -38q-321 0 -508 203q-187 204 -187 556zM419 722q0 -228 105 -361t282 -133q49 0 104 13l-164 240h274l67 -81q103 111 103 322 q0 226 -105 360q-105 133 -280 133q-176 0 -281 -133q-105 -134 -105 -360z" />
<glyph unicode="R" horiz-adv-x="1422" d="M174 0v1443h606q238 0 375 -124t137 -339q0 -140 -69 -249q-70 -112 -193 -161l304 -570h-342l-269 523h-247v-523h-302zM476 755h265q114 0 178 58q63 59 63 163q0 103 -66 163t-178 60h-262v-444z" />
<glyph unicode="S" horiz-adv-x="1383" d="M109 401h292q10 -88 93 -140q81 -52 209 -52q118 0 193 52q75 51 75 133q0 69 -58 112t-191 71l-188 40q-392 82 -392 412q0 204 151 328q151 123 401 123q238 0 392 -121q153 -121 160 -314h-284q-11 86 -83 138q-74 52 -183 52q-114 0 -182 -49q-69 -49 -69 -131 q0 -67 56 -108q55 -41 182 -68l174 -37q217 -46 316 -144t99 -266q0 -218 -157 -344q-156 -125 -428 -125q-258 0 -414 118t-164 320z" />
<glyph unicode="T" horiz-adv-x="1352" d="M91 1185v258h1168v-258h-433v-1185h-302v1185h-433z" />
<glyph unicode="U" horiz-adv-x="1564" d="M177 498v945h302v-914q0 -138 79 -217q80 -81 223 -81q144 0 224 81q79 79 79 217v914h302v-945q0 -241 -164 -387q-165 -148 -441 -148q-275 0 -440 148q-164 146 -164 387z" />
<glyph unicode="V" horiz-adv-x="1477" d="M71 1443h341l328 -1103h18l322 1103h325l-481 -1443h-365z" />
<glyph unicode="W" horiz-adv-x="2067" d="M87 1443h314l225 -1017h16l263 1017h255l268 -1017h16l223 1017h312l-383 -1443h-283l-273 955h-16l-270 -955h-285z" />
<glyph unicode="X" horiz-adv-x="1494" d="M87 0l461 727l-458 716h355l301 -505h18l304 505h338l-475 -721l468 -722h-344l-310 489h-18l-314 -489h-326z" />
<glyph unicode="Y" horiz-adv-x="1451" d="M71 1443h327l318 -604h18l317 604h327l-502 -912v-531h-302v531z" />
<glyph unicode="Z" horiz-adv-x="1384" d="M134 0v204l726 963v18h-709v258h1077v-203l-724 -964v-18h744v-258h-1114z" />
<glyph unicode="[" horiz-adv-x="848" d="M158 -240v1684h575v-223h-294v-1239h306v-222h-587z" />
<glyph unicode="\" horiz-adv-x="772" d="M41 1443h274l414 -1731h-268z" />
<glyph unicode="]" horiz-adv-x="848" d="M101 -18h307v1239h-294v223h574v-1684h-587v222z" />
<glyph unicode="^" horiz-adv-x="1066" d="M84 802l319 631h259l319 -631h-257l-183 405h-18l-182 -405h-257z" />
<glyph unicode="_" horiz-adv-x="945" d="M-2 -107h949v-227h-949v227z" />
<glyph unicode="`" horiz-adv-x="1098" d="M269 1634h309l247 -353h-269z" />
<glyph unicode="a" horiz-adv-x="1208" d="M86 315q0 149 111 235q110 85 316 97l267 16v90q0 144 -186 144q-162 0 -199 -102h-268q14 153 145 243q130 89 338 89q218 0 338 -98q119 -98 119 -276v-753h-282v144h-18q-91 -161 -320 -161q-160 0 -260 90q-101 92 -101 242zM371 334q0 -61 48 -97q47 -35 124 -35 q101 0 169 57t68 141v81l-223 -14q-186 -13 -186 -133z" />
<glyph unicode="b" horiz-adv-x="1334" d="M155 0v1524h291v-597h18q42 91 130 142q88 52 201 52q209 0 328 -151t119 -418q0 -265 -120 -417q-119 -152 -327 -152q-247 0 -340 190h-18v-173h-282zM443 551q1 -150 68 -237q68 -88 183 -88q116 0 183 87q66 87 66 239q0 151 -67 238t-182 87t-182 -88 q-68 -87 -69 -238z" />
<glyph unicode="c" horiz-adv-x="1203" d="M91 554q0 275 140 424t399 149q216 0 346 -112q127 -110 145 -301h-272q-15 81 -70 126q-58 48 -149 48q-118 0 -181 -86q-64 -86 -64 -248q0 -164 64 -252q63 -87 181 -87q185 0 219 167h272q-18 -187 -147 -296q-131 -110 -344 -110q-258 0 -398 150q-141 151 -141 428 z" />
<glyph unicode="d" horiz-adv-x="1334" d="M91 553q0 263 121 416q120 152 328 152q112 0 199 -51q87 -52 130 -143h17v597h291v-1524h-282v173h-18q-44 -89 -133 -140q-89 -50 -204 -50q-208 0 -329 153q-120 153 -120 417zM390 552q0 -153 66 -239q66 -87 183 -87t184 87q66 86 66 238q0 151 -67 238 q-67 88 -183 88t-183 -87q-66 -86 -66 -238z" />
<glyph unicode="e" horiz-adv-x="1231" d="M91 546q0 269 142 425t388 156q244 0 380 -147q137 -147 137 -410v-89h-757v-15q3 -123 71 -194q67 -72 181 -72q177 0 225 114h271q-33 -157 -167 -247q-135 -91 -337 -91q-252 0 -393 151q-141 150 -141 419zM382 667h470q-5 110 -66 173q-62 64 -164 64 q-101 0 -167 -65q-65 -65 -73 -172z" />
<glyph unicode="f" horiz-adv-x="836" d="M53 863v229h175v111q0 166 90 240q88 72 284 72q75 0 146 -11v-209q-44 8 -95 8q-140 0 -140 -121v-90h231v-229h-225v-863h-291v863h-175z" />
<glyph unicode="g" horiz-adv-x="1322" d="M88 561q0 257 121 408q122 152 331 152q112 0 201 -52q90 -52 134 -143h18v177h282v-1099q0 -194 -147 -308t-397 -114q-218 0 -356 89q-135 88 -149 234h288q11 -51 70 -81t153 -30q117 0 182 52q65 51 65 144v204h-18q-94 -178 -332 -178q-206 0 -326 148 q-120 147 -120 397zM387 562q0 -147 65 -231q65 -85 183 -85t185 85q67 84 67 230t-67 231q-68 85 -185 85t-183 -85q-65 -84 -65 -230z" />
<glyph unicode="h" horiz-adv-x="1332" d="M155 0v1524h286v-602h18q38 94 131 148t215 54q185 0 287 -108q103 -108 103 -306v-710h-291v641q0 232 -216 232q-109 0 -176 -66q-66 -66 -66 -174v-633h-291z" />
<glyph unicode="i" horiz-adv-x="587" d="M121 1404q0 66 47 106q47 41 125 41t125 -41q47 -40 47 -106q0 -65 -47 -106q-48 -41 -125 -41q-78 0 -125 41t-47 106zM147 0v1103h291v-1103h-291z" />
<glyph unicode="j" horiz-adv-x="587" d="M-29 -147q12 -2 37 -2q76 0 108 30q32 28 32 95v1127h291v-1136q0 -341 -390 -341q-42 0 -78 3v224zM122 1404q0 66 47 106q47 41 125 41t125 -41q47 -40 47 -106q0 -65 -47 -106q-48 -41 -125 -41q-78 0 -125 41t-47 106z" />
<glyph unicode="k" horiz-adv-x="1232" d="M155 0v1524h291v-852h18l369 431h331l-420 -473l449 -630h-345l-322 448l-80 -82v-366h-291z" />
<glyph unicode="l" horiz-adv-x="603" d="M155 0v1524h291v-1524h-291z" />
<glyph unicode="m" horiz-adv-x="1899" d="M145 0v1103h282v-180h18q34 95 115 149q82 55 190 55q235 0 305 -204h18q39 93 127 148q90 56 205 56q165 0 261 -100t96 -270v-757h-291v680q0 196 -184 196q-88 0 -141 -57q-53 -55 -53 -144v-675h-280v692q0 87 -48 136q-48 48 -134 48q-85 0 -140 -60t-55 -152v-664 h-291z" />
<glyph unicode="n" horiz-adv-x="1310" d="M145 0v1103h282v-177h18q38 93 130 147t213 54q184 0 285 -108q100 -108 100 -306v-713h-291v644q0 232 -210 232q-108 0 -172 -66q-64 -65 -64 -174v-636h-291z" />
<glyph unicode="o" horiz-adv-x="1269" d="M91 552q0 268 146 421q145 154 397 154t398 -153q145 -154 145 -422q0 -270 -144 -423q-145 -153 -399 -153t-399 153q-144 153 -144 423zM390 552q0 -161 64 -250q63 -88 180 -88q116 0 180 89q64 88 64 249q0 159 -64 248q-65 89 -180 89q-116 0 -180 -89t-64 -248z " />
<glyph unicode="p" horiz-adv-x="1324" d="M145 -345v1448h282v-181h18q45 93 134 146t203 53q210 0 330 -151t120 -418q0 -266 -119 -418q-119 -151 -326 -151q-247 0 -333 186h-18v-514h-291zM433 551q0 -151 67 -238t183 -87q118 0 184 87q66 86 66 239q0 152 -66 238q-67 87 -183 87t-184 -87q-67 -88 -67 -239 z" />
<glyph unicode="q" horiz-adv-x="1324" d="M91 553q0 263 121 415q122 153 330 153q111 0 201 -54q89 -53 133 -145h18v181h283v-1448h-292v514h-18q-93 -186 -331 -186q-207 0 -326 153q-119 152 -119 417zM390 552q0 -153 65 -239q66 -87 182 -87q117 0 185 87q67 87 67 238t-68 238q-67 88 -183 88t-182 -87 q-66 -86 -66 -238z" />
<glyph unicode="r" horiz-adv-x="884" d="M145 0v1103h282v-176h18q22 84 99 138q79 56 181 56q73 0 112 -14v-265q-46 18 -136 18q-119 0 -191 -66q-74 -68 -74 -183v-611h-291z" />
<glyph unicode="s" horiz-adv-x="1160" d="M93 307h284q35 -118 209 -118q85 0 138 32q53 33 53 86q0 78 -139 108l-200 45q-318 70 -318 319q0 157 126 252q127 96 333 96q210 0 330 -85q119 -85 131 -243h-269q-24 115 -190 115q-79 0 -129 -32q-52 -33 -52 -85q0 -76 149 -110l207 -45q161 -35 235 -107 q75 -72 75 -195q0 -164 -135 -264q-133 -100 -351 -100t-345 86t-142 245z" />
<glyph unicode="t" horiz-adv-x="845" d="M53 863v229h175v268h291v-268h234v-229h-234v-496q0 -140 143 -140q48 0 85 4v-222q-67 -13 -145 -13q-201 0 -287 70q-87 70 -87 232v565h-175z" />
<glyph unicode="u" horiz-adv-x="1315" d="M135 389v714h291v-644q0 -230 215 -230q108 0 172 64t64 174v636h291v-1103h-282v177h-18q-39 -96 -127 -148q-88 -53 -208 -53q-183 0 -290 109q-108 110 -108 304z" />
<glyph unicode="v" horiz-adv-x="1194" d="M50 1103h313l228 -822h18l226 822h307l-381 -1103h-328z" />
<glyph unicode="w" horiz-adv-x="1735" d="M60 1103h295l164 -791h18l193 791h278l194 -791h18l164 791h289l-293 -1103h-310l-197 761h-18l-195 -761h-306z" />
<glyph unicode="x" horiz-adv-x="1190" d="M63 1103h334l195 -362h18l195 362h318l-346 -545l349 -558h-324l-205 360h-18l-205 -360h-309l346 545z" />
<glyph unicode="y" horiz-adv-x="1223" d="M55 1103h321l232 -836h18l232 836h308l-380 -1120q-70 -213 -184 -299q-113 -87 -320 -87q-93 0 -111 3v235q15 -3 66 -3q160 0 195 121l10 40z" />
<glyph unicode="z" horiz-adv-x="1160" d="M120 0v172l558 681v18h-550v232h898v-192l-526 -661v-18h539v-232h-919z" />
<glyph unicode="{" horiz-adv-x="927" d="M131 472v277q95 0 131 46q37 45 37 162v185q0 199 102 288q102 88 331 88h105v-220h-45q-122 0 -168 -44q-46 -43 -46 -161v-237q0 -218 -208 -237v-18q208 -20 208 -256v-260q0 -117 46 -160q46 -44 168 -44h45v-219h-105q-228 0 -330 91q-103 90 -103 294v218 q0 116 -37 162q-37 45 -131 45z" />
<glyph unicode="|" horiz-adv-x="749" d="M240 -289v1732h267v-1732h-267z" />
<glyph unicode="}" horiz-adv-x="927" d="M88 -119h45q122 0 168 44q46 43 46 160v260q0 236 208 256v18q-208 19 -208 237v237q0 118 -46 161q-46 44 -168 44h-45v220h105q229 0 331 -88q102 -89 102 -288v-185q0 -117 37 -162q37 -46 131 -46v-277q-94 0 -131 -45q-37 -46 -37 -162v-218q0 -204 -102 -294 q-103 -91 -331 -91h-105v219z" />
<glyph unicode="~" horiz-adv-x="1225" d="M79 563q0 182 87 288q86 106 236 106q125 0 259 -131q80 -79 135 -79q113 0 119 178h227q2 -26 2 -38q0 -182 -86 -288t-235 -106q-126 0 -258 129q-82 81 -137 81q-115 0 -119 -178h-228q-2 26 -2 38z" />
<glyph unicode="&#xa1;" horiz-adv-x="730" d="M182 982q0 79 49 124q49 46 133 46q85 0 133 -46q49 -45 49 -124q0 -80 -49 -125q-48 -46 -133 -46q-84 0 -133 46t-49 125zM204 -322l26 969h267l27 -969h-320z" />
<glyph unicode="&#xa2;" d="M157 700q0 224 122 375q119 147 318 185v189h242v-185q171 -29 282 -135q115 -110 131 -269h-272q-22 80 -89 127t-159 47q-122 0 -200 -88q-81 -92 -81 -246q0 -156 81 -249q78 -89 199 -89q100 0 165 44t84 122h272q-16 -160 -129 -266q-110 -103 -284 -130v-184h-242 v188q-200 39 -318 186q-122 152 -122 378z" />
<glyph unicode="&#xa3;" d="M139 0v240q133 19 217 108q84 90 86 216q0 30 -11 68h-288v213h224q-59 143 -59 243q0 186 147 289q146 103 411 103q195 0 330 -33v-243q-138 33 -287 33q-138 0 -218 -55t-80 -149q0 -83 42 -188h417v-213h-354q10 -33 10 -65q5 -91 -40 -170t-125 -121v-19h702v-257 h-1124z" />
<glyph unicode="&#xa5;" d="M53 1443h327l318 -604h18l317 604h327l-426 -766h195v-169h-271v-133h271v-169h-271v-206h-302v206h-271v169h271v133h-271v169h195z" />
<glyph unicode="&#xa7;" horiz-adv-x="1032" d="M67 536q0 94 57 165q58 72 158 103v18q-205 95 -205 274q0 152 120 245q120 92 318 92q184 0 301 -90q118 -90 129 -239h-251q-8 53 -57 86q-51 33 -124 33q-76 0 -124 -35q-47 -35 -47 -91q0 -78 147 -124l171 -60q160 -55 232 -125q72 -71 72 -174q0 -97 -63 -172 q-64 -76 -168 -104v-19q223 -85 223 -267q0 -151 -122 -245q-122 -93 -320 -93q-187 0 -308 92q-121 93 -128 242h253q7 -55 60 -89q52 -35 127 -35q77 0 126 35q48 36 48 92q0 80 -149 124l-175 60q-158 51 -230 122q-71 72 -71 179zM321 593q0 -98 142 -139l109 -38 q59 9 99 49q40 39 40 89q0 100 -141 139l-109 38q-59 -9 -99 -49q-41 -40 -41 -89z" />
<glyph unicode="&#xa8;" horiz-adv-x="1176" d="M198 1419q0 66 44 109q43 42 111 42t111 -42q44 -43 44 -109t-44 -109t-111 -43t-111 43t-44 109zM666 1419q0 66 44 109q44 42 111 42q68 0 112 -42q44 -43 44 -109t-44 -109t-112 -43q-67 0 -111 43t-44 109z" />
<glyph unicode="&#xa9;" horiz-adv-x="1742" d="M82 652q0 330 229 560q229 229 559 229q331 0 560 -229q229 -230 229 -560q0 -329 -229 -559q-230 -229 -560 -229q-329 0 -559 229q-229 230 -229 559zM246 652q0 -260 181 -441t443 -181t444 181q181 181 181 441q0 262 -181 442q-181 181 -444 181q-262 0 -443 -181 t-181 -442zM504 654q0 182 103 288q103 107 278 107q146 0 242 -79t110 -211h-188q-11 58 -55 92t-107 34q-85 0 -133 -61q-49 -62 -49 -170q0 -110 49 -172q48 -62 133 -62q138 0 162 120h188q-14 -132 -108 -208t-243 -76q-177 0 -279 107q-103 107 -103 291z" />
<glyph unicode="&#xaa;" horiz-adv-x="1031" d="M90 783q0 259 364 282l207 11v75q1 50 -37 79q-39 28 -107 28q-124 0 -141 -82h-252q10 135 118 212q107 77 285 77q185 0 291 -85t106 -234v-631h-256v113h-18q-70 -131 -259 -131q-137 0 -219 78t-82 208zM353 799q0 -49 37 -77q36 -29 100 -29q75 0 124 44t49 111v70 l-167 -12q-143 -9 -143 -107z" />
<glyph unicode="&#xab;" horiz-adv-x="1447" d="M157 562v8l349 411h271l-347 -409v-11l347 -410h-276zM668 562v8l349 411h271l-347 -409v-11l347 -410h-276z" />
<glyph unicode="&#xac;" d="M184 455v258h1045v-654h-255v396h-790z" />
<glyph unicode="&#xad;" horiz-adv-x="992" d="M167 446v273h657v-273h-657z" />
<glyph unicode="&#xae;" horiz-adv-x="1260" d="M99 943q0 220 155 376q155 155 375 155t375 -155t155 -376t-155 -376t-375 -155t-375 155q-155 156 -155 376zM232 943q0 -164 116 -280q116 -115 281 -115q166 0 281 115q116 116 116 280q0 165 -116 280q-115 115 -281 115q-165 0 -281 -115t-116 -280zM420 707v487 h256q80 0 130 -43t50 -113q0 -116 -103 -148l127 -183h-149l-111 165h-75v-165h-125zM545 969h99q78 0 78 61q0 60 -76 60h-101v-121z" />
<glyph unicode="&#xaf;" horiz-adv-x="1048" d="M156 1316v180h735v-180h-735z" />
<glyph unicode="&#xb0;" horiz-adv-x="887" d="M101 1102q0 143 99 243q99 101 242 101q144 0 243 -101q99 -100 99 -243t-99 -242q-99 -101 -243 -101q-143 0 -242 101q-99 100 -99 242zM273 1102q0 -69 47 -117q49 -49 122 -49q74 0 123 49q48 48 48 117q0 70 -48 118q-50 49 -123 49t-122 -49q-47 -48 -47 -118z" />
<glyph unicode="&#xb1;" d="M207 71v225h997v-225h-997zM207 650v224h375v234h249v-234h375v-224h-375v-234h-249v234h-375z" />
<glyph unicode="&#xb4;" horiz-adv-x="1098" d="M259 1281l247 353h309l-287 -353h-269z" />
<glyph unicode="&#xb6;" horiz-adv-x="1580" d="M141 939q0 219 147 361q147 143 378 143h299v-1702h-280v702h-20q-224 0 -375 144q-149 142 -149 352zM1134 -259v1702h280v-1702h-280z" />
<glyph unicode="&#xb7;" horiz-adv-x="723" d="M178 734q0 80 49 128q50 50 134 50t133 -50q49 -48 49 -128q0 -81 -49 -130t-133 -49t-134 49q-49 49 -49 130z" />
<glyph unicode="&#xb8;" horiz-adv-x="1098" d="M366 -342q37 -14 116 -14q112 0 112 59q0 56 -130 56h-60v115l55 132h174l-49 -119q196 -9 196 -177q0 -96 -69 -150q-71 -54 -198 -54q-84 0 -147 17v135z" />
<glyph unicode="&#xba;" horiz-adv-x="1107" d="M94 980q0 223 123 353q123 129 335 129q214 0 336 -128q122 -129 122 -354q0 -228 -121 -355q-121 -128 -337 -128q-215 0 -337 128q-121 128 -121 355zM366 980q0 -129 48 -199q49 -71 138 -71t137 71q49 70 49 199q0 128 -49 198q-49 71 -137 71t-137 -71t-49 -198z " />
<glyph unicode="&#xbb;" horiz-adv-x="1447" d="M157 151l347 410v11l-347 409h271l349 -411v-8l-344 -411h-276zM668 151l347 410v11l-347 409h271l349 -411v-8l-344 -411h-276z" />
<glyph unicode="&#xbf;" horiz-adv-x="1141" d="M102 56q0 210 214 337q100 59 135 104q35 46 35 118v53h264l2 -54q10 -119 -33 -196q-41 -74 -147 -136q-97 -58 -132 -103q-36 -46 -36 -114q0 -71 53 -115q53 -45 138 -45t139 49q52 50 57 133h272q-4 -191 -130 -305q-130 -117 -355 -117q-214 0 -346 109 q-130 107 -130 282zM426 981q0 79 49 124q49 46 133 46q85 0 133 -46q49 -45 49 -124t-49 -125q-48 -45 -133 -45q-84 0 -133 45q-49 46 -49 125z" />
<glyph unicode="&#xc0;" horiz-adv-x="1500" d="M71 0l501 1443h355l501 -1443h-327l-109 344h-507l-111 -344h-303zM308 1908h315l276 -318h-277zM550 577h378l-179 566h-18z" />
<glyph unicode="&#xc1;" horiz-adv-x="1500" d="M71 0l501 1443h355l501 -1443h-327l-109 344h-507l-111 -344h-303zM550 577h378l-179 566h-18zM608 1590l277 318h315l-314 -318h-278z" />
<glyph unicode="&#xc2;" horiz-adv-x="1500" d="M71 0l501 1443h355l501 -1443h-327l-109 344h-507l-111 -344h-303zM329 1590l284 335h272l284 -335h-265l-146 187h-18l-146 -187h-265zM550 577h378l-179 566h-18z" />
<glyph unicode="&#xc3;" horiz-adv-x="1500" d="M71 0l501 1443h355l501 -1443h-327l-109 344h-507l-111 -344h-303zM343 1587q0 145 70 229q66 80 177 80q94 0 179 -69q84 -69 116 -69q80 0 87 124h183q0 -141 -69 -224q-68 -81 -178 -81q-89 0 -173 69q-83 69 -122 69q-82 0 -86 -128h-184zM550 577h378l-179 566h-18z " />
<glyph unicode="&#xc4;" horiz-adv-x="1500" d="M71 0l501 1443h355l501 -1443h-327l-109 344h-507l-111 -344h-303zM360 1731q0 66 44 109q43 42 111 42t111 -42q44 -43 44 -109t-44 -109t-111 -43t-111 43t-44 109zM550 577h378l-179 566h-18zM828 1731q0 66 44 109q44 42 111 42q68 0 112 -42q44 -43 44 -109 t-44 -109t-112 -43q-67 0 -111 43t-44 109z" />
<glyph unicode="&#xc5;" horiz-adv-x="1500" d="M71 0l501 1443h355l501 -1443h-327l-109 344h-507l-111 -344h-303zM503 1819q0 102 71 170q70 68 175 68t175 -68q70 -67 70 -170q0 -104 -70 -173q-70 -68 -175 -68t-175 68q-71 69 -71 173zM550 577h378l-179 566h-18zM643 1818q0 -46 30 -75t76 -29t75 30q30 29 30 74 q0 44 -30 74q-30 29 -75 29q-46 0 -76 -29q-30 -30 -30 -74z" />
<glyph unicode="&#xc6;" horiz-adv-x="2059" d="M71 0l595 1443h1250v-258h-651v-341h614v-239h-614v-347h651v-258h-927v364h-465l-154 -364h-299zM611 598h378v604h-129z" />
<glyph unicode="&#xc7;" horiz-adv-x="1518" d="M110 722q0 352 181 555q182 203 496 203q256 0 433 -153q176 -152 193 -388h-294q-22 125 -112 200q-91 75 -220 75q-170 0 -269 -132t-99 -360t99 -360q99 -133 270 -133q130 0 220 71t112 190h294q-17 -214 -166 -357q-147 -142 -376 -166l-33 -79q196 -9 196 -177 q0 -96 -69 -150q-71 -54 -198 -54q-84 0 -147 17v135q37 -14 116 -14q112 0 112 59q0 56 -130 56h-60v115l39 93q-275 29 -431 228q-157 200 -157 526z" />
<glyph unicode="&#xc8;" horiz-adv-x="1274" d="M174 0v1443h956v-258h-654v-337h617v-239h-617v-351h654v-258h-956zM211 1908h315l276 -318h-277z" />
<glyph unicode="&#xc9;" horiz-adv-x="1274" d="M174 0v1443h956v-258h-654v-337h617v-239h-617v-351h654v-258h-956zM511 1590l277 318h315l-314 -318h-278z" />
<glyph unicode="&#xca;" horiz-adv-x="1274" d="M174 0v1443h956v-258h-654v-337h617v-239h-617v-351h654v-258h-956zM232 1590l284 335h272l284 -335h-265l-146 187h-18l-146 -187h-265z" />
<glyph unicode="&#xcb;" horiz-adv-x="1274" d="M174 0v1443h956v-258h-654v-337h617v-239h-617v-351h654v-258h-956zM263 1731q0 66 44 109q43 42 111 42t111 -42q44 -43 44 -109t-44 -109t-111 -43t-111 43t-44 109zM731 1731q0 66 44 109q44 42 111 42q68 0 112 -42q44 -43 44 -109t-44 -109t-112 -43q-67 0 -111 43 t-44 109z" />
<glyph unicode="&#xcc;" horiz-adv-x="652" d="M-115 1908h315l276 -318h-277zM175 0v1443h302v-1443h-302z" />
<glyph unicode="&#xcd;" horiz-adv-x="652" d="M174 0v1443h302v-1443h-302zM184 1590l277 318h315l-314 -318h-278z" />
<glyph unicode="&#xce;" horiz-adv-x="652" d="M-94 1590l284 335h272l284 -335h-265l-146 187h-18l-146 -187h-265zM175 0v1443h302v-1443h-302z" />
<glyph unicode="&#xcf;" horiz-adv-x="652" d="M-63 1731q0 66 44 109q43 42 111 42t111 -42q44 -43 44 -109t-44 -109t-111 -43t-111 43t-44 109zM175 0v1443h302v-1443h-302zM405 1731q0 66 44 109q44 42 111 42q68 0 112 -42q44 -43 44 -109t-44 -109t-112 -43q-67 0 -111 43t-44 109z" />
<glyph unicode="&#xd0;" horiz-adv-x="1499" d="M32 618v227h142v599h568q322 0 499 -186q178 -187 178 -526q0 -351 -176 -542q-177 -190 -501 -190h-568v618h-142zM476 258h218q201 0 309 120q108 121 108 349q0 218 -110 339q-110 120 -307 120h-218v-341h210v-227h-210v-360z" />
<glyph unicode="&#xd1;" horiz-adv-x="1573" d="M174 0v1443h252l664 -899h18v899h289v-1443h-250l-666 903h-18v-903h-289zM376 1587q0 145 70 229q66 80 177 80q94 0 179 -69q84 -69 116 -69q80 0 87 124h183q0 -141 -69 -224q-68 -81 -178 -81q-89 0 -173 69q-83 69 -122 69q-82 0 -86 -128h-184z" />
<glyph unicode="&#xd2;" horiz-adv-x="1610" d="M110 722q0 350 189 555q187 203 506 203q320 0 506 -204q187 -204 187 -554q0 -351 -186 -555q-187 -204 -507 -204q-321 0 -508 204t-187 555zM364 1908h315l276 -318h-277zM419 722q0 -226 104 -360q105 -134 282 -134q176 0 281 134q104 134 104 360t-104 360 q-105 133 -281 133t-281 -133q-105 -134 -105 -360z" />
<glyph unicode="&#xd3;" horiz-adv-x="1610" d="M110 722q0 350 189 555q187 203 506 203q320 0 506 -204q187 -204 187 -554q0 -351 -186 -555q-187 -204 -507 -204q-321 0 -508 204t-187 555zM419 722q0 -226 104 -360q105 -134 282 -134q176 0 281 134q104 134 104 360t-104 360q-105 133 -281 133t-281 -133 q-105 -134 -105 -360zM664 1590l277 318h315l-314 -318h-278z" />
<glyph unicode="&#xd4;" horiz-adv-x="1610" d="M110 722q0 350 189 555q187 203 506 203q320 0 506 -204q187 -204 187 -554q0 -351 -186 -555q-187 -204 -507 -204q-321 0 -508 204t-187 555zM385 1590l284 335h272l284 -335h-265l-146 187h-18l-146 -187h-265zM419 722q0 -226 104 -360q105 -134 282 -134 q176 0 281 134q104 134 104 360t-104 360q-105 133 -281 133t-281 -133q-105 -134 -105 -360z" />
<glyph unicode="&#xd5;" horiz-adv-x="1610" d="M110 722q0 350 189 555q187 203 506 203q320 0 506 -204q187 -204 187 -554q0 -351 -186 -555q-187 -204 -507 -204q-321 0 -508 204t-187 555zM399 1587q0 145 70 229q66 80 177 80q94 0 179 -69q84 -69 116 -69q80 0 87 124h183q0 -141 -69 -224q-68 -81 -178 -81 q-89 0 -173 69q-83 69 -122 69q-82 0 -86 -128h-184zM419 722q0 -226 104 -360q105 -134 282 -134q176 0 281 134q104 134 104 360t-104 360q-105 133 -281 133t-281 -133q-105 -134 -105 -360z" />
<glyph unicode="&#xd6;" horiz-adv-x="1610" d="M110 722q0 350 189 555q187 203 506 203q320 0 506 -204q187 -204 187 -554q0 -351 -186 -555q-187 -204 -507 -204q-321 0 -508 204t-187 555zM416 1731q0 66 44 109q43 42 111 42t111 -42q44 -43 44 -109t-44 -109t-111 -43t-111 43t-44 109zM419 722q0 -226 104 -360 q105 -134 282 -134q176 0 281 134q104 134 104 360t-104 360q-105 133 -281 133t-281 -133q-105 -134 -105 -360zM884 1731q0 66 44 109q44 42 111 42q68 0 112 -42q44 -43 44 -109t-44 -109t-112 -43q-67 0 -111 43t-44 109z" />
<glyph unicode="&#xd8;" horiz-adv-x="1592" d="M110 722q0 350 189 555q187 203 506 203q207 0 360 -88l76 115l108 -59l-84 -127q233 -203 233 -599q0 -351 -186 -555q-187 -204 -507 -204q-217 0 -377 97l-85 -128l-102 66l90 135q-221 205 -221 589zM419 722q0 -201 83 -330l506 763q-88 60 -203 60 q-176 0 -281 -133q-105 -134 -105 -360zM586 299q93 -71 219 -71q176 0 281 134q104 134 104 360q0 216 -94 345z" />
<glyph unicode="&#xd9;" horiz-adv-x="1565" d="M177 498v945h302v-914q0 -138 79 -217q80 -81 223 -81q144 0 224 81q79 79 79 217v914h302v-945q0 -241 -164 -387q-165 -148 -441 -148q-275 0 -440 148q-164 146 -164 387zM340 1908h315l276 -318h-277z" />
<glyph unicode="&#xda;" horiz-adv-x="1565" d="M177 498v945h302v-914q0 -138 79 -217q80 -81 223 -81q144 0 224 81q79 79 79 217v914h302v-945q0 -241 -164 -387q-165 -148 -441 -148q-275 0 -440 148q-164 146 -164 387zM640 1590l277 318h315l-314 -318h-278z" />
<glyph unicode="&#xdb;" horiz-adv-x="1565" d="M177 498v945h302v-914q0 -138 79 -217q80 -81 223 -81q144 0 224 81q79 79 79 217v914h302v-945q0 -241 -164 -387q-165 -148 -441 -148q-275 0 -440 148q-164 146 -164 387zM361 1590l284 335h272l284 -335h-265l-146 187h-18l-146 -187h-265z" />
<glyph unicode="&#xdc;" horiz-adv-x="1565" d="M177 498v945h302v-914q0 -138 79 -217q80 -81 223 -81q144 0 224 81q79 79 79 217v914h302v-945q0 -241 -164 -387q-165 -148 -441 -148q-275 0 -440 148q-164 146 -164 387zM392 1731q0 66 44 109q43 42 111 42t111 -42q44 -43 44 -109t-44 -109t-111 -43t-111 43 t-44 109zM860 1731q0 66 44 109q44 42 111 42q68 0 112 -42q44 -43 44 -109t-44 -109t-112 -43q-67 0 -111 43t-44 109z" />
<glyph unicode="&#xdd;" horiz-adv-x="1452" d="M71 1443h327l318 -604h18l317 604h327l-502 -912v-531h-302v531zM584 1590l277 318h315l-314 -318h-278z" />
<glyph unicode="&#xde;" horiz-adv-x="1378" d="M174 0v1443h304v-232h307q209 0 340 -123q135 -127 135 -339q0 -211 -140 -338q-136 -123 -350 -123h-294v-288h-302zM476 533h226q117 0 183 54q68 57 68 162q0 104 -68 160q-65 54 -182 54h-227v-430z" />
<glyph unicode="&#xdf;" horiz-adv-x="1402" d="M191 0v1079q0 186 136 294q135 108 364 108q219 0 357 -105q137 -105 137 -272q0 -119 -61 -207q-60 -88 -157 -115v-19q151 -10 242 -106q93 -99 93 -256q0 -187 -131 -301q-133 -115 -354 -115q-114 0 -181 16v241q54 -18 129 -18q115 0 179 53q62 52 62 142 q0 91 -72 143q-73 53 -202 53h-72v245h49q88 0 140 51q53 51 53 141q0 83 -55 133q-56 52 -151 52q-104 0 -159 -56q-56 -57 -56 -164v-1017h-290z" />
<glyph unicode="&#xe0;" horiz-adv-x="1208" d="M86 315q0 149 111 235q110 85 316 97l267 16v90q0 144 -186 144q-162 0 -199 -102h-268q14 153 145 243q130 89 338 89q218 0 338 -98q119 -98 119 -276v-753h-282v144h-18q-91 -161 -320 -161q-160 0 -260 90q-101 92 -101 242zM213 1634h309l247 -353h-269zM371 334 q0 -61 48 -97q47 -35 124 -35q101 0 169 57t68 141v81l-223 -14q-186 -13 -186 -133z" />
<glyph unicode="&#xe1;" horiz-adv-x="1208" d="M86 315q0 149 111 235q110 85 316 97l267 16v90q0 144 -186 144q-162 0 -199 -102h-268q14 153 145 243q130 89 338 89q218 0 338 -98q119 -98 119 -276v-753h-282v144h-18q-91 -161 -320 -161q-160 0 -260 90q-101 92 -101 242zM371 334q0 -61 48 -97q47 -35 124 -35 q101 0 169 57t68 141v81l-223 -14q-186 -13 -186 -133zM455 1281l247 353h309l-287 -353h-269z" />
<glyph unicode="&#xe2;" horiz-adv-x="1208" d="M86 315q0 149 111 235q110 85 316 97l267 16v90q0 144 -186 144q-162 0 -199 -102h-268q14 153 145 243q130 89 338 89q218 0 338 -98q119 -98 119 -276v-753h-282v144h-18q-91 -161 -320 -161q-160 0 -260 90q-101 92 -101 242zM189 1251l275 354h291l275 -354h-263 l-148 209h-18l-149 -209h-263zM371 334q0 -61 48 -97q47 -35 124 -35q101 0 169 57t68 141v81l-223 -14q-186 -13 -186 -133z" />
<glyph unicode="&#xe3;" horiz-adv-x="1208" d="M86 315q0 149 111 235q110 85 316 97l267 16v90q0 144 -186 144q-162 0 -199 -102h-268q14 153 145 243q130 89 338 89q218 0 338 -98q119 -98 119 -276v-753h-282v144h-18q-91 -161 -320 -161q-160 0 -260 90q-101 92 -101 242zM208 1256q0 145 72 233q71 88 189 88 q85 0 166 -72q82 -72 112 -72q87 0 88 138h187q0 -144 -71 -231q-72 -87 -190 -87q-85 0 -166 72q-82 72 -112 72q-86 0 -88 -141h-187zM371 334q0 -61 48 -97q47 -35 124 -35q101 0 169 57t68 141v81l-223 -14q-186 -13 -186 -133z" />
<glyph unicode="&#xe4;" horiz-adv-x="1208" d="M86 315q0 149 111 235q110 85 316 97l267 16v90q0 144 -186 144q-162 0 -199 -102h-268q14 153 145 243q130 89 338 89q218 0 338 -98q119 -98 119 -276v-753h-282v144h-18q-91 -161 -320 -161q-160 0 -260 90q-101 92 -101 242zM221 1403q0 66 44 109q43 42 111 42 t111 -42q44 -43 44 -109t-44 -109t-111 -43t-111 43t-44 109zM371 334q0 -61 48 -97q47 -35 124 -35q101 0 169 57t68 141v81l-223 -14q-186 -13 -186 -133zM689 1403q0 66 44 109q44 42 111 42q68 0 112 -42q44 -43 44 -109t-44 -109t-112 -43q-67 0 -111 43t-44 109z" />
<glyph unicode="&#xe5;" horiz-adv-x="1208" d="M86 315q0 149 111 235q110 85 316 97l267 16v90q0 144 -186 144q-162 0 -199 -102h-268q14 153 145 243q130 89 338 89q218 0 338 -98q119 -98 119 -276v-753h-282v144h-18q-91 -161 -320 -161q-160 0 -260 90q-101 92 -101 242zM364 1492q0 102 71 170q70 68 175 68 t175 -68q70 -67 70 -170q0 -104 -70 -173q-70 -68 -175 -68t-175 68q-71 69 -71 173zM371 334q0 -61 48 -97q47 -35 124 -35q101 0 169 57t68 141v81l-223 -14q-186 -13 -186 -133zM504 1491q0 -46 30 -75t76 -29t75 30q30 29 30 74q0 44 -30 74q-30 29 -75 29 q-46 0 -76 -29q-30 -30 -30 -74z" />
<glyph unicode="&#xe6;" horiz-adv-x="1894" d="M86 315q0 149 111 235q110 85 316 97l267 16v90q0 144 -186 144q-162 0 -199 -102h-268q13 146 139 239t313 93q251 0 357 -158h18q127 158 356 158q228 0 360 -148t132 -401v-94h-747v-26q4 -117 74 -187q70 -71 182 -71q155 0 212 114h269q-33 -156 -161 -247t-317 -91 q-130 0 -235 54q-105 53 -156 144h-18q-136 -198 -407 -198q-187 0 -300 95q-112 93 -112 244zM371 332q0 -62 49 -98q48 -35 128 -35q98 0 166 61q66 59 66 144v77l-223 -14q-186 -13 -186 -135zM1055 669h462q-4 105 -67 170q-62 65 -158 65q-102 0 -166 -65 q-65 -64 -71 -170z" />
<glyph unicode="&#xe7;" horiz-adv-x="1203" d="M91 554q0 275 140 424t399 149q216 0 346 -112q127 -110 145 -301h-272q-15 81 -70 126q-58 48 -149 48q-118 0 -181 -86q-64 -86 -64 -248q0 -164 64 -252q63 -87 181 -87q185 0 219 167h272q-16 -166 -120 -271q-106 -107 -280 -129l-39 -94q196 -9 196 -177 q0 -96 -69 -150q-71 -54 -198 -54q-84 0 -147 17v135q37 -14 116 -14q112 0 112 59q0 56 -130 56h-60v115l44 105q-219 24 -337 172t-118 402z" />
<glyph unicode="&#xe8;" horiz-adv-x="1231" d="M91 546q0 269 142 425t388 156q244 0 380 -147q137 -147 137 -410v-89h-757v-15q3 -123 71 -194q67 -72 181 -72q177 0 225 114h271q-33 -157 -167 -247q-135 -91 -337 -91q-252 0 -393 151q-141 150 -141 419zM224 1634h309l247 -353h-269zM382 667h470q-5 110 -66 173 q-62 64 -164 64q-101 0 -167 -65q-65 -65 -73 -172z" />
<glyph unicode="&#xe9;" horiz-adv-x="1231" d="M91 546q0 269 142 425t388 156q244 0 380 -147q137 -147 137 -410v-89h-757v-15q3 -123 71 -194q67 -72 181 -72q177 0 225 114h271q-33 -157 -167 -247q-135 -91 -337 -91q-252 0 -393 151q-141 150 -141 419zM382 667h470q-5 110 -66 173q-62 64 -164 64 q-101 0 -167 -65q-65 -65 -73 -172zM466 1281l247 353h309l-287 -353h-269z" />
<glyph unicode="&#xea;" horiz-adv-x="1231" d="M91 546q0 269 142 425t388 156q244 0 380 -147q137 -147 137 -410v-89h-757v-15q3 -123 71 -194q67 -72 181 -72q177 0 225 114h271q-33 -157 -167 -247q-135 -91 -337 -91q-252 0 -393 151q-141 150 -141 419zM200 1251l275 354h291l275 -354h-263l-148 209h-18 l-149 -209h-263zM382 667h470q-5 110 -66 173q-62 64 -164 64q-101 0 -167 -65q-65 -65 -73 -172z" />
<glyph unicode="&#xeb;" horiz-adv-x="1231" d="M91 546q0 269 142 425t388 156q244 0 380 -147q137 -147 137 -410v-89h-757v-15q3 -123 71 -194q67 -72 181 -72q177 0 225 114h271q-33 -157 -167 -247q-135 -91 -337 -91q-252 0 -393 151q-141 150 -141 419zM232 1403q0 66 44 109q43 42 111 42t111 -42 q44 -43 44 -109t-44 -109t-111 -43t-111 43t-44 109zM382 667h470q-5 110 -66 173q-62 64 -164 64q-101 0 -167 -65q-65 -65 -73 -172zM700 1403q0 66 44 109q44 42 111 42q68 0 112 -42q44 -43 44 -109t-44 -109t-112 -43q-67 0 -111 43t-44 109z" />
<glyph unicode="&#xec;" horiz-adv-x="593" d="M-100 1634h309l247 -353h-269zM151 0v1103h291v-1103h-291z" />
<glyph unicode="&#xed;" horiz-adv-x="593" d="M141 1281l247 353h309l-287 -353h-269zM150 0v1103h291v-1103h-291z" />
<glyph unicode="&#xee;" horiz-adv-x="593" d="M-124 1251l275 354h291l275 -354h-263l-148 209h-18l-149 -209h-263zM151 0v1103h291v-1103h-291z" />
<glyph unicode="&#xef;" horiz-adv-x="593" d="M-92 1403q0 66 44 109q43 42 111 42t111 -42q44 -43 44 -109t-44 -109t-111 -43t-111 43t-44 109zM151 0v1103h291v-1103h-291zM376 1403q0 66 44 109q44 42 111 42q68 0 112 -42q44 -43 44 -109t-44 -109t-112 -43q-67 0 -111 43t-44 109z" />
<glyph unicode="&#xf0;" horiz-adv-x="1277" d="M96 536q0 230 127 374q127 143 331 143q196 0 283 -125h17q-42 141 -171 281l-285 -95l-55 143l228 76q-78 69 -242 183h363q61 -45 119 -100l265 89l57 -143l-205 -68q253 -299 253 -690q0 -283 -148 -452t-396 -169q-245 0 -393 151t-148 402zM395 534q0 -142 67 -225 t182 -83q116 0 183 83t67 225q0 141 -68 225t-182 84q-115 0 -182 -84q-67 -83 -67 -225z" />
<glyph unicode="&#xf1;" horiz-adv-x="1310" d="M145 0v1103h282v-177h18q38 93 130 147t213 54q184 0 285 -108q100 -108 100 -306v-713h-291v644q0 232 -210 232q-108 0 -172 -66q-64 -65 -64 -174v-636h-291zM264 1256q0 145 72 233q71 88 189 88q85 0 166 -72q82 -72 112 -72q87 0 88 138h187q0 -144 -71 -231 q-72 -87 -190 -87q-85 0 -166 72q-82 72 -112 72q-86 0 -88 -141h-187z" />
<glyph unicode="&#xf2;" horiz-adv-x="1269" d="M91 552q0 268 146 421q145 154 397 154t398 -153q145 -154 145 -422q0 -270 -144 -423q-145 -153 -399 -153t-399 153q-144 153 -144 423zM237 1634h309l247 -353h-269zM390 552q0 -161 64 -250q63 -88 180 -88q116 0 180 89q64 88 64 249q0 159 -64 248q-65 89 -180 89 q-116 0 -180 -89t-64 -248z" />
<glyph unicode="&#xf3;" horiz-adv-x="1269" d="M91 552q0 268 146 421q145 154 397 154t398 -153q145 -154 145 -422q0 -270 -144 -423q-145 -153 -399 -153t-399 153q-144 153 -144 423zM390 552q0 -161 64 -250q63 -88 180 -88q116 0 180 89q64 88 64 249q0 159 -64 248q-65 89 -180 89q-116 0 -180 -89t-64 -248z M479 1281l247 353h309l-287 -353h-269z" />
<glyph unicode="&#xf4;" horiz-adv-x="1269" d="M91 552q0 268 146 421q145 154 397 154t398 -153q145 -154 145 -422q0 -270 -144 -423q-145 -153 -399 -153t-399 153q-144 153 -144 423zM213 1251l275 354h291l275 -354h-263l-148 209h-18l-149 -209h-263zM390 552q0 -161 64 -250q63 -88 180 -88q116 0 180 89 q64 88 64 249q0 159 -64 248q-65 89 -180 89q-116 0 -180 -89t-64 -248z" />
<glyph unicode="&#xf5;" horiz-adv-x="1269" d="M91 552q0 268 146 421q145 154 397 154t398 -153q145 -154 145 -422q0 -270 -144 -423q-145 -153 -399 -153t-399 153q-144 153 -144 423zM232 1256q0 145 72 233q71 88 189 88q85 0 166 -72q82 -72 112 -72q87 0 88 138h187q0 -144 -71 -231q-72 -87 -190 -87 q-85 0 -166 72q-82 72 -112 72q-86 0 -88 -141h-187zM390 552q0 -161 64 -250q63 -88 180 -88q116 0 180 89q64 88 64 249q0 159 -64 248q-65 89 -180 89q-116 0 -180 -89t-64 -248z" />
<glyph unicode="&#xf6;" horiz-adv-x="1269" d="M91 552q0 268 146 421q145 154 397 154t398 -153q145 -154 145 -422q0 -270 -144 -423q-145 -153 -399 -153t-399 153q-144 153 -144 423zM245 1403q0 66 44 109q43 42 111 42t111 -42q44 -43 44 -109t-44 -109t-111 -43t-111 43t-44 109zM390 552q0 -161 64 -250 q63 -88 180 -88q116 0 180 89q64 88 64 249q0 159 -64 248q-65 89 -180 89q-116 0 -180 -89t-64 -248zM713 1403q0 66 44 109q44 42 111 42q68 0 112 -42q44 -43 44 -109t-44 -109t-112 -43q-67 0 -111 43t-44 109z" />
<glyph unicode="&#xf7;" d="M167 472v225h1080v-225h-1080zM540 192q0 72 46 117q47 45 121 45t121 -45q46 -45 46 -117t-46 -117q-47 -45 -121 -45t-121 45q-46 45 -46 117zM540 977q0 72 46 117q47 44 121 44t121 -44q46 -45 46 -117t-46 -117q-47 -45 -121 -45t-121 45q-46 45 -46 117z" />
<glyph unicode="&#xf8;" horiz-adv-x="1269" d="M91 552q0 268 146 421q145 154 397 154q147 0 262 -55l62 100l106 -58l-67 -107q180 -155 180 -455q0 -270 -144 -423q-145 -153 -399 -153q-139 0 -249 48l-61 -97l-103 63l60 96q-190 153 -190 466zM390 552q0 -136 45 -219l324 520q-52 36 -125 36q-116 0 -180 -89 t-64 -248zM520 242q49 -28 114 -28q116 0 180 89q64 88 64 249q0 121 -38 203z" />
<glyph unicode="&#xf9;" horiz-adv-x="1318" d="M135 389v714h291v-644q0 -230 215 -230q108 0 172 64t64 174v636h291v-1103h-282v177h-18q-39 -96 -127 -148q-88 -53 -208 -53q-183 0 -290 109q-108 110 -108 304zM258 1634h309l247 -353h-269z" />
<glyph unicode="&#xfa;" horiz-adv-x="1318" d="M135 389v714h291v-644q0 -230 215 -230q108 0 172 64t64 174v636h291v-1103h-282v177h-18q-39 -96 -127 -148q-88 -53 -208 -53q-183 0 -290 109q-108 110 -108 304zM500 1281l247 353h309l-287 -353h-269z" />
<glyph unicode="&#xfb;" horiz-adv-x="1318" d="M135 389v714h291v-644q0 -230 215 -230q108 0 172 64t64 174v636h291v-1103h-282v177h-18q-39 -96 -127 -148q-88 -53 -208 -53q-183 0 -290 109q-108 110 -108 304zM234 1251l275 354h291l275 -354h-263l-148 209h-18l-149 -209h-263z" />
<glyph unicode="&#xfc;" horiz-adv-x="1318" d="M135 389v714h291v-644q0 -230 215 -230q108 0 172 64t64 174v636h291v-1103h-282v177h-18q-39 -96 -127 -148q-88 -53 -208 -53q-183 0 -290 109q-108 110 -108 304zM266 1403q0 66 44 109q43 42 111 42t111 -42q44 -43 44 -109t-44 -109t-111 -43t-111 43t-44 109z M734 1403q0 66 44 109q44 42 111 42q68 0 112 -42q44 -43 44 -109t-44 -109t-112 -43q-67 0 -111 43t-44 109z" />
<glyph unicode="&#xfd;" horiz-adv-x="1223" d="M55 1103h321l232 -836h18l232 836h308l-380 -1120q-70 -213 -184 -299q-113 -87 -320 -87q-93 0 -111 3v235q15 -3 66 -3q160 0 195 121l10 40zM460 1281l247 353h309l-287 -353h-269z" />
<glyph unicode="&#xfe;" horiz-adv-x="1339" d="M150 -345v1852h287v-585h18q45 93 133 146t201 53q210 0 329 -151t119 -418q0 -266 -119 -418q-119 -151 -326 -151q-247 0 -333 186h-18v-514h-291zM438 551q0 -151 67 -238t183 -87q118 0 184 87q66 86 66 239q0 152 -66 238q-67 87 -183 87t-184 -87q-67 -88 -67 -239 z" />
<glyph unicode="&#xff;" horiz-adv-x="1223" d="M55 1103h321l232 -836h18l232 836h308l-380 -1120q-70 -213 -184 -299q-113 -87 -320 -87q-93 0 -111 3v235q15 -3 66 -3q160 0 195 121l10 40zM226 1403q0 66 44 109q43 42 111 42t111 -42q44 -43 44 -109t-44 -109t-111 -43t-111 43t-44 109zM694 1403q0 66 44 109 q44 42 111 42q68 0 112 -42q44 -43 44 -109t-44 -109t-112 -43q-67 0 -111 43t-44 109z" />
<glyph unicode="&#x131;" horiz-adv-x="593" d="M150 0v1103h291v-1103h-291z" />
<glyph unicode="&#x152;" horiz-adv-x="2271" d="M120 722q0 357 172 558q173 200 478 200q152 0 283 -74q130 -73 182 -188h18v225h916v-258h-663v-337h626v-239h-626v-351h663v-258h-916v232h-18q-55 -121 -183 -195t-282 -74q-305 0 -478 201q-172 201 -172 558zM429 722q0 -227 106 -361q105 -133 285 -133 q175 0 278 134q103 133 103 360t-103 360t-278 133q-179 0 -285 -134q-106 -133 -106 -359z" />
<glyph unicode="&#x153;" horiz-adv-x="2017" d="M96 550q0 269 142 423q141 154 388 154q265 0 390 -190h18q123 190 391 190q228 0 365 -151q136 -151 136 -406v-88h-757v-16q3 -123 71 -194q68 -72 181 -72q177 0 225 114h269q-33 -156 -166 -247q-132 -91 -323 -91q-273 0 -393 186h-18q-119 -186 -390 -186 q-245 0 -387 154t-142 420zM395 551q0 -161 64 -249t180 -88t180 88t64 249q0 160 -64 249q-65 89 -180 89t-180 -89q-64 -89 -64 -249zM1170 667h470q-5 110 -66 173q-62 64 -164 64q-101 0 -167 -64q-66 -65 -73 -173z" />
<glyph unicode="&#x178;" horiz-adv-x="1452" d="M71 1443h327l318 -604h18l317 604h327l-502 -912v-531h-302v531zM336 1731q0 66 44 109q43 42 111 42t111 -42q44 -43 44 -109t-44 -109t-111 -43t-111 43t-44 109zM804 1731q0 66 44 109q44 42 111 42q68 0 112 -42q44 -43 44 -109t-44 -109t-112 -43q-67 0 -111 43 t-44 109z" />
<glyph unicode="&#x192;" d="M106 -1v246q87 -26 179 -26q187 0 215 180l41 256h-317v217h350l29 188q63 399 495 399q121 0 202 -15v-245q-66 18 -168 18q-201 0 -231 -190l-24 -155h349v-217h-383l-42 -271q-33 -211 -151 -310q-117 -98 -328 -98q-121 0 -216 23z" />
<glyph unicode="&#x2c6;" horiz-adv-x="1099" d="M128 1251l275 354h291l275 -354h-263l-148 209h-18l-149 -209h-263z" />
<glyph unicode="&#x2c7;" horiz-adv-x="1099" d="M128 1605h263l149 -209h18l148 209h263l-275 -354h-291z" />
<glyph unicode="&#x2d8;" horiz-adv-x="1048" d="M124 1602h207q2 -81 52 -129q52 -49 140 -49t140 49q50 48 52 129h208q0 -156 -107 -252q-110 -99 -293 -99t-292 99q-107 96 -107 252z" />
<glyph unicode="&#x2d9;" horiz-adv-x="1048" d="M362 1438q0 69 45 115q46 46 116 46t116 -46q45 -46 45 -115t-45 -114q-46 -46 -116 -46t-116 46q-45 45 -45 114z" />
<glyph unicode="&#x2da;" horiz-adv-x="1099" d="M303 1492q0 102 71 170q70 68 175 68t175 -68q70 -67 70 -170q0 -104 -70 -173q-70 -68 -175 -68t-175 68q-71 69 -71 173zM443 1491q0 -46 30 -75t76 -29t75 30q30 29 30 74q0 44 -30 74q-30 29 -75 29q-46 0 -76 -29q-30 -30 -30 -74z" />
<glyph unicode="&#x2db;" horiz-adv-x="1048" d="M330 -256q0 169 188 295l165 -11q-148 -103 -148 -216q0 -46 31 -74q30 -27 82 -27q43 0 80 9v-161q-56 -25 -153 -25q-110 0 -178 57q-67 58 -67 153z" />
<glyph unicode="&#x2dc;" horiz-adv-x="1098" d="M141 1270q0 145 72 233q71 88 189 88q85 0 166 -72q82 -72 112 -72q87 0 88 138h187q0 -144 -71 -231q-72 -87 -190 -87q-85 0 -166 72q-82 72 -112 72q-86 0 -88 -141h-187z" />
<glyph unicode="&#x2dd;" horiz-adv-x="1048" d="M66 1281l212 353h259l-242 -353h-229zM502 1281l212 353h259l-242 -353h-229z" />
<glyph unicode="&#x3a9;" horiz-adv-x="1636" d="M119 0v247h282v18q-132 78 -207 224q-75 145 -75 322q0 297 194 483t504 186t505 -186q194 -186 194 -483q0 -177 -75 -322q-75 -146 -207 -224v-18h282v-247h-577v314q273 157 273 473q0 197 -106 313q-107 115 -289 115t-288 -115q-107 -116 -107 -313q0 -315 274 -473 v-314h-577z" />
<glyph unicode="&#x3c0;" horiz-adv-x="1528" d="M86 859v244h1330v-244h-229v-517q0 -71 23 -97q23 -25 85 -25q31 0 58 8v-221q-59 -17 -143 -17q-170 0 -236 67q-65 66 -65 235v567h-340v-859h-278v859h-205z" />
<glyph unicode="&#x2000;" horiz-adv-x="1028" />
<glyph unicode="&#x2001;" horiz-adv-x="2057" />
<glyph unicode="&#x2002;" horiz-adv-x="1028" />
<glyph unicode="&#x2003;" horiz-adv-x="2057" />
<glyph unicode="&#x2004;" horiz-adv-x="685" />
<glyph unicode="&#x2005;" horiz-adv-x="514" />
<glyph unicode="&#x2006;" horiz-adv-x="342" />
<glyph unicode="&#x2007;" horiz-adv-x="342" />
<glyph unicode="&#x2008;" horiz-adv-x="257" />
<glyph unicode="&#x2009;" horiz-adv-x="411" />
<glyph unicode="&#x200a;" horiz-adv-x="114" />
<glyph unicode="&#x2010;" horiz-adv-x="992" d="M167 446v273h657v-273h-657z" />
<glyph unicode="&#x2011;" horiz-adv-x="992" d="M167 446v273h657v-273h-657z" />
<glyph unicode="&#x2012;" horiz-adv-x="992" d="M167 446v273h657v-273h-657z" />
<glyph unicode="&#x2013;" horiz-adv-x="1024" d="M0 446v273h1024v-273h-1024z" />
<glyph unicode="&#x2014;" horiz-adv-x="2048" d="M0 446v273h2048v-273h-2048z" />
<glyph unicode="&#x2018;" horiz-adv-x="651" d="M133 1443h275l108 -612h-255z" />
<glyph unicode="&#x2019;" horiz-adv-x="651" d="M133 831l108 612h275l-133 -612h-250z" />
<glyph unicode="&#x201a;" horiz-adv-x="651" d="M133 -446l108 613h275l-133 -613h-250z" />
<glyph unicode="&#x201c;" horiz-adv-x="1130" d="M133 1443h270l108 -612h-250zM617 1443h270l108 -612h-250z" />
<glyph unicode="&#x201d;" horiz-adv-x="1130" d="M133 831l108 612h270l-128 -612h-250zM617 831l108 612h270l-128 -612h-250z" />
<glyph unicode="&#x201e;" horiz-adv-x="1130" d="M133 -446l108 613h270l-128 -613h-250zM617 -446l108 613h270l-128 -613h-250z" />
<glyph unicode="&#x2020;" horiz-adv-x="1032" d="M115 1010v258l278 -2l-5 296h255l-5 -296l277 2v-258l-277 2l5 -569h-255l5 569z" />
<glyph unicode="&#x2021;" horiz-adv-x="1032" d="M115 657v230l279 -1l-5 120l5 118l-279 -1v231l278 -2l-5 210h255l-5 -210l277 2v-231l-278 1l5 -118l-5 -120l278 1v-230l-277 1l5 -215h-255l5 215z" />
<glyph unicode="&#x2022;" horiz-adv-x="1032" d="M178 582q0 142 98 241q99 99 239 99q141 0 239 -99t98 -241t-98 -241q-98 -100 -239 -100q-140 0 -239 100q-98 99 -98 241z" />
<glyph unicode="&#x2026;" horiz-adv-x="1845" d="M178 147q0 76 48 124q49 49 129 49t129 -49q48 -47 48 -124t-48 -125q-49 -49 -129 -49q-79 0 -129 49q-48 49 -48 125zM745 147q0 76 48 124q49 49 129 49t129 -49q48 -47 48 -124t-48 -125q-49 -49 -129 -49q-79 0 -129 49q-48 49 -48 125zM1306 147q0 76 48 124 q49 49 129 49t129 -49q48 -47 48 -124t-48 -125q-49 -49 -129 -49q-79 0 -129 49q-48 49 -48 125z" />
<glyph unicode="&#x202f;" horiz-adv-x="411" />
<glyph unicode="&#x2030;" horiz-adv-x="2471" d="M64 1111q0 164 93 264q94 101 245 101q152 0 245 -100q93 -101 93 -265q0 -165 -93 -266t-245 -101q-151 0 -244 101q-94 101 -94 266zM223 0l545 756l434 687h281l-554 -762l-424 -681h-282zM287 1111q0 -81 31 -128t84 -47t84 47t31 128q0 82 -30 129q-31 46 -85 46 q-53 0 -84 -47t-31 -128zM960 333q0 164 93 265t244 101q152 0 245 -100q93 -101 93 -266q0 -164 -93 -265t-245 -101q-151 0 -244 101t-93 265zM1182 334q0 -81 31 -128t84 -47t84 47t31 128q0 82 -30 128q-31 46 -85 46q-53 0 -84 -46q-31 -47 -31 -128zM1716 333 q0 164 93 265t245 101t244 -100q93 -101 93 -266q0 -164 -93 -265t-244 -101q-152 0 -245 101t-93 265zM1939 334q0 -81 31 -128t84 -47t83 47q31 47 31 128q0 82 -30 128q-31 46 -84 46t-84 -46q-31 -47 -31 -128z" />
<glyph unicode="&#x2039;" horiz-adv-x="936" d="M157 562v8l349 411h271l-347 -409v-11l347 -410h-276z" />
<glyph unicode="&#x203a;" horiz-adv-x="936" d="M157 151l347 410v11l-347 409h271l349 -411v-8l-344 -411h-276z" />
<glyph unicode="&#x2044;" horiz-adv-x="653" d="M-160 0l394 749l305 694h274l-399 -742l-300 -701h-274z" />
<glyph unicode="&#x205f;" horiz-adv-x="514" />
<glyph unicode="&#x20ac;" d="M117 487v160h161q-3 38 -3 75q0 36 3 67h-161v161h183q59 253 255 385q198 135 521 135q108 0 183 -16v-257q-63 11 -178 11q-350 0 -460 -258h533v-161h-573q-3 -31 -3 -66q0 -44 4 -76h572v-160h-529q110 -252 452 -252q127 0 186 10v-262q-88 -10 -187 -10 q-321 0 -519 133q-195 131 -256 381h-184z" />
<glyph unicode="&#x2122;" horiz-adv-x="2449" d="M79 1212v231h871v-231h-304v-697h-263v697h-304zM1112 515v928h307l249 -503h18l249 503h307v-928h-240v584h-18l-242 -508h-132l-240 508h-18v-584h-240z" />
<glyph unicode="&#x2202;" horiz-adv-x="1352" d="M143 457q0 217 129 357q129 141 330 141q101 0 193 -43q93 -43 137 -112h18q-25 185 -173 330q-148 144 -360 191l89 239q319 -61 514 -298q194 -237 194 -566q0 -335 -155 -534t-417 -199q-220 0 -360 138q-139 138 -139 356zM429 463q0 -113 63 -182q62 -69 164 -69 q125 0 202 104t80 278q-100 124 -267 124q-107 0 -175 -71q-67 -71 -67 -184z" />
<glyph unicode="&#x220f;" horiz-adv-x="1656" d="M133 1185v258h1389v-258h-226v-1475h-282v1475h-372v-1475h-283v1475h-226z" />
<glyph unicode="&#x2211;" horiz-adv-x="1329" d="M177 -35l466 608v12l-466 607v251h955v-251h-638v-10l461 -597v-12l-461 -598v-10h638v-251h-955v251z" />
<glyph unicode="&#x221a;" horiz-adv-x="1478" d="M61 711h289l199 -687h18l377 1419h544v-248h-333l-407 -1442h-378z" />
<glyph unicode="&#x221e;" horiz-adv-x="1874" d="M69 597q0 189 124 313q124 123 313 123q230 0 433 -251q199 250 430 250q189 0 312 -121q122 -120 122 -307q0 -189 -124 -313q-125 -124 -313 -124q-222 0 -432 252q-206 -251 -430 -251q-190 0 -312 121q-123 121 -123 308zM324 601q0 -79 58 -134q57 -54 141 -54 q126 0 274 188q-154 188 -275 188q-84 0 -141 -54t-57 -134zM1075 600q157 -187 274 -187q84 0 142 54q58 55 58 135q0 79 -57 133t-141 54q-131 0 -276 -189z" />
<glyph unicode="&#x222b;" horiz-adv-x="1206" d="M91 -277l29 222q39 -15 101 -15q136 0 159 152l169 1096q51 329 382 329q106 0 183 -29l-29 -222q-42 16 -101 16q-135 0 -159 -151l-169 -1098q-51 -329 -382 -329q-106 0 -183 29z" />
<glyph unicode="&#x2248;" d="M224 111q0 182 73 285q76 106 218 106q111 0 215 -91q93 -82 146 -82q101 0 108 147h205q0 -180 -76 -285q-78 -109 -214 -109q-107 0 -218 93q-96 85 -147 85q-97 0 -106 -149h-204zM224 599q0 182 73 285q76 106 218 106q111 0 215 -91q93 -82 146 -82q101 0 108 147 h205q0 -180 -76 -285q-78 -109 -214 -109q-108 0 -218 94q-97 84 -147 84q-97 0 -106 -149h-204z" />
<glyph unicode="&#x2260;" d="M170 232v243h375l84 220h-459v242h552l76 198h252l-76 -198h269v-242h-362l-84 -220h446v-243h-539l-89 -232h-252l89 232h-282z" />
<glyph unicode="&#x2264;" d="M183 38v236h1047v-236h-1047zM185 673v225l1045 301v-253l-668 -152v-18l668 -152v-253z" />
<glyph unicode="&#x2265;" d="M184 371v253l668 152v18l-668 152v253l1045 -301v-225zM185 38v236h1044v-236h-1044z" />
<glyph unicode="&#x25ca;" horiz-adv-x="1306" d="M101 685l394 720h315l393 -720l-393 -721h-315zM407 685l236 -458h18l236 458l-236 457h-18z" />
<glyph unicode="&#x25fc;" horiz-adv-x="1105" d="M0 0v1105h1105v-1105h-1105z" />
<glyph unicode="&#xf8ff;" horiz-adv-x="1969" d="M250 791q-3 188 76 324q60 102 159 163q101 63 215 65q66 2 165 -39q101 -42 130 -42q25 0 143 41q119 40 201 40q219 0 335 -179q-199 -124 -199 -346q6 -168 125 -281q84 -81 120 -81q8 9 -30 -82q-40 -95 -97 -175q-70 -107 -119 -153q-75 -70 -158 -70q-56 0 -140 37 t-154 37q-76 0 -161 -37q-84 -37 -136 -37q-82 0 -160 73q-50 46 -127 155q-183 264 -188 587zM985 1366q-26 131 91 277q116 136 272 136q10 -163 -101 -283q-47 -63 -117 -100q-74 -39 -145 -30z" />
<glyph unicode="&#xfb01;" horiz-adv-x="1421" d="M53 863v229h175v111q0 166 90 240q88 72 284 72q75 0 146 -11v-209q-44 8 -95 8q-140 0 -140 -121v-90h231v-229h-225v-863h-291v863h-175zM949 1404q0 66 47 106q47 41 125 41t125 -41q47 -40 47 -106q0 -65 -47 -106q-48 -41 -125 -41q-78 0 -125 41t-47 106zM975 0 v1103h291v-1103h-291z" />
<glyph unicode="&#xfb02;" horiz-adv-x="1431" d="M53 863v229h175v111q0 166 90 240q88 72 284 72q75 0 146 -11v-209q-44 8 -95 8q-140 0 -140 -121v-90h231v-229h-225v-863h-291v863h-175zM983 0v1524h291v-1524h-291z" />
</font>
</defs>
</svg>
