<?xml version="1.0" standalone="no"?>
<!DOCTYPE svg PUBLIC "-//W3C//DTD SVG 1.1//EN" "http://www.w3.org/Graphics/SVG/1.1/DTD/svg11.dtd" >
<svg xmlns="http://www.w3.org/2000/svg" xmlns:xlink="http://www.w3.org/1999/xlink" version="1.1">
<metadata></metadata>
<defs>
<font id="sf_ui_textlight" horiz-adv-x="1321" >
<font-face units-per-em="2048" ascent="1638" descent="-410" />
<missing-glyph horiz-adv-x="554" />
<glyph horiz-adv-x="0" />
<glyph horiz-adv-x="682" />
<glyph unicode=" "  horiz-adv-x="554" />
<glyph unicode="&#x09;" horiz-adv-x="554" />
<glyph unicode="&#xa0;" horiz-adv-x="554" />
<glyph unicode="!" horiz-adv-x="617" d="M191 101q0 51 33 85q34 33 84 33t83 -33q33 -34 33 -85q0 -50 -33 -84q-33 -33 -83 -33t-84 33q-33 34 -33 84zM232 1444h150l-11 -987h-127z" />
<glyph unicode="&#x22;" horiz-adv-x="802" d="M172 935v508h123v-508h-123zM505 935v508h123v-508h-123z" />
<glyph unicode="#" horiz-adv-x="1316" d="M81 426l23 111h230l76 381h-225l22 110h226l86 417h111l-85 -417h339l86 417h112l-87 -417h238l-23 -110h-238l-77 -381h234l-23 -111h-233l-88 -426h-112l88 426h-339l-88 -426h-111l87 426h-229zM444 535h341l77 384h-342z" />
<glyph unicode="$" d="M149 391h130q8 -114 99 -191q90 -77 231 -90v579l-55 15q-370 94 -370 371q0 161 116 267q116 105 309 119v138h104v-137q186 -14 305 -119q120 -107 124 -263h-130q-4 104 -88 178t-211 85v-544l59 -15q210 -52 304 -145q94 -91 94 -244q0 -172 -123 -281 q-124 -108 -334 -122v-142h-104v141q-203 13 -330 124q-128 110 -130 276zM315 1082q0 -195 294 -260v521q-127 -6 -210 -80q-84 -74 -84 -181zM713 108q148 7 236 82q89 76 89 195q0 112 -76 178t-249 105v-560z" />
<glyph unicode="%" horiz-adv-x="1610" d="M100 1125q0 149 83 244q84 95 215 95t215 -94q83 -95 83 -245q0 -151 -83 -246q-84 -95 -215 -95t-215 95q-83 95 -83 246zM203 0l1065 1443h141l-1063 -1443h-143zM223 1125q0 -109 48 -174q48 -66 127 -66q78 0 126 66t48 174q0 109 -47 174t-127 65q-79 0 -127 -65 q-48 -66 -48 -174zM912 320q0 149 84 244q83 95 215 95q131 0 214 -94q83 -95 83 -245q0 -151 -83 -246t-214 -95q-132 0 -215 95q-84 95 -84 246zM1035 320q0 -109 48 -175q49 -66 128 -66q78 0 126 67q48 66 48 174q0 109 -47 173q-47 65 -127 65t-128 -65t-48 -173z" />
<glyph unicode="&#x26;" horiz-adv-x="1472" d="M121 377q0 243 281 392l77 40q-197 202 -197 349q0 134 103 224q102 90 255 90t254 -89q100 -89 100 -225q0 -109 -75 -197q-78 -90 -253 -180l400 -427q92 163 92 403v46h128v-46q0 -299 -130 -495l248 -262h-172l-158 168q-198 -193 -479 -193q-209 0 -342 113 q-132 112 -132 289zM257 385q0 -128 97 -210q97 -83 252 -83q237 0 385 163l-436 469q14 6 -74 -38q-224 -116 -224 -301zM413 1151q0 -113 178 -292q274 137 274 294q0 91 -64 150q-63 59 -161 59q-96 0 -161 -60q-66 -61 -66 -151z" />
<glyph unicode="'" horiz-adv-x="469" d="M172 935v508h123v-508h-123z" />
<glyph unicode="(" horiz-adv-x="711" d="M187 599q0 489 277 843h114q-115 -141 -185 -372q-71 -232 -71 -471q0 -457 254 -867h-119q-270 340 -270 867z" />
<glyph unicode=")" horiz-adv-x="711" d="M131 1442h115q275 -352 275 -843q0 -526 -269 -867h-120q254 410 254 867q0 240 -70 471t-185 372z" />
<glyph unicode="*" horiz-adv-x="1052" d="M181 939l261 137l-261 138l53 92l249 -160l-11 297h106l-11 -297l249 160l53 -92l-261 -138l261 -137l-53 -91l-249 157l11 -294h-106l11 294l-249 -157z" />
<glyph unicode="+" d="M158 523v114h444v448h115v-448h443v-114h-443v-456h-115v456h-444z" />
<glyph unicode="," horiz-adv-x="607" d="M132 -339l85 531h162l-132 -531h-115z" />
<glyph unicode="-" horiz-adv-x="975" d="M158 520v124h656v-124h-656z" />
<glyph unicode="." horiz-adv-x="593" d="M185 100q0 46 33 78q32 32 78 32q45 0 78 -32q32 -32 32 -78q0 -45 -32 -77q-33 -33 -78 -33q-46 0 -78 33q-33 32 -33 77z" />
<glyph unicode="/" horiz-adv-x="695" d="M66 -327l443 1770h118l-444 -1770h-117z" />
<glyph unicode="0" horiz-adv-x="1282" d="M131 722q0 352 135 552q136 199 375 199q238 0 372 -200q135 -200 135 -553q0 -354 -134 -552t-373 -198q-241 0 -375 199q-135 198 -135 553zM269 722q0 -300 98 -466t274 -166t273 166t97 466q0 298 -98 464q-97 166 -272 166t-274 -166q-98 -167 -98 -464z" />
<glyph unicode="1" horiz-adv-x="913" d="M113 1033v145q8 5 66 46q74 52 118 82q169 118 205 139h136v-1445h-136v1293h-13q-20 -12 -183 -126z" />
<glyph unicode="2" horiz-adv-x="1222" d="M151 1044v1q1 187 129 307q128 121 324 121q190 0 319 -115q129 -116 129 -286q0 -112 -64 -221t-242 -299l-390 -416v-12h732v-124h-929v96l504 545q151 162 201 248q51 85 51 178q0 121 -91 203q-90 83 -223 83q-139 0 -227 -86q-88 -85 -90 -222v-1h-133z" />
<glyph unicode="3" horiz-adv-x="1260" d="M136 369h132q9 -122 110 -200q102 -79 250 -79q157 0 259 86q103 86 103 217q0 136 -100 214q-100 79 -273 79h-175v118h169q140 0 227 78q88 77 88 201q0 118 -87 194t-221 76t-221 -73q-88 -74 -98 -197h-133q12 177 136 284q125 106 321 106q184 0 313 -109t129 -265 q0 -131 -71 -220q-71 -90 -197 -118v-13q155 -17 244 -113q90 -97 90 -245q0 -178 -145 -299t-357 -121q-209 0 -348 112q-138 112 -145 287z" />
<glyph unicode="4" horiz-adv-x="1312" d="M118 326v125q223 377 662 994h196v-996h216v-123h-216v-326h-133v326h-725zM261 448h582v866h-9q-322 -439 -573 -857v-9z" />
<glyph unicode="5" horiz-adv-x="1256" d="M151 373h134q11 -121 109 -202q98 -80 235 -80q158 0 260 102t102 261t-101 261q-102 102 -258 102q-106 0 -195 -48q-88 -49 -134 -132h-130l78 806h787v-123h-679l-48 -526h13q109 142 330 142q208 0 341 -134q133 -135 133 -344q0 -214 -140 -351t-360 -137 q-197 0 -331 113q-135 114 -146 290z" />
<glyph unicode="6" horiz-adv-x="1288" d="M129 691q0 368 144 575t401 207q179 0 305 -100q125 -100 156 -269h-140q-27 113 -115 179q-87 67 -208 67q-194 0 -301 -174q-107 -175 -109 -496h12q47 122 158 194q112 72 253 72q205 0 341 -136q135 -137 135 -344q0 -215 -140 -355q-141 -140 -357 -140 q-300 0 -439 275q-96 170 -96 445zM298 471q0 -161 105 -270q104 -109 259 -109q154 0 257 106q104 106 104 263q0 160 -102 263q-101 103 -258 103q-155 0 -260 -102q-105 -103 -105 -254z" />
<glyph unicode="7" horiz-adv-x="1161" d="M122 1320v123h920v-128l-661 -1315h-146l669 1308v12h-782z" />
<glyph unicode="8" horiz-adv-x="1294" d="M135 389q0 140 87 242q86 102 228 127v12q-118 28 -188 115q-71 88 -71 206q0 167 128 275q128 107 327 107q200 0 327 -107q128 -107 128 -275q0 -118 -70 -205q-70 -88 -188 -116v-12q141 -26 228 -127q87 -102 87 -242q0 -186 -142 -302q-143 -117 -370 -117 q-226 0 -369 117q-142 117 -142 302zM273 398q0 -137 104 -224q103 -86 269 -86t270 86q104 87 104 224q0 134 -104 218q-103 83 -270 83q-166 0 -269 -84q-104 -83 -104 -217zM326 1080q0 -117 89 -190t231 -73q143 0 231 73q89 72 89 190q0 122 -89 199q-89 76 -231 76 t-231 -76q-89 -77 -89 -199z" />
<glyph unicode="9" horiz-adv-x="1288" d="M125 976q0 216 140 356q141 141 357 141q300 0 439 -277q96 -168 96 -444q0 -368 -143 -574q-144 -207 -402 -207q-181 0 -306 100q-124 100 -155 268h140q27 -112 112 -178q88 -68 211 -68q190 0 297 167q105 166 113 470q1 6 -2 17q-4 13 -4 16h-6q-47 -120 -158 -192 q-112 -73 -253 -73q-207 0 -341 136q-135 135 -135 342zM263 980q0 -158 101 -260q101 -103 259 -103q155 0 260 103q105 102 105 252q0 161 -104 270q-105 110 -260 110q-154 0 -258 -107q-103 -107 -103 -265z" />
<glyph unicode=":" horiz-adv-x="593" d="M185 100q0 46 33 78q32 32 78 32q45 0 78 -32q32 -32 32 -78q0 -45 -32 -77q-33 -33 -78 -33q-46 0 -78 33q-33 32 -33 77zM185 874q0 46 33 78q32 32 78 32q45 0 78 -32q32 -32 32 -78t-32 -78q-33 -33 -78 -33q-46 0 -78 33q-33 32 -33 78z" />
<glyph unicode=";" horiz-adv-x="593" d="M132 -339l85 531h162l-132 -531h-115zM185 874q0 46 33 78q32 32 78 32q45 0 78 -32q32 -32 32 -78t-32 -78q-33 -33 -78 -33q-46 0 -78 33q-33 32 -33 78z" />
<glyph unicode="&#x3c;" d="M227 522v109l865 531v-143l-733 -437v-12l733 -436v-143z" />
<glyph unicode="=" d="M162 331v115h995v-115h-995zM162 714v115h995v-115h-995z" />
<glyph unicode="&#x3e;" d="M227 -9v143l732 436v12l-732 437v143l865 -531v-109z" />
<glyph unicode="?" horiz-adv-x="1020" d="M81 1079q9 165 117 268q114 109 302 109q179 0 295 -102q115 -102 115 -256q0 -205 -211 -341q-98 -63 -133 -116q-35 -52 -35 -136v-75h-133v94q-1 99 46 170q45 69 152 137q95 62 134 120q39 59 39 141q0 107 -77 176t-197 69t-197 -70t-87 -188h-130zM360 101 q0 51 33 85q33 33 84 33q50 0 83 -33q33 -34 33 -85q0 -50 -33 -84q-33 -33 -83 -33q-51 0 -84 33q-33 34 -33 84z" />
<glyph unicode="@" horiz-adv-x="1871" d="M137 604q0 367 230 598q229 232 593 232q354 0 577 -207q223 -208 223 -537q0 -242 -94 -382t-257 -140q-93 0 -155 51q-63 51 -71 133h-13q-70 -177 -259 -177q-155 0 -252 117t-97 305q0 184 98 300q97 116 251 116q84 0 152 -44t96 -117h13v141h116v-575 q0 -148 141 -148q103 0 162 113t59 309q0 286 -194 464q-194 179 -505 179q-306 0 -505 -207q-200 -208 -200 -528q0 -331 199 -532t526 -201q223 0 332 44v-99q-132 -44 -333 -44q-378 0 -605 228q-228 229 -228 608zM685 594q0 -142 66 -226t176 -84q111 0 177 86t66 229 q0 141 -65 224q-66 83 -177 83q-110 0 -176 -85q-67 -86 -67 -227z" />
<glyph unicode="A" horiz-adv-x="1363" d="M73 0l540 1443h136l539 -1443h-144l-160 442h-606l-160 -442h-145zM419 560h524l-256 704h-13z" />
<glyph unicode="B" horiz-adv-x="1319" d="M184 0v1443h519q199 0 314 -96q115 -95 115 -260q0 -121 -75 -210q-73 -88 -189 -108v-13q153 -17 245 -112q93 -97 93 -245q0 -189 -129 -294t-363 -105h-530zM321 121h374q181 0 276 73t95 212q0 137 -100 210q-100 72 -288 72h-357v-567zM321 807h323q168 0 259 66 q91 67 91 192q0 121 -85 189q-84 68 -232 68h-356v-515z" />
<glyph unicode="C" horiz-adv-x="1455" d="M126 721q0 347 171 550q171 202 464 202q223 0 385 -133q162 -132 191 -338h-139q-31 153 -153 249q-121 95 -284 95q-227 0 -361 -169q-134 -170 -134 -456q0 -287 134 -455q134 -169 362 -169q167 0 287 86q119 86 149 228h139q-31 -199 -188 -320q-158 -121 -387 -121 q-294 0 -465 202t-171 549z" />
<glyph unicode="D" horiz-adv-x="1471" d="M184 0v1443h475q327 0 508 -192q177 -190 177 -529q0 -340 -177 -529q-180 -193 -508 -193h-475zM321 124h330q263 0 409 159q144 157 144 438t-144 439q-146 159 -409 159h-330v-1195z" />
<glyph unicode="E" horiz-adv-x="1197" d="M184 0v1443h872v-124h-735v-519h698v-122h-698v-554h735v-124h-872z" />
<glyph unicode="F" horiz-adv-x="1155" d="M184 0v1443h856v-124h-719v-542h661v-122h-661v-655h-137z" />
<glyph unicode="G" horiz-adv-x="1506" d="M126 722q0 339 176 545t467 206q231 0 392 -123q160 -123 199 -329h-139q-45 155 -163 240t-289 85q-229 0 -366 -170t-137 -454q0 -285 138 -455q137 -170 368 -170q212 0 339 124q127 123 127 327v50h-440v121h576v-160q0 -268 -164 -428q-164 -161 -438 -161 q-293 0 -470 205q-176 206 -176 547z" />
<glyph unicode="H" horiz-adv-x="1488" d="M184 0v1443h137v-642h844v642h137v-1443h-137v677h-844v-677h-137z" />
<glyph unicode="I" horiz-adv-x="507" d="M184 0v1443h137v-1443h-137z" />
<glyph unicode="J" horiz-adv-x="1088" d="M91 330h136q5 -103 78 -168t186 -65q131 0 202 78q72 79 72 223v1045h137v-1050q0 -197 -110 -310t-300 -113q-175 0 -287 100q-113 101 -114 260z" />
<glyph unicode="K" horiz-adv-x="1311" d="M184 0v1443h137v-746h12l683 746h171l-578 -623l637 -820h-177l-555 725l-193 -210v-515h-137z" />
<glyph unicode="L" horiz-adv-x="1139" d="M184 0v1443h137v-1319h722v-124h-859z" />
<glyph unicode="M" horiz-adv-x="1761" d="M184 0v1443h157l533 -1256h12l531 1256h158v-1443h-128v1177h-10l-498 -1170h-119l-498 1170h-9v-1177h-129z" />
<glyph unicode="N" horiz-adv-x="1494" d="M184 0v1443h135l841 -1198h13v1198h135v-1443h-132l-844 1199h-13v-1199h-135z" />
<glyph unicode="O" horiz-adv-x="1561" d="M126 722q0 346 176 549q176 202 478 202q303 0 478 -203q174 -201 174 -548t-174 -548q-175 -204 -478 -204q-304 0 -480 203q-174 202 -174 549zM266 722q0 -286 137 -455q139 -170 377 -170q237 0 375 170q137 169 137 455q0 287 -137 455q-138 169 -375 169 q-236 0 -375 -169q-139 -168 -139 -455z" />
<glyph unicode="P" horiz-adv-x="1272" d="M184 0v1443h513q207 0 335 -125q127 -125 127 -327q0 -199 -129 -323t-335 -124h-374v-544h-137zM321 666h343q167 0 261 86q95 87 95 239q0 156 -94 243q-93 87 -262 87h-343v-655z" />
<glyph unicode="Q" horiz-adv-x="1561" d="M126 721q0 348 176 550t478 202q301 0 477 -202q175 -203 175 -550q0 -454 -270 -637l183 -253h-154l-140 191q-122 -52 -271 -52q-304 0 -479 201t-175 550zM266 721q0 -288 139 -456t376 -168q105 0 192 35l-194 263h155l148 -198q210 151 210 524q0 287 -138 456 q-139 169 -374 169q-236 0 -375 -169t-139 -456z" />
<glyph unicode="R" horiz-adv-x="1309" d="M184 0v1443h517q211 0 336 -115q125 -114 125 -307q0 -153 -82 -261q-82 -109 -227 -147l350 -613h-160l-332 591h-390v-591h-137zM321 713h369q157 0 244 80q88 80 88 224q0 142 -90 223t-248 81h-363v-608z" />
<glyph unicode="S" horiz-adv-x="1284" d="M114 375h138q14 -124 127 -202q112 -78 277 -78q161 0 267 81q104 79 104 200q0 200 -322 279l-165 42q-203 50 -294 140q-91 89 -91 236q0 176 137 287q138 113 357 113q206 0 345 -109q139 -108 150 -274h-138q-17 116 -114 187q-98 71 -247 71q-155 0 -253 -77 q-97 -76 -97 -194q0 -94 72 -154q72 -59 237 -100l143 -36q223 -55 322 -149q98 -93 98 -247q0 -189 -143 -305q-144 -116 -380 -116q-224 0 -370 112q-147 112 -160 293z" />
<glyph unicode="T" horiz-adv-x="1280" d="M87 1319v124h1104v-124h-484v-1319h-136v1319h-484z" />
<glyph unicode="U" horiz-adv-x="1494" d="M188 500v943h136v-934q0 -183 113 -295q115 -114 309 -114t309 114q113 112 113 295v934h137v-943q0 -237 -150 -380q-152 -146 -409 -146q-256 0 -408 146q-150 143 -150 380z" />
<glyph unicode="V" horiz-adv-x="1363" d="M73 1443h144l457 -1264h13l457 1264h144l-539 -1443h-136z" />
<glyph unicode="W" horiz-adv-x="1956" d="M94 1443h142l317 -1230h9l347 1230h136l347 -1230h9l317 1230h142l-397 -1443h-127l-354 1205h-10l-354 -1205h-127z" />
<glyph unicode="X" horiz-adv-x="1366" d="M94 0l504 724l-500 719h165l418 -609h11l422 609h156l-508 -724l500 -719h-164l-416 606h-11l-421 -606h-156z" />
<glyph unicode="Y" d="M74 1443h157l423 -680h12l423 680h156l-517 -819v-624h-136v624z" />
<glyph unicode="Z" horiz-adv-x="1328" d="M137 0v99l863 1208v12h-834v124h1011v-100l-860 -1207v-12h872v-124h-1052z" />
<glyph unicode="[" horiz-adv-x="733" d="M187 -238v1682h417v-106h-288v-1472h301v-104h-430z" />
<glyph unicode="\" horiz-adv-x="695" d="M66 1443h118l443 -1770h-116z" />
<glyph unicode="]" horiz-adv-x="733" d="M114 -134h302v1472h-289v106h416v-1682h-429v104z" />
<glyph unicode="^" horiz-adv-x="947" d="M105 787l298 645h140l298 -645h-127l-235 531h-12l-236 -531h-126z" />
<glyph unicode="_" horiz-adv-x="919" d="M-8 -122h935v-100h-935v100z" />
<glyph unicode="`" horiz-adv-x="999" d="M290 1594h168l250 -327h-149z" />
<glyph unicode="a" horiz-adv-x="1125" d="M105 298q0 140 101 221q99 80 287 93l337 22v104q0 116 -68 178q-69 62 -200 62q-111 0 -186 -44q-76 -45 -95 -123h-133q19 128 134 206q114 78 284 78q189 0 293 -94q103 -93 103 -262v-739h-126v185h-12q-49 -96 -143 -149q-94 -54 -213 -54q-160 0 -261 86 q-102 87 -102 230zM240 300q0 -92 71 -147q69 -55 179 -55q145 0 242 87q98 88 98 216v126l-319 -23q-271 -19 -271 -204z" />
<glyph unicode="b" horiz-adv-x="1252" d="M178 0v1506h131v-638h12q45 105 143 166t220 61q205 0 329 -152t124 -404q0 -251 -124 -404q-125 -153 -329 -153q-124 0 -222 62t-146 171h-13v-215h-125zM306 539q0 -199 96 -318q96 -120 255 -120t252 119q93 118 93 320q0 201 -93 319t-252 118t-255 -120 q-96 -119 -96 -318z" />
<glyph unicode="c" horiz-adv-x="1145" d="M114 542q0 253 131 403q132 150 354 150q180 0 302 -97q115 -92 140 -238h-133q-26 96 -105 155q-84 62 -204 62q-161 0 -255 -118q-95 -118 -95 -317q0 -202 95 -321q95 -120 255 -120q120 0 201 55q82 55 107 154h133q-25 -148 -140 -236q-119 -92 -300 -92 q-223 0 -354 152q-132 151 -132 408z" />
<glyph unicode="d" horiz-adv-x="1256" d="M114 538q0 250 126 404q125 153 330 153q123 0 220 -61t143 -167h12v639h131v-1506h-126v215h-12q-48 -108 -146 -170q-99 -63 -222 -63q-206 0 -331 153q-125 152 -125 403zM249 539q0 -201 95 -319q94 -119 254 -119q159 0 254 119t95 319q0 198 -95 318 q-96 120 -254 120q-160 0 -254 -119q-95 -119 -95 -319z" />
<glyph unicode="e" horiz-adv-x="1174" d="M114 538q0 254 131 405q130 152 350 152q215 0 339 -143t124 -390v-58h-809v-6q5 -183 100 -291q94 -108 250 -108q237 0 309 167h133q-40 -132 -158 -208t-287 -76q-222 0 -352 151q-130 150 -130 405zM250 612h671q-2 167 -91 267q-90 100 -236 100q-147 0 -241 -100 q-94 -101 -103 -267z" />
<glyph unicode="f" horiz-adv-x="718" d="M66 966v111h174v119q0 297 297 297q45 0 98 -10v-111q-37 9 -91 9q-173 0 -173 -188v-116h254v-111h-254v-966h-131v966h-174z" />
<glyph unicode="g" horiz-adv-x="1242" d="M114 552q0 244 124 393q124 150 330 150q123 0 223 -63t144 -168h12v213h126v-1093q0 -176 -128 -282t-340 -106q-184 0 -302 76q-116 75 -137 202h139q18 -75 98 -119t202 -44q156 0 247 76q90 76 90 207v242h-13q-48 -107 -143 -166q-94 -59 -218 -59q-207 0 -331 149 q-123 148 -123 392zM249 552q0 -193 92 -308q93 -116 253 -116q161 0 256 115q94 115 94 307q0 193 -95 310q-96 117 -255 117q-160 0 -253 -116q-92 -115 -92 -309z" />
<glyph unicode="h" horiz-adv-x="1224" d="M178 0v1506h131v-623h12q44 100 138 156t222 56q182 0 282 -104t100 -291v-700h-131v667q0 310 -285 310q-152 0 -245 -94t-93 -243v-640h-131z" />
<glyph unicode="i" horiz-adv-x="480" d="M142 1415q0 40 29 68q28 29 68 29t69 -29q29 -28 29 -68t-29 -69q-28 -29 -69 -29q-40 0 -68 29q-29 29 -29 69zM174 0v1077h131v-1077h-131z" />
<glyph unicode="j" horiz-adv-x="480" d="M-32 -266h27q98 0 139 42t41 140v1161h131v-1158q0 -156 -76 -228q-74 -70 -232 -70h-30v113zM143 1415q0 40 29 68q28 29 68 29t69 -29q29 -28 29 -68t-29 -69q-28 -29 -69 -29q-40 0 -68 29q-29 29 -29 69z" />
<glyph unicode="k" horiz-adv-x="1092" d="M178 0v1506h131v-933h12l526 504h164l-481 -462l503 -615h-168l-434 531l-122 -113v-418h-131z" />
<glyph unicode="l" horiz-adv-x="489" d="M178 0v1506h131v-1506h-131z" />
<glyph unicode="m" horiz-adv-x="1772" d="M168 0v1077h125v-194h13q35 99 117 156q83 56 194 56t192 -58q78 -55 113 -154h13q42 98 131 154q90 58 205 58q162 0 252 -93q89 -94 89 -265v-737h-131v707q0 270 -249 270q-123 0 -201 -84q-76 -83 -76 -210v-683h-131v721q0 116 -68 186t-180 70q-117 0 -197 -92 t-80 -224v-661h-131z" />
<glyph unicode="n" horiz-adv-x="1206" d="M168 0v1077h125v-194h13q43 100 138 156t223 56q180 0 279 -103q99 -104 99 -292v-700h-131v667q0 310 -281 310q-151 0 -243 -92q-91 -93 -91 -245v-640h-131z" />
<glyph unicode="o" horiz-adv-x="1208" d="M114 539q0 258 132 407q131 149 357 149t358 -149t132 -407t-132 -407q-132 -150 -358 -150t-357 150q-132 149 -132 407zM249 539q0 -205 94 -321q94 -117 260 -117t260 117q94 116 94 321t-94 321q-94 117 -260 117t-260 -117q-94 -116 -94 -321z" />
<glyph unicode="p" horiz-adv-x="1242" d="M168 -351v1428h125v-220h12q50 111 148 174q98 64 221 64q205 0 329 -152q124 -153 124 -404t-124 -404q-125 -153 -329 -153q-125 0 -222 59q-96 60 -141 164h-12v-556h-131zM295 539q0 -198 96 -318t254 -120q160 0 253 118q94 118 94 319q0 202 -93 320 q-94 119 -253 119q-158 0 -255 -120q-96 -120 -96 -318z" />
<glyph unicode="q" horiz-adv-x="1246" d="M114 539q0 250 125 403t330 153q122 0 222 -65q99 -64 146 -173h12v220h127v-1428h-133v556h-12q-106 -223 -362 -223q-205 0 -330 153t-125 404zM249 539q0 -201 94 -319q93 -119 252 -119q160 0 256 120q96 119 96 318q0 198 -96 318t-255 120t-253 -119t-94 -319z" />
<glyph unicode="r" horiz-adv-x="754" d="M168 0v1077h125v-177h13q27 88 110 141q83 54 190 54q64 0 101 -9v-131q-45 13 -117 13q-125 0 -208 -84q-83 -85 -83 -212v-672h-131z" />
<glyph unicode="s" horiz-adv-x="1058" d="M110 270h136q22 -82 96 -128q76 -48 192 -48q119 0 198 55t79 139q0 133 -211 183l-163 39q-152 37 -222 102q-72 68 -72 180q0 129 113 216q112 87 276 87q163 0 270 -75q107 -76 125 -204h-129q-18 76 -89 121q-72 46 -178 46q-107 0 -181 -52q-75 -54 -75 -134 q0 -123 214 -174l148 -35q159 -38 233 -105q76 -70 76 -185q0 -138 -120 -228q-118 -88 -296 -88q-176 0 -290 78q-114 77 -130 210z" />
<glyph unicode="t" horiz-adv-x="724" d="M62 966v111h174v276h131v-276h256v-111h-256v-668q0 -99 40 -143q40 -45 131 -45q47 0 80 3v-112q-40 -7 -94 -7q-155 0 -221 64q-67 63 -67 210v698h-174z" />
<glyph unicode="u" horiz-adv-x="1207" d="M159 377v700h131v-667q0 -150 74 -229q73 -79 211 -79q151 0 241 91t90 244v640h131v-1077h-125v194h-12q-40 -100 -135 -156q-94 -56 -223 -56q-180 0 -281 105q-102 105 -102 290z" />
<glyph unicode="v" horiz-adv-x="1078" d="M66 1077h140l326 -934h12l325 934h141l-402 -1077h-140z" />
<glyph unicode="w" horiz-adv-x="1566" d="M66 1077h133l239 -914h12l266 914h131l266 -914h12l241 914h132l-307 -1077h-139l-265 894h-13l-265 -894h-138z" />
<glyph unicode="x" horiz-adv-x="1049" d="M69 1077h158l293 -430h12l291 430h151l-378 -530l382 -547h-157l-293 440h-12l-294 -440h-150l380 542z" />
<glyph unicode="y" horiz-adv-x="1079" d="M66 1077h142l326 -934h12l325 934h140l-419 -1129q-71 -190 -141 -256q-72 -67 -205 -67q-40 0 -61 4v113q21 -3 59 -3q75 0 121 43q45 41 83 144l22 67z" />
<glyph unicode="z" horiz-adv-x="1082" d="M130 0v100l660 854v12h-659v111h816v-101l-658 -853v-12h660v-111h-819z" />
<glyph unicode="{" horiz-adv-x="809" d="M131 540v158q98 0 138 48q39 49 39 170v268q0 172 87 251q87 80 277 80h56v-109h-54q-127 0 -184 -54q-57 -55 -57 -177v-313q0 -216 -174 -234v-17q174 -16 174 -237v-360q0 -119 58 -175q58 -55 183 -55h54v-109h-56q-188 0 -276 82t-88 258v309q0 121 -39 168 q-39 48 -138 48z" />
<glyph unicode="|" horiz-adv-x="661" d="M272 -328v1771h115v-1771h-115z" />
<glyph unicode="}" horiz-adv-x="809" d="M80 -216h53q125 0 183 55q58 56 58 175v360q0 221 175 237v17q-175 18 -175 234v313q0 122 -57 177q-56 54 -184 54h-53v109h56q189 0 277 -80q87 -79 87 -251v-268q0 -122 39 -170t137 -48v-158q-98 0 -137 -48q-39 -47 -39 -168v-309q0 -176 -88 -258t-276 -82h-56v109 z" />
<glyph unicode="~" horiz-adv-x="1204" d="M116 559q0 148 74 235q75 87 203 87q109 0 240 -125q105 -104 176 -104q68 0 110 53t47 147h122q1 -147 -76 -236q-78 -90 -205 -90q-115 0 -244 124q-108 105 -173 105q-67 0 -107 -51q-39 -52 -44 -145h-123z" />
<glyph unicode="&#xa1;" horiz-adv-x="617" d="M191 1002q0 51 33 84q34 33 84 33t83 -33t33 -84t-33 -84t-83 -33t-84 33q-33 33 -33 84zM232 -340l12 986h127l11 -986h-150z" />
<glyph unicode="&#xa2;" d="M163 715q0 230 128 380q124 146 324 168v183h131v-182q159 -17 273 -108q114 -92 137 -224h-133q-32 99 -123 158q-93 59 -218 59q-165 0 -273 -118q-111 -121 -111 -316q0 -198 112 -322q108 -120 272 -120q135 0 226 58q90 56 114 152h133q-24 -135 -135 -223 q-111 -87 -274 -102v-187h-131v189q-200 22 -324 170q-128 152 -128 385z" />
<glyph unicode="&#xa3;" d="M124 0v116q143 36 234 132q94 100 94 227q0 86 -33 190h-280v112h241q-74 199 -74 303q0 182 134 289t358 107q164 0 309 -51v-122q-138 51 -302 51q-163 0 -261 -75q-99 -75 -99 -197q0 -113 72 -305h467v-112h-429q32 -103 32 -185q0 -110 -63 -204q-61 -92 -167 -146 v-12h830v-118h-1063z" />
<glyph unicode="&#xa5;" d="M74 1443h156l423 -670h13l423 670h156l-472 -738h259v-106h-304v-184h304v-105h-304v-310h-137v310h-304v105h304v184h-304v106h259z" />
<glyph unicode="&#xa7;" horiz-adv-x="1037" d="M111 549q0 99 64 169t178 97v12q-230 79 -230 268q0 133 108 216q108 84 279 84q164 0 270 -75q106 -76 123 -204h-132q-12 76 -83 121q-72 46 -180 46q-112 0 -182 -51q-71 -50 -71 -130q0 -129 220 -184l129 -34q166 -42 243 -110t77 -172t-72 -181q-73 -77 -191 -99 v-12q254 -60 254 -257q0 -133 -110 -218t-282 -85q-167 0 -278 80q-111 79 -122 207h134q11 -78 87 -126q74 -48 185 -48q113 0 184 51q72 51 72 131q0 128 -222 183l-129 33q-167 43 -245 112q-78 70 -78 176zM246 573q0 -145 212 -193l81 -18q108 1 179 61t71 149 q0 147 -211 193l-81 18q-107 -1 -179 -61q-72 -61 -72 -149z" />
<glyph unicode="&#xa8;" horiz-adv-x="998" d="M214 1354q0 43 30 72q30 30 72 30q43 0 72 -30q30 -29 30 -72t-30 -72q-29 -30 -72 -30q-42 0 -72 30q-30 29 -30 72zM578 1354q0 43 30 72q30 30 72 30q43 0 72 -30q30 -29 30 -72t-30 -72q-29 -30 -72 -30q-42 0 -72 30q-30 29 -30 72z" />
<glyph unicode="&#xa9;" horiz-adv-x="1742" d="M87 626q0 334 226 559q225 225 557 225q333 0 558 -225t225 -559q0 -333 -225 -559q-225 -225 -558 -225q-331 0 -557 226q-226 225 -226 558zM197 626q0 -287 194 -481t479 -194q286 0 479 194q194 193 194 481q0 289 -193 482t-480 193q-286 0 -479 -193 q-194 -194 -194 -482zM485 630q0 194 109 309q107 114 285 114q141 0 241 -77q96 -76 117 -196h-108q-21 79 -87 126q-68 49 -163 49q-128 0 -205 -87q-79 -88 -79 -238q0 -152 78 -242q78 -89 206 -89q100 0 166 46q64 45 83 123h109q-21 -122 -116 -193q-97 -73 -241 -73 q-178 0 -286 115q-109 117 -109 313z" />
<glyph unicode="&#xaa;" horiz-adv-x="957" d="M107 800q0 118 84 186q85 69 244 79l265 18v83q0 87 -59 136q-58 49 -161 49q-86 0 -143 -36t-69 -98h-126q13 112 106 177q92 66 236 66q159 0 250 -79q90 -80 90 -219v-609h-119v142h-12q-38 -76 -115 -119q-78 -44 -176 -44q-132 0 -213 74q-82 74 -82 194zM236 804 q0 -75 55 -120q55 -46 145 -46q112 0 189 69q77 68 77 169v114l-250 -19q-216 -17 -216 -167z" />
<glyph unicode="&#xab;" horiz-adv-x="1363" d="M184 563v6l359 414h157l-357 -411v-13l357 -410h-157zM635 563v6l359 414h157l-357 -411v-13l357 -410h-158z" />
<glyph unicode="&#xac;" d="M182 563v114h954v-532h-114v418h-840z" />
<glyph unicode="&#xad;" horiz-adv-x="975" d="M158 520v124h656v-124h-656z" />
<glyph unicode="&#xae;" horiz-adv-x="1260" d="M114 963q0 217 150 366q150 150 365 150q216 0 366 -150q149 -149 149 -366q0 -215 -149 -365q-150 -150 -366 -150q-215 0 -365 150t-150 365zM198 963q0 -180 125 -305q125 -126 306 -126t306 126q125 125 125 305q0 182 -125 307t-306 125t-306 -125 q-125 -126 -125 -307zM436 717v515h232q77 0 126 -43q50 -44 50 -114q0 -129 -122 -152l145 -206h-98l-138 195h-115v-195h-80zM516 981h130q110 0 110 91q0 87 -108 87h-132v-178z" />
<glyph unicode="&#xaf;" horiz-adv-x="986" d="M161 1292v106h662v-106h-662z" />
<glyph unicode="&#xb0;" horiz-adv-x="859" d="M118 1152q0 130 88 220q90 91 222 91t222 -91q89 -90 89 -220q0 -131 -89 -220q-89 -91 -222 -91t-222 91q-88 89 -88 220zM219 1152q0 -87 58 -148q60 -63 151 -63t152 63q59 61 59 148q0 88 -59 148q-61 62 -152 62q-90 0 -150 -62q-59 -60 -59 -148z" />
<glyph unicode="&#xb1;" d="M158 112v114h1002v-114h-1002zM158 671v105h444v309h115v-309h443v-105h-443v-317h-115v317h-444z" />
<glyph unicode="&#xb4;" horiz-adv-x="999" d="M272 1267l250 327h168l-269 -327h-149z" />
<glyph unicode="&#xb6;" horiz-adv-x="1316" d="M194 1004q0 193 134 316q133 123 341 123h156v-1638h-137v770h-20q-205 0 -339 122q-135 122 -135 307zM983 -195v1638h137v-1638h-137z" />
<glyph unicode="&#xb7;" horiz-adv-x="630" d="M173 739q0 62 40 102t102 40q61 0 101 -40q39 -40 39 -102t-39 -102q-40 -40 -101 -40q-62 0 -102 40t-40 102z" />
<glyph unicode="&#xb8;" horiz-adv-x="999" d="M314 -377q50 -18 127 -18q60 0 96 24t36 66q0 81 -155 81h-56v67l64 157h106l-57 -142q100 0 156 -41q57 -42 57 -119q0 -81 -63 -131q-63 -51 -168 -51q-78 0 -143 20v87z" />
<glyph unicode="&#xba;" horiz-adv-x="1032" d="M106 996q0 214 110 339q111 125 299 125q189 0 300 -124q110 -125 110 -340t-110 -340q-111 -124 -300 -124t-299 124q-110 125 -110 340zM238 996q0 -166 74 -259t203 -93q130 0 204 93t74 259q0 167 -74 260t-204 93q-129 0 -203 -93q-74 -94 -74 -260z" />
<glyph unicode="&#xbb;" horiz-adv-x="1363" d="M210 149l357 410v13l-357 411h157l359 -414v-6l-358 -414h-158zM661 149l357 410v13l-357 411h157l359 -414v-6l-359 -414h-157z" />
<glyph unicode="&#xbf;" horiz-adv-x="1019" d="M108 3q0 204 210 340q98 62 133 115q35 52 35 136v76h133v-95q1 -98 -45 -169q-45 -69 -152 -138q-173 -113 -173 -259q0 -108 76 -177q77 -70 198 -70q120 0 197 70t87 189h130q-9 -165 -117 -269q-115 -109 -302 -109q-180 0 -295 103q-115 102 -115 257zM424 1001 q0 50 33 84q34 33 84 33t83 -33q33 -34 33 -84q0 -51 -33 -84t-83 -33t-84 33q-33 33 -33 84z" />
<glyph unicode="&#xc0;" horiz-adv-x="1363" d="M73 0l540 1443h136l539 -1443h-144l-160 442h-606l-160 -442h-145zM282 1874h174l309 -297h-157zM419 560h524l-256 704h-13z" />
<glyph unicode="&#xc1;" horiz-adv-x="1363" d="M73 0l540 1443h136l539 -1443h-144l-160 442h-606l-160 -442h-145zM419 560h524l-256 704h-13zM594 1577l310 297h174l-326 -297h-158z" />
<glyph unicode="&#xc2;" horiz-adv-x="1363" d="M73 0l540 1443h136l539 -1443h-144l-160 442h-606l-160 -442h-145zM330 1577l289 297h124l289 -297h-155l-190 202h-12l-190 -202h-155zM419 560h524l-256 704h-13z" />
<glyph unicode="&#xc3;" horiz-adv-x="1363" d="M73 0l540 1443h136l539 -1443h-144l-160 442h-606l-160 -442h-145zM332 1588q0 119 56 188q55 68 148 68q90 0 170 -83q79 -83 117 -83q96 0 102 154h105q0 -115 -56 -185t-148 -70q-83 0 -161 83q-78 82 -126 82q-97 0 -101 -154h-106zM419 560h524l-256 704h-13z" />
<glyph unicode="&#xc4;" horiz-adv-x="1363" d="M73 0l540 1443h136l539 -1443h-144l-160 442h-606l-160 -442h-145zM397 1670q0 43 30 72q30 30 72 30q43 0 72 -30q30 -29 30 -72t-30 -72q-29 -30 -72 -30q-42 0 -72 30q-30 29 -30 72zM419 560h524l-256 704h-13zM761 1670q0 43 30 72q30 30 72 30q43 0 72 -30 q30 -29 30 -72t-30 -72q-29 -30 -72 -30q-42 0 -72 30q-30 29 -30 72z" />
<glyph unicode="&#xc5;" horiz-adv-x="1363" d="M73 0l540 1443h136l539 -1443h-144l-160 442h-606l-160 -442h-145zM419 560h524l-256 704h-13zM468 1781q0 88 62 149t151 61t151 -61t62 -149q0 -89 -62 -150t-151 -61t-151 61t-62 150zM556 1781q0 -53 36 -90q36 -36 89 -36t89 36q36 37 36 90t-36 89t-89 36t-89 -36 t-36 -89z" />
<glyph unicode="&#xc6;" horiz-adv-x="1955" d="M73 0l678 1443h1063v-124h-677v-526h640v-122h-640v-547h677v-124h-813v443h-581l-208 -443h-139zM475 561h526v766h-161z" />
<glyph unicode="&#xc7;" horiz-adv-x="1455" d="M126 721q0 347 171 550q171 202 464 202q223 0 385 -133q162 -132 191 -338h-139q-31 153 -153 249q-121 95 -284 95q-227 0 -361 -169q-134 -170 -134 -456q0 -287 134 -455q134 -169 362 -169q167 0 287 86q119 86 149 228h139q-29 -187 -171 -306q-141 -119 -351 -133 l-46 -114q100 0 156 -41q57 -42 57 -119q0 -81 -63 -131q-63 -51 -168 -51q-78 0 -143 20v87q50 -18 127 -18q60 0 96 24t36 66q0 81 -155 81h-56v67l53 129q-271 19 -427 218q-156 200 -156 531z" />
<glyph unicode="&#xc8;" horiz-adv-x="1197" d="M184 0v1443h872v-124h-735v-519h698v-122h-698v-554h735v-124h-872zM221 1874h174l309 -297h-157z" />
<glyph unicode="&#xc9;" horiz-adv-x="1197" d="M184 0v1443h872v-124h-735v-519h698v-122h-698v-554h735v-124h-872zM533 1577l310 297h174l-326 -297h-158z" />
<glyph unicode="&#xca;" horiz-adv-x="1197" d="M184 0v1443h872v-124h-735v-519h698v-122h-698v-554h735v-124h-872zM269 1577l289 297h124l289 -297h-155l-190 202h-12l-190 -202h-155z" />
<glyph unicode="&#xcb;" horiz-adv-x="1197" d="M184 0v1443h872v-124h-735v-519h698v-122h-698v-554h735v-124h-872zM336 1670q0 43 30 72q30 30 72 30q43 0 72 -30q30 -29 30 -72t-30 -72q-29 -30 -72 -30q-42 0 -72 30q-30 29 -30 72zM700 1670q0 43 30 72q30 30 72 30q43 0 72 -30q30 -29 30 -72t-30 -72 q-29 -30 -72 -30q-42 0 -72 30q-30 29 -30 72z" />
<glyph unicode="&#xcc;" horiz-adv-x="507" d="M-145 1874h174l309 -297h-157zM185 0v1443h137v-1443h-137z" />
<glyph unicode="&#xcd;" horiz-adv-x="507" d="M166 1577l310 297h174l-326 -297h-158zM184 0v1443h137v-1443h-137z" />
<glyph unicode="&#xce;" horiz-adv-x="507" d="M-97 1577l289 297h124l289 -297h-155l-190 202h-12l-190 -202h-155zM185 0v1443h137v-1443h-137z" />
<glyph unicode="&#xcf;" horiz-adv-x="507" d="M-30 1670q0 43 30 72q30 30 72 30q43 0 72 -30q30 -29 30 -72t-30 -72q-29 -30 -72 -30q-42 0 -72 30q-30 29 -30 72zM185 0v1443h137v-1443h-137zM334 1670q0 43 30 72q30 30 72 30q43 0 72 -30q30 -29 30 -72t-30 -72q-29 -30 -72 -30q-42 0 -72 30q-30 29 -30 72z" />
<glyph unicode="&#xd0;" horiz-adv-x="1447" d="M12 681v124h173v638h475q327 0 508 -192q177 -190 177 -529q0 -340 -177 -529q-180 -193 -508 -193h-475v681h-173zM322 124h330q263 0 409 159q144 157 144 438t-144 439q-146 159 -409 159h-330v-514h262v-124h-262v-557z" />
<glyph unicode="&#xd1;" horiz-adv-x="1494" d="M184 0v1443h135l841 -1198h13v1198h135v-1443h-132l-844 1199h-13v-1199h-135zM397 1588q0 119 56 188q55 68 148 68q90 0 170 -83q79 -83 117 -83q96 0 102 154h105q0 -115 -56 -185t-148 -70q-83 0 -161 83q-78 82 -126 82q-97 0 -101 -154h-106z" />
<glyph unicode="&#xd2;" horiz-adv-x="1561" d="M126 722q0 346 176 549q176 202 478 202q303 0 478 -203q174 -201 174 -548t-174 -548q-175 -204 -478 -204q-304 0 -480 203q-174 202 -174 549zM266 722q0 -286 137 -455q139 -170 377 -170q237 0 375 170q137 169 137 455q0 287 -137 455q-138 169 -375 169 q-236 0 -375 -169q-139 -168 -139 -455zM381 1874h174l309 -297h-157z" />
<glyph unicode="&#xd3;" horiz-adv-x="1561" d="M126 722q0 346 176 549q176 202 478 202q303 0 478 -203q174 -201 174 -548t-174 -548q-175 -204 -478 -204q-304 0 -480 203q-174 202 -174 549zM266 722q0 -286 137 -455q139 -170 377 -170q237 0 375 170q137 169 137 455q0 287 -137 455q-138 169 -375 169 q-236 0 -375 -169q-139 -168 -139 -455zM693 1577l310 297h174l-326 -297h-158z" />
<glyph unicode="&#xd4;" horiz-adv-x="1561" d="M126 722q0 346 176 549q176 202 478 202q303 0 478 -203q174 -201 174 -548t-174 -548q-175 -204 -478 -204q-304 0 -480 203q-174 202 -174 549zM266 722q0 -286 137 -455q139 -170 377 -170q237 0 375 170q137 169 137 455q0 287 -137 455q-138 169 -375 169 q-236 0 -375 -169q-139 -168 -139 -455zM429 1577l289 297h124l289 -297h-155l-190 202h-12l-190 -202h-155z" />
<glyph unicode="&#xd5;" horiz-adv-x="1561" d="M126 722q0 346 176 549q176 202 478 202q303 0 478 -203q174 -201 174 -548t-174 -548q-175 -204 -478 -204q-304 0 -480 203q-174 202 -174 549zM266 722q0 -286 137 -455q139 -170 377 -170q237 0 375 170q137 169 137 455q0 287 -137 455q-138 169 -375 169 q-236 0 -375 -169q-139 -168 -139 -455zM431 1588q0 119 56 188q55 68 148 68q90 0 170 -83q79 -83 117 -83q96 0 102 154h105q0 -115 -56 -185t-148 -70q-83 0 -161 83q-78 82 -126 82q-97 0 -101 -154h-106z" />
<glyph unicode="&#xd6;" horiz-adv-x="1561" d="M126 722q0 346 176 549q176 202 478 202q303 0 478 -203q174 -201 174 -548t-174 -548q-175 -204 -478 -204q-304 0 -480 203q-174 202 -174 549zM266 722q0 -286 137 -455q139 -170 377 -170q237 0 375 170q137 169 137 455q0 287 -137 455q-138 169 -375 169 q-236 0 -375 -169q-139 -168 -139 -455zM496 1670q0 43 30 72q30 30 72 30q43 0 72 -30q30 -29 30 -72t-30 -72q-29 -30 -72 -30q-42 0 -72 30q-30 29 -30 72zM860 1670q0 43 30 72q30 30 72 30q43 0 72 -30q30 -29 30 -72t-30 -72q-29 -30 -72 -30q-42 0 -72 30 q-30 29 -30 72z" />
<glyph unicode="&#xd8;" horiz-adv-x="1530" d="M126 722q0 346 176 549q176 202 478 202q236 0 399 -127l128 166l78 -55l-136 -177q183 -202 183 -558q0 -347 -174 -548q-175 -204 -478 -204q-254 0 -423 146l-142 -186l-79 59l152 198q-162 201 -162 535zM266 722q0 -255 111 -420l719 935q-127 109 -316 109 q-236 0 -375 -169q-139 -168 -139 -455zM441 226q134 -129 339 -129q237 0 375 170q137 169 137 455q0 277 -129 445z" />
<glyph unicode="&#xd9;" horiz-adv-x="1494" d="M188 500v943h136v-934q0 -183 113 -295q115 -114 309 -114t309 114q113 112 113 295v934h137v-943q0 -237 -150 -380q-152 -146 -409 -146q-256 0 -408 146q-150 143 -150 380zM347 1874h174l309 -297h-157z" />
<glyph unicode="&#xda;" horiz-adv-x="1494" d="M188 500v943h136v-934q0 -183 113 -295q115 -114 309 -114t309 114q113 112 113 295v934h137v-943q0 -237 -150 -380q-152 -146 -409 -146q-256 0 -408 146q-150 143 -150 380zM659 1577l310 297h174l-326 -297h-158z" />
<glyph unicode="&#xdb;" horiz-adv-x="1494" d="M188 500v943h136v-934q0 -183 113 -295q115 -114 309 -114t309 114q113 112 113 295v934h137v-943q0 -237 -150 -380q-152 -146 -409 -146q-256 0 -408 146q-150 143 -150 380zM395 1577l289 297h124l289 -297h-155l-190 202h-12l-190 -202h-155z" />
<glyph unicode="&#xdc;" horiz-adv-x="1494" d="M188 500v943h136v-934q0 -183 113 -295q115 -114 309 -114t309 114q113 112 113 295v934h137v-943q0 -237 -150 -380q-152 -146 -409 -146q-256 0 -408 146q-150 143 -150 380zM462 1670q0 43 30 72q30 30 72 30q43 0 72 -30q30 -29 30 -72t-30 -72q-29 -30 -72 -30 q-42 0 -72 30q-30 29 -30 72zM826 1670q0 43 30 72q30 30 72 30q43 0 72 -30q30 -29 30 -72t-30 -72q-29 -30 -72 -30q-42 0 -72 30q-30 29 -30 72z" />
<glyph unicode="&#xdd;" d="M74 1443h157l423 -680h12l423 680h156l-517 -819v-624h-136v624zM573 1577l310 297h174l-326 -297h-158z" />
<glyph unicode="&#xde;" horiz-adv-x="1270" d="M184 0v1443h137v-274h386q184 0 304 -108q127 -114 127 -302q0 -189 -127 -303q-120 -108 -305 -108h-385v-348h-137zM321 470h352q149 0 235 74q90 77 90 215q0 137 -90 213q-86 74 -235 74h-352v-576z" />
<glyph unicode="&#xdf;" horiz-adv-x="1229" d="M210 0v1101q0 181 110 287q109 105 292 105q177 0 289 -103q112 -102 112 -262q0 -123 -68 -218q-66 -92 -168 -122v-13q156 -15 250 -112q98 -101 98 -262q0 -179 -125 -297q-128 -120 -326 -120q-86 0 -155 14v119q61 -16 147 -16q148 0 239 85q90 83 90 216 q0 137 -99 219q-101 84 -275 84h-77v129h70q120 0 194 77q76 78 76 210q0 111 -73 182q-75 73 -197 73q-130 0 -203 -77q-71 -76 -71 -212v-1087h-130z" />
<glyph unicode="&#xe0;" horiz-adv-x="1125" d="M105 298q0 140 101 221q99 80 287 93l337 22v104q0 116 -68 178q-69 62 -200 62q-111 0 -186 -44q-76 -45 -95 -123h-133q19 128 134 206q114 78 284 78q189 0 293 -94q103 -93 103 -262v-739h-126v185h-12q-49 -96 -143 -149q-94 -54 -213 -54q-160 0 -261 86 q-102 87 -102 230zM240 300q0 -92 71 -147q69 -55 179 -55q145 0 242 87q98 88 98 216v126l-319 -23q-271 -19 -271 -204zM245 1594h168l250 -327h-149z" />
<glyph unicode="&#xe1;" horiz-adv-x="1125" d="M105 298q0 140 101 221q99 80 287 93l337 22v104q0 116 -68 178q-69 62 -200 62q-111 0 -186 -44q-76 -45 -95 -123h-133q19 128 134 206q114 78 284 78q189 0 293 -94q103 -93 103 -262v-739h-126v185h-12q-49 -96 -143 -149q-94 -54 -213 -54q-160 0 -261 86 q-102 87 -102 230zM240 300q0 -92 71 -147q69 -55 179 -55q145 0 242 87q98 88 98 216v126l-319 -23q-271 -19 -271 -204zM477 1267l250 327h168l-269 -327h-149z" />
<glyph unicode="&#xe2;" horiz-adv-x="1125" d="M105 298q0 140 101 221q99 80 287 93l337 22v104q0 116 -68 178q-69 62 -200 62q-111 0 -186 -44q-76 -45 -95 -123h-133q19 128 134 206q114 78 284 78q189 0 293 -94q103 -93 103 -262v-739h-126v185h-12q-49 -96 -143 -149q-94 -54 -213 -54q-160 0 -261 86 q-102 87 -102 230zM214 1228l275 332h154l275 -332h-153l-193 243h-12l-193 -243h-153zM240 300q0 -92 71 -147q69 -55 179 -55q145 0 242 87q98 88 98 216v126l-319 -23q-271 -19 -271 -204z" />
<glyph unicode="&#xe3;" horiz-adv-x="1125" d="M105 298q0 140 101 221q99 80 287 93l337 22v104q0 116 -68 178q-69 62 -200 62q-111 0 -186 -44q-76 -45 -95 -123h-133q19 128 134 206q114 78 284 78q189 0 293 -94q103 -93 103 -262v-739h-126v185h-12q-49 -96 -143 -149q-94 -54 -213 -54q-160 0 -261 86 q-102 87 -102 230zM215 1230q0 121 56 192q56 70 153 70q85 0 164 -79t115 -79q104 0 104 158h110q0 -121 -56 -191q-56 -71 -153 -71q-84 0 -163 79q-78 79 -115 79q-104 0 -104 -158h-111zM240 300q0 -92 71 -147q69 -55 179 -55q145 0 242 87q98 88 98 216v126l-319 -23 q-271 -19 -271 -204z" />
<glyph unicode="&#xe4;" horiz-adv-x="1125" d="M105 298q0 140 101 221q99 80 287 93l337 22v104q0 116 -68 178q-69 62 -200 62q-111 0 -186 -44q-76 -45 -95 -123h-133q19 128 134 206q114 78 284 78q189 0 293 -94q103 -93 103 -262v-739h-126v185h-12q-49 -96 -143 -149q-94 -54 -213 -54q-160 0 -261 86 q-102 87 -102 230zM240 300q0 -92 71 -147q69 -55 179 -55q145 0 242 87q98 88 98 216v126l-319 -23q-271 -19 -271 -204zM282 1330q0 43 30 72q30 30 72 30q43 0 72 -30q30 -29 30 -72t-30 -72q-29 -30 -72 -30q-42 0 -72 30q-30 29 -30 72zM646 1330q0 43 30 72 q30 30 72 30q43 0 72 -30q30 -29 30 -72t-30 -72q-29 -30 -72 -30q-42 0 -72 30q-30 29 -30 72z" />
<glyph unicode="&#xe5;" horiz-adv-x="1125" d="M105 298q0 140 101 221q99 80 287 93l337 22v104q0 116 -68 178q-69 62 -200 62q-111 0 -186 -44q-76 -45 -95 -123h-133q19 128 134 206q114 78 284 78q189 0 293 -94q103 -93 103 -262v-739h-126v185h-12q-49 -96 -143 -149q-94 -54 -213 -54q-160 0 -261 86 q-102 87 -102 230zM240 300q0 -92 71 -147q69 -55 179 -55q145 0 242 87q98 88 98 216v126l-319 -23q-271 -19 -271 -204zM353 1439q0 88 62 149t151 61t151 -61t62 -149q0 -89 -62 -150t-151 -61t-151 61t-62 150zM441 1439q0 -53 36 -90q36 -36 89 -36t89 36q36 37 36 90 t-36 89t-89 36t-89 -36t-36 -89z" />
<glyph unicode="&#xe6;" horiz-adv-x="1880" d="M105 295q0 139 100 218q99 79 287 91l338 21v113q0 116 -68 178q-69 62 -200 62q-111 0 -186 -44q-76 -45 -95 -123h-133q19 128 133 206q115 78 285 78q135 0 229 -61q92 -60 122 -164h13q46 99 146 161q105 64 234 64q212 0 334 -139q121 -140 121 -383v-58h-804v-15 q5 -182 101 -292q96 -109 253 -109q226 0 300 167h133q-40 -134 -155 -209t-280 -75q-140 0 -250 72q-109 71 -154 191h-12q-48 -123 -157 -193q-111 -70 -261 -70q-167 0 -270 85q-104 86 -104 228zM240 298q0 -91 71 -146q71 -54 185 -54q142 0 238 90t96 219v111 l-321 -21q-269 -19 -269 -199zM961 622h667q-2 158 -92 258q-90 99 -232 99q-148 0 -241 -97q-92 -97 -102 -260z" />
<glyph unicode="&#xe7;" horiz-adv-x="1145" d="M114 542q0 253 131 403q132 150 354 150q180 0 302 -97q115 -92 140 -238h-133q-26 96 -105 155q-84 62 -204 62q-161 0 -255 -118q-95 -118 -95 -317q0 -202 95 -321q95 -120 255 -120q120 0 201 55q82 55 107 154h133q-23 -135 -122 -221q-102 -89 -259 -104l-51 -127 q100 0 156 -41q57 -42 57 -119q0 -81 -63 -131q-63 -51 -168 -51q-78 0 -143 20v87q50 -18 127 -18q60 0 96 24t36 66q0 81 -155 81h-56v67l57 141q-202 17 -320 166q-118 150 -118 392z" />
<glyph unicode="&#xe8;" horiz-adv-x="1174" d="M114 538q0 254 131 405q130 152 350 152q215 0 339 -143t124 -390v-58h-809v-6q5 -183 100 -291q94 -108 250 -108q237 0 309 167h133q-40 -132 -158 -208t-287 -76q-222 0 -352 151q-130 150 -130 405zM250 612h671q-2 167 -91 267q-90 100 -236 100q-147 0 -241 -100 q-94 -101 -103 -267zM273 1594h168l250 -327h-149z" />
<glyph unicode="&#xe9;" horiz-adv-x="1174" d="M114 538q0 254 131 405q130 152 350 152q215 0 339 -143t124 -390v-58h-809v-6q5 -183 100 -291q94 -108 250 -108q237 0 309 167h133q-40 -132 -158 -208t-287 -76q-222 0 -352 151q-130 150 -130 405zM250 612h671q-2 167 -91 267q-90 100 -236 100q-147 0 -241 -100 q-94 -101 -103 -267zM505 1267l250 327h168l-269 -327h-149z" />
<glyph unicode="&#xea;" horiz-adv-x="1174" d="M114 538q0 254 131 405q130 152 350 152q215 0 339 -143t124 -390v-58h-809v-6q5 -183 100 -291q94 -108 250 -108q237 0 309 167h133q-40 -132 -158 -208t-287 -76q-222 0 -352 151q-130 150 -130 405zM242 1228l275 332h154l275 -332h-153l-193 243h-12l-193 -243h-153 zM250 612h671q-2 167 -91 267q-90 100 -236 100q-147 0 -241 -100q-94 -101 -103 -267z" />
<glyph unicode="&#xeb;" horiz-adv-x="1174" d="M114 538q0 254 131 405q130 152 350 152q215 0 339 -143t124 -390v-58h-809v-6q5 -183 100 -291q94 -108 250 -108q237 0 309 167h133q-40 -132 -158 -208t-287 -76q-222 0 -352 151q-130 150 -130 405zM250 612h671q-2 167 -91 267q-90 100 -236 100q-147 0 -241 -100 q-94 -101 -103 -267zM310 1330q0 43 30 72q30 30 72 30q43 0 72 -30q30 -29 30 -72t-30 -72q-29 -30 -72 -30q-42 0 -72 30q-30 29 -30 72zM674 1330q0 43 30 72q30 30 72 30q43 0 72 -30q30 -29 30 -72t-30 -72q-29 -30 -72 -30q-42 0 -72 30q-30 29 -30 72z" />
<glyph unicode="&#xec;" horiz-adv-x="489" d="M-77 1594h168l250 -327h-149zM179 0v1077h131v-1077h-131z" />
<glyph unicode="&#xed;" horiz-adv-x="489" d="M154 1267l250 327h168l-269 -327h-149zM178 0v1077h131v-1077h-131z" />
<glyph unicode="&#xee;" horiz-adv-x="489" d="M-108 1228l275 332h154l275 -332h-153l-193 243h-12l-193 -243h-153zM179 0v1077h131v-1077h-131z" />
<glyph unicode="&#xef;" horiz-adv-x="489" d="M-40 1330q0 43 30 72q30 30 72 30q43 0 72 -30q30 -29 30 -72t-30 -72q-29 -30 -72 -30q-42 0 -72 30q-30 29 -30 72zM179 0v1077h131v-1077h-131zM324 1330q0 43 30 72q30 30 72 30q43 0 72 -30q30 -29 30 -72t-30 -72q-29 -30 -72 -30q-42 0 -72 30q-30 29 -30 72z" />
<glyph unicode="&#xf0;" horiz-adv-x="1192" d="M114 525q0 235 127 383q126 147 329 147q112 0 207 -53t137 -140h12q-51 220 -200 393l-283 -102l-29 88l247 89q-74 78 -215 180h164q95 -66 166 -141l257 92l29 -88l-225 -81q237 -295 237 -726q0 -269 -128 -427q-128 -157 -346 -157q-223 0 -354 147 q-132 148 -132 396zM249 525q0 -191 96 -308q96 -116 255 -116q157 0 252 115t95 305q0 189 -95 303q-96 113 -254 113q-157 0 -253 -114q-96 -113 -96 -298z" />
<glyph unicode="&#xf1;" horiz-adv-x="1206" d="M168 0v1077h125v-194h13q43 100 138 156t223 56q180 0 279 -103q99 -104 99 -292v-700h-131v667q0 310 -281 310q-151 0 -243 -92q-91 -93 -91 -245v-640h-131zM276 1230q0 121 56 192q56 70 153 70q85 0 164 -79t115 -79q104 0 104 158h110q0 -121 -56 -191 q-56 -71 -153 -71q-84 0 -163 79q-78 79 -115 79q-104 0 -104 -158h-111z" />
<glyph unicode="&#xf2;" horiz-adv-x="1208" d="M114 539q0 258 132 407q131 149 357 149t358 -149t132 -407t-132 -407q-132 -150 -358 -150t-357 150q-132 149 -132 407zM249 539q0 -205 94 -321q94 -117 260 -117t260 117q94 116 94 321t-94 321q-94 117 -260 117t-260 -117q-94 -116 -94 -321zM282 1594h168 l250 -327h-149z" />
<glyph unicode="&#xf3;" horiz-adv-x="1208" d="M114 539q0 258 132 407q131 149 357 149t358 -149t132 -407t-132 -407q-132 -150 -358 -150t-357 150q-132 149 -132 407zM249 539q0 -205 94 -321q94 -117 260 -117t260 117q94 116 94 321t-94 321q-94 117 -260 117t-260 -117q-94 -116 -94 -321zM514 1267l250 327h168 l-269 -327h-149z" />
<glyph unicode="&#xf4;" horiz-adv-x="1208" d="M114 539q0 258 132 407q131 149 357 149t358 -149t132 -407t-132 -407q-132 -150 -358 -150t-357 150q-132 149 -132 407zM249 539q0 -205 94 -321q94 -117 260 -117t260 117q94 116 94 321t-94 321q-94 117 -260 117t-260 -117q-94 -116 -94 -321zM251 1228l275 332h154 l275 -332h-153l-193 243h-12l-193 -243h-153z" />
<glyph unicode="&#xf5;" horiz-adv-x="1208" d="M114 539q0 258 132 407q131 149 357 149t358 -149t132 -407t-132 -407q-132 -150 -358 -150t-357 150q-132 149 -132 407zM249 539q0 -205 94 -321q94 -117 260 -117t260 117q94 116 94 321t-94 321q-94 117 -260 117t-260 -117q-94 -116 -94 -321zM252 1230 q0 121 56 192q56 70 153 70q85 0 164 -79t115 -79q104 0 104 158h110q0 -121 -56 -191q-56 -71 -153 -71q-84 0 -163 79q-78 79 -115 79q-104 0 -104 -158h-111z" />
<glyph unicode="&#xf6;" horiz-adv-x="1208" d="M114 539q0 258 132 407q131 149 357 149t358 -149t132 -407t-132 -407q-132 -150 -358 -150t-357 150q-132 149 -132 407zM249 539q0 -205 94 -321q94 -117 260 -117t260 117q94 116 94 321t-94 321q-94 117 -260 117t-260 -117q-94 -116 -94 -321zM319 1330q0 43 30 72 q30 30 72 30q43 0 72 -30q30 -29 30 -72t-30 -72q-29 -30 -72 -30q-42 0 -72 30q-30 29 -30 72zM683 1330q0 43 30 72q30 30 72 30q43 0 72 -30q30 -29 30 -72t-30 -72q-29 -30 -72 -30q-42 0 -72 30q-30 29 -30 72z" />
<glyph unicode="&#xf7;" d="M168 523v114h983v-114h-983zM553 223q0 46 31 76q30 31 76 31q45 0 76 -31q30 -30 30 -76t-30 -77q-31 -30 -76 -30q-46 0 -76 30q-31 31 -31 77zM553 929q0 46 31 76q30 30 76 30q45 0 76 -30q30 -30 30 -76t-30 -77q-31 -30 -76 -30q-46 0 -76 30q-31 31 -31 77z" />
<glyph unicode="&#xf8;" horiz-adv-x="1208" d="M114 539q0 258 132 407q131 149 357 149q159 0 276 -77l82 116l79 -51l-89 -126q142 -150 142 -418q0 -258 -132 -407q-132 -150 -358 -150q-164 0 -282 82l-85 -121l-82 55l93 131q-133 152 -133 410zM249 539q0 -185 77 -299l480 676q-84 61 -203 61q-166 0 -260 -117 q-94 -116 -94 -321zM394 167q86 -66 209 -66q166 0 260 117q94 116 94 321q0 193 -83 308z" />
<glyph unicode="&#xf9;" horiz-adv-x="1211" d="M159 377v700h131v-667q0 -150 74 -229q73 -79 211 -79q151 0 241 91t90 244v640h131v-1077h-125v194h-12q-40 -100 -135 -156q-94 -56 -223 -56q-180 0 -281 105q-102 105 -102 290zM281 1594h168l250 -327h-149z" />
<glyph unicode="&#xfa;" horiz-adv-x="1211" d="M159 377v700h131v-667q0 -150 74 -229q73 -79 211 -79q151 0 241 91t90 244v640h131v-1077h-125v194h-12q-40 -100 -135 -156q-94 -56 -223 -56q-180 0 -281 105q-102 105 -102 290zM513 1267l250 327h168l-269 -327h-149z" />
<glyph unicode="&#xfb;" horiz-adv-x="1211" d="M159 377v700h131v-667q0 -150 74 -229q73 -79 211 -79q151 0 241 91t90 244v640h131v-1077h-125v194h-12q-40 -100 -135 -156q-94 -56 -223 -56q-180 0 -281 105q-102 105 -102 290zM250 1228l275 332h154l275 -332h-153l-193 243h-12l-193 -243h-153z" />
<glyph unicode="&#xfc;" horiz-adv-x="1211" d="M159 377v700h131v-667q0 -150 74 -229q73 -79 211 -79q151 0 241 91t90 244v640h131v-1077h-125v194h-12q-40 -100 -135 -156q-94 -56 -223 -56q-180 0 -281 105q-102 105 -102 290zM318 1330q0 43 30 72q30 30 72 30q43 0 72 -30q30 -29 30 -72t-30 -72q-29 -30 -72 -30 q-42 0 -72 30q-30 29 -30 72zM682 1330q0 43 30 72q30 30 72 30q43 0 72 -30q30 -29 30 -72t-30 -72q-29 -30 -72 -30q-42 0 -72 30q-30 29 -30 72z" />
<glyph unicode="&#xfd;" horiz-adv-x="1079" d="M66 1077h142l326 -934h12l325 934h140l-419 -1129q-71 -190 -141 -256q-72 -67 -205 -67q-40 0 -61 4v113q21 -3 59 -3q75 0 121 43q45 41 83 144l22 67zM446 1267l250 327h168l-269 -327h-149z" />
<glyph unicode="&#xfe;" horiz-adv-x="1252" d="M178 -371v1867h125v-639h12q50 111 148 174q98 64 221 64q205 0 329 -152q124 -153 124 -404t-124 -404q-125 -153 -329 -153q-125 0 -222 59q-96 60 -141 164h-12v-576h-131zM305 539q0 -198 96 -318t254 -120q160 0 253 118q94 118 94 319q0 202 -93 320 q-94 119 -253 119q-158 0 -255 -120q-96 -120 -96 -318z" />
<glyph unicode="&#xff;" horiz-adv-x="1079" d="M66 1077h142l326 -934h12l325 934h140l-419 -1129q-71 -190 -141 -256q-72 -67 -205 -67q-40 0 -61 4v113q21 -3 59 -3q75 0 121 43q45 41 83 144l22 67zM251 1330q0 43 30 72q30 30 72 30q43 0 72 -30q30 -29 30 -72t-30 -72q-29 -30 -72 -30q-42 0 -72 30 q-30 29 -30 72zM615 1330q0 43 30 72q30 30 72 30q43 0 72 -30q30 -29 30 -72t-30 -72q-29 -30 -72 -30q-42 0 -72 30q-30 29 -30 72z" />
<glyph unicode="&#x131;" horiz-adv-x="489" d="M178 0v1077h131v-1077h-131z" />
<glyph unicode="&#x152;" horiz-adv-x="2321" d="M126 722q0 345 175 548q174 203 472 203q173 0 315 -88t208 -237h12v295h872v-124h-748v-519h711v-122h-711v-554h748v-124h-872v302h-12q-66 -153 -207 -242q-141 -90 -316 -90q-299 0 -473 202q-174 203 -174 550zM266 722q0 -289 140 -457t381 -168q234 0 370 168 t136 457t-136 456q-136 168 -370 168q-240 0 -380 -168q-141 -168 -141 -456z" />
<glyph unicode="&#x153;" horiz-adv-x="2018" d="M114 539q0 257 131 407q132 150 358 150q148 0 260 -77t156 -208h13q44 131 153 207q110 77 253 77q214 0 339 -143q125 -144 125 -390v-57h-808v-6q4 -182 100 -291q94 -109 249 -109q239 0 309 167h133q-40 -132 -158 -208t-286 -76q-148 0 -262 78q-113 78 -148 203 h-12q-35 -126 -150 -203q-115 -78 -266 -78q-226 0 -358 150q-131 150 -131 407zM249 539q0 -205 94 -322q94 -116 260 -116t260 116t94 320q0 206 -94 323q-95 117 -260 117q-166 0 -260 -116q-94 -117 -94 -322zM1094 613h671q-2 164 -92 265q-91 101 -236 101 q-146 0 -239 -100q-94 -100 -104 -266z" />
<glyph unicode="&#x178;" d="M74 1443h157l423 -680h12l423 680h156l-517 -819v-624h-136v624zM376 1670q0 43 30 72q30 30 72 30q43 0 72 -30q30 -29 30 -72t-30 -72q-29 -30 -72 -30q-42 0 -72 30q-30 29 -30 72zM740 1670q0 43 30 72q30 30 72 30q43 0 72 -30q30 -29 30 -72t-30 -72 q-29 -30 -72 -30q-42 0 -72 30q-30 29 -30 72z" />
<glyph unicode="&#x192;" d="M87 1v127q90 -29 187 -29q218 0 253 224l64 418h-362v111h378l42 265q26 168 125 259q99 90 258 90q109 0 195 -20v-120q-71 20 -180 20q-230 0 -266 -238l-40 -256h395v-111h-412l-66 -429q-51 -334 -373 -334q-102 0 -198 23z" />
<glyph unicode="&#x2c6;" horiz-adv-x="1000" d="M147 1228l275 332h154l275 -332h-153l-193 243h-12l-193 -243h-153z" />
<glyph unicode="&#x2c7;" horiz-adv-x="1000" d="M147 1560h153l193 -243h12l193 243h153l-275 -332h-154z" />
<glyph unicode="&#x2d8;" horiz-adv-x="986" d="M162 1538h119q0 -90 55 -143q56 -55 156 -55t156 55q55 53 55 143h119q0 -134 -88 -215q-89 -83 -242 -83t-242 83q-88 81 -88 215z" />
<glyph unicode="&#x2d9;" horiz-adv-x="986" d="M383 1390q0 45 32 77t77 32t77 -32t32 -77t-32 -77q-32 -33 -77 -33t-77 33q-32 32 -32 77z" />
<glyph unicode="&#x2da;" horiz-adv-x="1000" d="M286 1439q0 88 62 149t151 61t151 -61t62 -149q0 -89 -62 -150t-151 -61t-151 61t-62 150zM374 1439q0 -53 36 -90q36 -36 89 -36t89 36q36 37 36 90t-36 89t-89 36t-89 -36t-36 -89z" />
<glyph unicode="&#x2db;" horiz-adv-x="887" d="M277 -233q0 154 168 285l94 -17q-141 -112 -141 -234q0 -54 32 -85q31 -32 85 -32q55 0 91 15v-97q-41 -23 -123 -23q-91 0 -149 52q-57 53 -57 136z" />
<glyph unicode="&#x2dc;" horiz-adv-x="999" d="M147 1252q0 121 56 192q56 70 153 70q85 0 164 -79t115 -79q104 0 104 158h110q0 -121 -56 -191q-56 -71 -153 -71q-84 0 -163 79q-78 79 -115 79q-104 0 -104 -158h-111z" />
<glyph unicode="&#x2dd;" horiz-adv-x="986" d="M106 1264l250 330h161l-271 -330h-140zM458 1264l250 330h161l-271 -330h-140z" />
<glyph unicode="&#x3a9;" horiz-adv-x="1584" d="M134 0v124h366v12q-175 91 -271 264q-94 170 -94 387q0 306 181 496q182 190 475 190t475 -190q181 -190 181 -496q0 -217 -95 -388q-96 -173 -270 -263v-12h366v-124h-527v161q386 199 386 623q0 256 -140 409q-141 153 -376 153q-236 0 -376 -153t-140 -409 q0 -424 386 -623v-161h-527z" />
<glyph unicode="&#x3c0;" horiz-adv-x="1363" d="M79 959v118h1173v-118h-217v-716q0 -76 26 -106q26 -31 90 -31q28 0 56 6v-112q-38 -10 -87 -10q-113 0 -164 61q-49 59 -49 190v718h-501v-959h-128v959h-199z" />
<glyph unicode="&#x2000;" horiz-adv-x="995" />
<glyph unicode="&#x2001;" horiz-adv-x="1991" />
<glyph unicode="&#x2002;" horiz-adv-x="995" />
<glyph unicode="&#x2003;" horiz-adv-x="1991" />
<glyph unicode="&#x2004;" horiz-adv-x="663" />
<glyph unicode="&#x2005;" horiz-adv-x="497" />
<glyph unicode="&#x2006;" horiz-adv-x="331" />
<glyph unicode="&#x2007;" horiz-adv-x="331" />
<glyph unicode="&#x2008;" horiz-adv-x="248" />
<glyph unicode="&#x2009;" horiz-adv-x="398" />
<glyph unicode="&#x200a;" horiz-adv-x="110" />
<glyph unicode="&#x2010;" horiz-adv-x="975" d="M158 520v124h656v-124h-656z" />
<glyph unicode="&#x2011;" horiz-adv-x="975" d="M158 520v124h656v-124h-656z" />
<glyph unicode="&#x2012;" horiz-adv-x="975" d="M158 520v124h656v-124h-656z" />
<glyph unicode="&#x2013;" horiz-adv-x="1024" d="M0 520v124h1024v-124h-1024z" />
<glyph unicode="&#x2014;" horiz-adv-x="2048" d="M0 520v124h2048v-124h-2048z" />
<glyph unicode="&#x2018;" horiz-adv-x="548" d="M140 1443h137l129 -508h-123z" />
<glyph unicode="&#x2019;" horiz-adv-x="548" d="M137 935l135 508h137l-149 -508h-123z" />
<glyph unicode="&#x201a;" horiz-adv-x="548" d="M137 -396l135 508h137l-149 -508h-123z" />
<glyph unicode="&#x201c;" horiz-adv-x="904" d="M140 1443h137l129 -508h-123zM496 1443h136l130 -508h-123z" />
<glyph unicode="&#x201d;" horiz-adv-x="904" d="M140 935l129 508h137l-143 -508h-123zM496 935l129 508h137l-143 -508h-123z" />
<glyph unicode="&#x201e;" horiz-adv-x="904" d="M140 -396l129 508h137l-143 -508h-123zM496 -396l129 508h137l-143 -508h-123z" />
<glyph unicode="&#x2020;" horiz-adv-x="1037" d="M161 1120v114h299v318h115v-318h299v-114h-299v-624h-115v624h-299z" />
<glyph unicode="&#x2021;" horiz-adv-x="1037" d="M161 759v114h301v301h-301v114h299v264h115v-264h299v-114h-301v-301h301v-114h-299v-263h-115v263h-299z" />
<glyph unicode="&#x2022;" horiz-adv-x="1037" d="M253 586q0 111 77 188q76 77 187 77t188 -77t77 -188t-77 -187q-77 -77 -188 -77t-187 77q-77 76 -77 187z" />
<glyph unicode="&#x2026;" horiz-adv-x="1626" d="M185 100q0 46 33 78q32 32 78 32q45 0 78 -32q32 -32 32 -78q0 -45 -32 -77q-33 -33 -78 -33q-46 0 -78 33q-33 32 -33 77zM702 100q0 46 33 78q32 32 78 32q45 0 78 -32q32 -32 32 -78q0 -45 -32 -77q-33 -33 -78 -33q-46 0 -78 33q-33 32 -33 77zM1211 100q0 46 33 78 q32 32 77 32q46 0 78 -32q33 -32 33 -78q0 -45 -33 -77q-32 -33 -78 -33q-45 0 -77 33q-33 32 -33 77z" />
<glyph unicode="&#x202f;" horiz-adv-x="398" />
<glyph unicode="&#x2030;" horiz-adv-x="2320" d="M100 1125q0 149 83 244q84 95 215 95t215 -94q83 -95 83 -245q0 -151 -83 -246q-84 -95 -215 -95t-215 95q-83 95 -83 246zM203 0l1065 1443h141l-1063 -1443h-143zM223 1125q0 -109 48 -174q48 -66 127 -66q78 0 126 66t48 174q0 109 -47 174t-127 65q-79 0 -127 -65 q-48 -66 -48 -174zM912 320q0 149 84 244q83 95 215 95q131 0 214 -94q83 -95 83 -245q0 -151 -83 -246t-214 -95q-132 0 -215 95q-84 95 -84 246zM1035 320q0 -109 48 -175q49 -66 128 -66q78 0 126 67q48 66 48 174q0 109 -47 173q-47 65 -127 65t-128 -65t-48 -173z M1631 320q0 149 83 244t215 95q131 0 214 -94q83 -95 83 -245q0 -151 -83 -246t-214 -95t-215 95q-83 95 -83 246zM1753 320q0 -109 48 -175q49 -66 128 -66q78 0 126 67q48 66 48 174q0 109 -47 173q-47 65 -127 65t-128 -65t-48 -173z" />
<glyph unicode="&#x2039;" horiz-adv-x="912" d="M184 563v6l359 414h157l-357 -411v-13l357 -410h-157z" />
<glyph unicode="&#x203a;" horiz-adv-x="912" d="M210 149l357 410v13l-357 411h157l358 -414v-6l-358 -414h-157z" />
<glyph unicode="&#x2044;" horiz-adv-x="564" d="M-101 0l637 1443h128l-637 -1443h-128z" />
<glyph unicode="&#x205f;" horiz-adv-x="497" />
<glyph unicode="&#x20ac;" d="M98 515v106h218q-5 40 -5 101q0 56 4 99h-217v105h233q53 263 248 403q193 137 500 137q68 0 124 -8v-125q-36 6 -124 6q-241 0 -395 -104q-157 -106 -207 -309h556v-105h-577q-5 -53 -5 -99q0 -48 5 -101h577v-106h-557q51 -201 209 -307q155 -104 394 -104q72 0 128 7 v-125q-58 -8 -128 -8q-306 0 -499 136q-195 139 -249 401h-233z" />
<glyph unicode="&#x2122;" horiz-adv-x="2192" d="M102 1335v108h757v-108h-318v-782h-121v782h-318zM1017 553v890h131l330 -700h11l326 700h133v-890h-113v672h-11l-300 -640h-83l-301 640h-11v-672h-112z" />
<glyph unicode="&#x2202;" horiz-adv-x="1202" d="M137 436q0 221 130 362q131 142 337 142q94 0 187 -42q93 -43 143 -110h12q-17 265 -171 445q-154 179 -399 220l34 116q302 -50 482 -277q180 -228 180 -562q0 -350 -139 -555q-140 -205 -378 -205q-182 0 -300 132q-118 131 -118 334zM275 435q0 -151 81 -247 q82 -95 210 -95q165 0 271 160q105 160 105 410q-123 155 -325 155q-148 0 -245 -109q-97 -108 -97 -274z" />
<glyph unicode="&#x220f;" horiz-adv-x="1512" d="M183 1319v124h1144v-124h-194v-1519h-136v1519h-482v-1519h-137v1519h-195z" />
<glyph unicode="&#x2211;" horiz-adv-x="1297" d="M209 -159l490 748v8l-489 725v121h893v-121h-742v-7l487 -718v-8l-488 -741v-7h742v-121h-893v121z" />
<glyph unicode="&#x221a;" horiz-adv-x="1398" d="M100 681h136l243 -772h12l434 1534h471v-124h-377l-448 -1547h-171z" />
<glyph unicode="&#x221e;" horiz-adv-x="1852" d="M91 606q0 166 114 276q115 111 285 111q120 0 220 -67q99 -66 215 -224q205 289 436 289q170 0 284 -111t114 -277t-113 -277q-113 -110 -283 -110q-232 0 -438 292q-199 -290 -439 -290q-170 0 -282 111q-113 111 -113 277zM221 603q0 -116 74 -190q75 -75 191 -75 q186 0 364 267q-109 148 -188 206q-79 59 -171 59q-118 0 -194 -75q-76 -76 -76 -192zM1000 603q104 -144 186 -204q83 -60 178 -60q116 0 190 74q75 75 75 191t-76 191q-75 75 -193 75q-96 0 -178 -61q-83 -61 -182 -206z" />
<glyph unicode="&#x222b;" horiz-adv-x="1102" d="M119 -283l1 111q51 -11 98 -11q148 0 177 182l179 1181q22 153 95 221q71 68 209 68q51 0 104 -12l-2 -111q-51 11 -98 11q-149 0 -177 -182l-179 -1181q-22 -152 -94 -221q-72 -68 -209 -68q-51 0 -104 12z" />
<glyph unicode="&#x2248;" d="M229 183q-1 136 66 213q66 75 184 75q96 0 212 -113q96 -96 153 -96q132 0 138 175h109q0 -137 -67 -213q-65 -75 -182 -75q-97 0 -213 113q-96 97 -153 97q-131 0 -137 -176h-110zM229 594q-1 136 66 212q66 76 184 76q96 0 212 -113q94 -96 153 -96q132 0 138 175h109 q0 -137 -67 -213q-65 -75 -182 -75q-97 0 -213 113q-96 96 -153 96q-131 0 -137 -175h-110z" />
<glyph unicode="&#x2260;" d="M162 331v115h404l108 268h-512v115h558l105 262h104l-105 -262h333v-115h-379l-108 -268h487v-115h-533l-130 -324h-104l130 324h-358z" />
<glyph unicode="&#x2264;" d="M173 112v114h972v-114h-972zM173 723v114l973 325v-127l-796 -249v-12l796 -249v-127z" />
<glyph unicode="&#x2265;" d="M173 112v114h973v-114h-973zM173 398v127l796 249v12l-796 249v127l973 -325v-114z" />
<glyph unicode="&#x25ca;" horiz-adv-x="1177" d="M129 652l391 690h136l390 -690l-390 -691h-136zM267 652l315 -564h12l314 564l-314 563h-12z" />
<glyph unicode="&#x25fc;" horiz-adv-x="1075" d="M0 0v1075h1075v-1075h-1075z" />
<glyph unicode="&#xf8ff;" horiz-adv-x="1963" d="M247 791q-3 188 76 324q60 102 159 163q101 63 215 65q66 2 165 -39q101 -42 130 -42q25 0 143 41q119 40 201 40q219 0 335 -179q-199 -124 -199 -346q6 -168 125 -281q84 -81 120 -81q8 9 -30 -82q-40 -95 -97 -175q-70 -107 -119 -153q-75 -70 -158 -70q-56 0 -140 37 t-154 37q-76 0 -161 -37q-84 -37 -136 -37q-82 0 -160 73q-50 46 -127 155q-183 264 -188 587zM982 1366q-26 131 91 277q116 136 272 136q10 -163 -101 -283q-47 -63 -117 -100q-74 -39 -145 -30z" />
<glyph unicode="&#xfb01;" horiz-adv-x="1197" d="M66 966v111h174v119q0 297 297 297q45 0 98 -10v-111q-37 9 -91 9q-173 0 -173 -188v-116h254v-111h-254v-966h-131v966h-174zM850 1415q0 40 29 68q28 29 68 29t69 -29q29 -28 29 -68t-29 -69q-28 -29 -69 -29q-40 0 -68 29q-29 29 -29 69zM882 0v1077h131v-1077h-131z " />
<glyph unicode="&#xfb02;" horiz-adv-x="1197" d="M66 966v111h174v119q0 297 297 297q45 0 98 -10v-111q-37 9 -91 9q-173 0 -173 -188v-116h254v-111h-254v-966h-131v966h-174zM886 0v1506h131v-1506h-131z" />
</font>
</defs>
</svg>
