<?xml version="1.0" encoding="utf-8"?>
<!-- Generator: Adobe Illustrator 22.0.1, SVG Export Plug-In . SVG Version: 6.00 Build 0)  -->
<svg version="1.1" id="Layer_1" xmlns="http://www.w3.org/2000/svg" xmlns:xlink="http://www.w3.org/1999/xlink" x="0px" y="0px"
	 viewBox="0 0 291.8 291.8" style="enable-background:new 0 0 291.8 291.8;" xml:space="preserve">
<style type="text/css">
	.st0{fill:#FFFFFF;}
</style>
<g>
	<g>
		<g>
			<path class="st0" d="M119.3,100.2l-14.6,91.1H128l14.6-91.1C142.7,100.2,119.3,100.2,119.3,100.2z M189.9,137.3
				c-8.2-4-13.2-6.8-13.2-10.9c0.1-3.8,4.2-7.6,13.5-7.6c7.6-0.2,13.2,1.6,17.4,3.4l2.1,0.9l3.2-19.1c-4.6-1.8-12-3.8-21-3.8
				c-23.1,0-39.4,12-39.5,29.2c-0.2,12.7,11.7,19.7,20.5,23.9c9.1,4.3,12.1,7.1,12.1,11c-0.1,5.9-7.3,8.6-14.1,8.6
				c-9.3,0-14.4-1.4-22-4.7l-3.1-1.4l-3.3,19.8c5.5,2.4,15.6,4.6,26.1,4.7c24.6,0,40.5-11.8,40.7-30.2
				C209.6,151.3,203.4,143.6,189.9,137.3z M272.9,100.5h-18.1c-5.6,0-9.8,1.6-12.2,7.3l-34.8,83.5h24.6l6.8-18.1h27.5l3.5,18.2h21.7
				L272.9,100.5z M245.9,155c0.5,0,9.4-29.5,9.4-29.5l7.1,29.5C262.5,155,250.5,155,245.9,155z M85.1,100.2l-22.9,61.9l-2.5-12.2
				c-4.2-14.1-17.5-29.4-32.4-37l21,78.3H73l36.8-91L85.1,100.2L85.1,100.2z"/>
		</g>
	</g>
	<path class="st0" d="M51.9,112c-1.8-6.9-7.5-11.6-15.2-11.7H0.4L0,101.9c28.3,7,52.1,28.5,59.8,48.7L51.9,112z"/>
</g>
</svg>
